<svg width="217" height="216" viewBox="0 0 217 216" fill="none" xmlns="http://www.w3.org/2000/svg">
<mask id="mask0_1635_39140" style="mask-type:alpha" maskUnits="userSpaceOnUse" x="0" y="0" width="217" height="216">
<path d="M0.5 108C0.5 48.3534 48.8534 0 108.5 0C168.147 0 216.5 48.3534 216.5 108C216.5 167.647 168.147 216 108.5 216C48.8534 216 0.5 167.647 0.5 108Z" fill="#ECF7F8"/>
</mask>
<g mask="url(#mask0_1635_39140)">
<path d="M0.5 108C0.5 48.3534 48.8534 0 108.5 0C168.147 0 216.5 48.3534 216.5 108C216.5 167.647 168.147 216 108.5 216C48.8534 216 0.5 167.647 0.5 108Z" fill="#ECF7F8"/>
<path d="M-13.5737 192.395H77.1765V180.854H-13.5737V192.395Z" fill="#798F9B"/>
<path d="M71.9253 213.849H77.0846V182.079H71.9253V213.849Z" fill="#547585"/>
<path d="M76.4212 177.548H-11.9305C-13.3416 177.548 -14.5 178.704 -14.5 180.117V180.148C-14.5 181.562 -13.3416 182.717 -11.9305 182.717H76.4212C77.8348 182.717 78.9907 181.562 78.9907 180.148V180.117C78.9907 178.704 77.8348 177.548 76.4212 177.548Z" fill="#547585"/>
<path d="M31.5869 130.825H87.6736V123.393H31.5869V130.825Z" fill="#798F9B"/>
<path d="M90.1716 121.583H28.4688C27.6421 121.583 26.9634 122.262 26.9634 123.091C26.9634 123.921 27.6421 124.597 28.4688 124.597H90.1716C91.0009 124.597 91.6796 123.921 91.6796 123.091C91.6796 122.262 91.0009 121.583 90.1716 121.583Z" fill="#547585"/>
<path d="M28.5046 153.93H32.5107V123.995H28.5046V153.93Z" fill="#547585"/>
<path d="M170.629 156.75H167.432L164.745 143.193H169.733L170.629 156.75Z" fill="#82725E"/>
<path d="M175.436 156.29H172.239L171.856 142.733H176.845L175.436 156.29Z" fill="#82725E"/>
<path d="M165.467 148.36L176.561 148.375L178.866 139.953L162.951 139.84L165.467 148.36Z" fill="#00A1C2"/>
<path d="M133.488 132.846H187.847V125.296H133.488V132.846Z" fill="#798F9B"/>
<path d="M190.2 123.458H130.538C129.696 123.458 129.007 124.147 129.007 124.987C129.007 125.829 129.696 126.52 130.538 126.52H190.2C191.042 126.52 191.731 125.829 191.731 124.987C191.731 124.147 191.042 123.458 190.2 123.458Z" fill="#547585"/>
<path d="M187.549 156.318H191.432V125.906H187.549V156.318Z" fill="#547585"/>
<path d="M130.5 156.318H134.383V125.906H130.5V156.318Z" fill="#547585"/>
<path d="M167.61 109.667L167.041 114.112L174.701 113.977L174.132 109.532" fill="#82725E"/>
<path d="M163.979 113.309H175.934C175.934 113.309 179.261 113.758 180.159 116.184L185.283 128.861L177.896 133.535L178.345 140.366H164.181L164.002 133.443L158.044 128.679L161.282 116.006C161.282 116.006 161.849 114.248 163.979 113.309Z" fill="#FAA443"/>
<path d="M182.958 152.277C182.958 162.355 184.581 168.546 185.742 168.546C186.903 168.546 188.523 162.355 188.523 152.277C188.523 142.198 186.903 136.008 185.742 136.008C184.581 136.008 182.958 142.198 182.958 152.277ZM182.251 152.277C182.251 143.846 183.451 135.313 185.742 135.313C188.033 135.313 189.233 143.846 189.233 152.277C189.233 160.704 188.033 169.237 185.742 169.237C183.451 169.237 182.251 160.704 182.251 152.277Z" fill="#3A445B"/>
<path d="M186.191 152.35C186.191 151.631 186.081 151.046 185.946 151.046C185.808 151.046 185.698 151.631 185.698 152.35C185.698 153.07 185.808 153.654 185.946 153.654C186.081 153.654 186.191 153.07 186.191 152.35Z" fill="#3A445B"/>
<path d="M185.77 151.7L185.946 151.697L185.829 135.66L185.653 135.663L185.77 151.7Z" fill="#3A445B"/>
<path d="M185.683 151.843L185.854 151.792L183.144 143.04L182.976 143.091L185.683 151.843Z" fill="#3A445B"/>
<path d="M185.678 152.075L185.79 151.942L182.718 149.421L182.604 149.554L185.678 152.075Z" fill="#3A445B"/>
<path d="M182.598 154.611L185.818 152.271L185.711 152.131L182.494 154.473L182.598 154.611Z" fill="#3A445B"/>
<path d="M183.03 160.572L185.933 152.353L185.767 152.297L182.864 160.516L183.03 160.572Z" fill="#3A445B"/>
<path d="M185.54 168.352L186.048 152.341L185.87 152.335L185.362 168.347L185.54 168.352Z" fill="#3A445B"/>
<path d="M188.457 160.462L188.625 160.413L186.138 152.208L185.967 152.256L188.457 160.462Z" fill="#3A445B"/>
<path d="M188.709 154.501L188.829 154.371L186.155 151.98L186.035 152.111L188.709 154.501Z" fill="#3A445B"/>
<path d="M186.109 151.927L188.806 150.723L188.732 150.567L186.035 151.769L186.109 151.927Z" fill="#3A445B"/>
<path d="M186.076 151.736L188.398 143.297L188.227 143.251L185.905 151.69L186.076 151.736Z" fill="#3A445B"/>
<path d="M185.742 135.66C185.742 135.66 189.934 149.694 185.742 168.892C185.742 168.892 188.276 167.693 188.819 156.754C188.819 156.754 189.61 139.212 185.742 135.66Z" fill="#3A445B"/>
<path d="M157.669 136.007C156.508 136.007 154.888 142.198 154.888 152.276C154.888 162.355 156.508 168.545 157.669 168.545C158.83 168.545 160.451 162.355 160.451 152.276C160.451 142.198 158.83 136.007 157.669 136.007ZM157.669 169.237C155.378 169.237 154.179 160.704 154.179 152.276C154.179 143.846 155.378 135.316 157.669 135.316C159.961 135.316 161.16 143.846 161.16 152.276C161.16 160.704 159.961 169.237 157.669 169.237Z" fill="#3A445B"/>
<path d="M157.22 152.35C157.22 151.631 157.33 151.046 157.465 151.046C157.6 151.046 157.71 151.631 157.71 152.35C157.71 153.07 157.6 153.654 157.465 153.654C157.33 153.654 157.22 153.07 157.22 152.35Z" fill="#3A445B"/>
<path d="M157.641 151.7L157.465 151.697L157.58 135.66L157.759 135.663L157.641 151.7Z" fill="#3A445B"/>
<path d="M157.725 151.843L157.557 151.792L160.264 143.04L160.435 143.091L157.725 151.843Z" fill="#3A445B"/>
<path d="M157.733 152.075L157.618 151.942L160.693 149.421L160.805 149.554L157.733 152.075Z" fill="#3A445B"/>
<path d="M160.81 154.611L157.593 152.271L157.697 152.131L160.918 154.473L160.81 154.611Z" fill="#3A445B"/>
<path d="M160.382 160.572L157.475 152.353L157.644 152.297L160.547 160.516L160.382 160.572Z" fill="#3A445B"/>
<path d="M157.871 168.352L157.363 152.341L157.539 152.335L158.047 168.347L157.871 168.352Z" fill="#3A445B"/>
<path d="M154.954 160.462L154.786 160.413L157.274 152.208L157.442 152.256L154.954 160.462Z" fill="#3A445B"/>
<path d="M154.702 154.501L154.582 154.371L157.256 151.98L157.376 152.111L154.702 154.501Z" fill="#3A445B"/>
<path d="M157.302 151.927L154.605 150.723L154.676 150.567L157.376 151.769L157.302 151.927Z" fill="#3A445B"/>
<path d="M157.335 151.736L155.013 143.297L155.184 143.251L157.506 151.69L157.335 151.736Z" fill="#3A445B"/>
<path d="M157.669 135.66C157.669 135.66 153.477 149.694 157.669 168.892C157.669 168.892 155.133 167.693 154.592 156.754C154.592 156.754 153.801 139.212 157.669 135.66Z" fill="#3A445B"/>
<path d="M158.802 144.93H184.15V119.669H158.802V144.93Z" fill="#BECDD5"/>
<path d="M157.516 152.636H185.926V151.445H157.516V152.636Z" fill="#BECDD5"/>
<path d="M162.114 158.558H170.866V155.905H162.114V158.558Z" fill="#E6E7E8"/>
<path d="M172.262 158.558H180.861V155.905H172.262V158.558Z" fill="#BECDD5"/>
<path d="M162.244 156.966H163.005V143.476H162.244V156.966Z" fill="#E6E7E8"/>
<path d="M180.154 156.966H180.914V143.476H180.154V156.966Z" fill="#BECDD5"/>
<path d="M163.811 102.931C163.811 98.0219 166.454 93.8398 170.838 93.8398C175.224 93.8398 177.74 97.6851 177.74 102.594C177.74 107.506 174.196 111.484 170.999 111.594C168.246 111.691 163.811 107.843 163.811 102.931Z" fill="#82725E"/>
<path d="M171.165 100.033V102.097L174.941 99.4534L171.165 100.033ZM171.111 104.301V106.577L174.449 104.301H171.111ZM174.352 94.8732C173.545 94.3272 172.599 93.9827 171.522 93.8781L175.334 98.5552L174.352 94.8732ZM174.119 103.985L175.171 100.05L172.412 103.985H174.119ZM174.921 99.8565L171.167 102.485L171.165 102.482V103.937H171.111V103.985H172.025L174.921 99.8565ZM177.437 103.985L175.788 100.214L176.105 103.985H177.437ZM171.165 98.4608V99.7136L174.709 99.1701L171.165 98.4608ZM171.165 93.9394V96.417L174.992 98.6343L171.165 93.9394ZM174.734 98.8512L171.165 96.7818V98.1929L171.175 98.1393L174.734 98.8512ZM163.775 101.951C163.773 102.275 163.783 102.602 163.811 102.931C163.849 103.37 163.939 103.789 164.059 104.189V104.082L164.051 104.079L164.059 104.062V103.985H164.092L165.852 99.9611L163.775 101.951ZM170.659 107.108L166.357 107.876L166.301 107.562L170.588 106.799L167.784 104.301H164.094C164.819 106.557 166.682 108.239 167.799 109.532C167.799 109.532 168.243 109.971 169.458 110.175L169.213 110.058L170.659 107.108ZM177.069 98.6343C177.038 98.545 177.01 98.4531 176.977 98.3664L176.39 98.8793L177.069 98.6343ZM169.504 110.185C170.261 110.305 171.313 110.333 172.739 110.111L170.955 107.223L169.504 110.185ZM173.053 110.02L173.688 109.667C174.071 109.216 174.553 108.762 175.053 108.261L171.287 107.157L173.053 110.02ZM177.437 99.9152C177.408 99.7825 177.37 99.6524 177.337 99.5223L176.441 99.5018L177.437 99.9152ZM167.171 94.9728C166.743 95.2662 166.35 95.6107 165.993 95.9985L166.258 98.3996L167.171 94.9728ZM177.628 101.061C177.595 100.798 177.554 100.54 177.508 100.288L176.296 99.7851L177.628 101.061ZM177.541 104.301H174.921L174.949 104.342L171.303 106.83L175.306 108.006C176.263 107.024 177.215 105.85 177.582 104.184L177.541 104.202V104.301ZM175.849 96.3123C175.528 95.8862 175.163 95.5137 174.762 95.1871L175.62 98.397L175.849 96.3123ZM177.258 99.2033C177.23 99.1115 177.199 99.0247 177.171 98.9328L176.475 99.1854L177.258 99.2033ZM165.712 96.3328C165.528 96.5522 165.357 96.7844 165.199 97.0268L165.944 98.4582L165.712 96.3328ZM163.903 100.482C163.849 100.811 163.816 101.15 163.798 101.492L165.579 99.7851L163.903 100.482ZM164.097 99.5325C164.046 99.7213 164.005 99.9152 163.967 100.112L165.434 99.5018L164.097 99.5325ZM166.411 100.168L166.087 103.985H167.432L166.411 100.168ZM165.005 97.3406C164.916 97.4937 164.829 97.6494 164.747 97.8127L165.676 98.6241L165.005 97.3406ZM165.771 103.985L166.09 100.211L164.439 103.985H165.771ZM177.682 101.551L176.023 99.9611L177.666 103.717C177.717 103.362 177.748 102.992 177.74 102.597C177.735 102.242 177.715 101.895 177.682 101.551ZM164.329 98.7951C164.278 98.9328 164.235 99.0732 164.194 99.2135L165.403 99.1854L164.329 98.7951ZM170.94 106.919L170.958 106.909L170.963 106.891L170.953 106.879H170.922L170.915 106.886L170.917 106.909L170.94 106.919ZM164.607 98.1112C164.548 98.2388 164.492 98.3689 164.441 98.4991L165.485 98.8793L164.607 98.1112ZM166.253 99.2696H166.258L166.261 99.2671H166.263L166.271 99.2569L166.268 99.2518L166.261 99.2441L166.255 99.2467H166.25L166.248 99.2518V99.2645L166.253 99.2696ZM176.847 98.0602C176.794 97.9377 176.745 97.8101 176.689 97.6902L176.202 98.6241L176.847 98.0602ZM170.848 96.7002L167.141 98.8512L170.7 98.1393L170.762 98.4506L167.169 99.1701L170.815 99.7289L170.767 100.043L166.937 99.4534L170.848 102.194V96.7002ZM175.467 100.168L174.446 103.985H175.788L175.467 100.168ZM175.62 99.2696H175.622L175.627 99.2645L175.63 99.2594V99.2543L175.627 99.2518L175.625 99.2467H175.622L175.615 99.2441L175.604 99.2543L175.612 99.2671H175.615L175.62 99.2696ZM176.125 96.7078L175.931 98.4582L176.508 97.3508C176.388 97.1289 176.26 96.9145 176.125 96.7078ZM170.79 96.371L170.848 96.4705V93.8398C170.846 93.8398 170.843 93.8398 170.841 93.8398C170.823 93.8398 170.807 93.8424 170.79 93.8424L166.883 98.6343L170.79 96.371ZM170.795 103.937H170.848V102.286L170.711 102.485L166.957 99.854L169.851 103.985H170.795V103.937ZM169.465 103.985L166.707 100.05L167.758 103.985H169.465ZM166.544 98.5526L170.361 93.8679C169.271 93.947 168.276 94.2838 167.406 94.8299L167.529 94.863L166.544 98.5526ZM170.795 104.301H168.258L170.795 106.56" fill="#3A445B"/>
<path d="M174.688 99.2955C174.688 98.8132 175.15 98.4229 175.719 98.4229C176.286 98.4229 176.748 98.8132 176.748 99.2955C176.748 99.7778 176.286 100.171 175.719 100.171C175.15 100.171 174.688 99.7778 174.688 99.2955Z" fill="#5BB7C7"/>
<path d="M169.991 106.879C169.991 106.427 170.422 106.06 170.953 106.06C171.486 106.06 171.917 106.427 171.917 106.879C171.917 107.33 171.486 107.695 170.953 107.695C170.422 107.695 169.991 107.33 169.991 106.879Z" fill="#5BB7C7"/>
<path d="M175.719 99.2949C175.719 99.2949 176.717 98.9836 178.712 99.7388C178.712 99.7388 180.501 100.839 180.981 102.903" stroke="#3A445B" stroke-width="1.292" stroke-miterlimit="10" stroke-linecap="round"/>
<path d="M175.684 99.1906C175.684 99.1906 177.403 99.6703 178.848 101.252C178.848 101.252 179.812 102.217 180.088 103.11" stroke="#3A445B" stroke-width="1.292" stroke-miterlimit="10" stroke-linecap="round"/>
<path d="M175.615 99.4635C175.615 99.4635 177.886 100.704 178.985 103.316" stroke="#3A445B" stroke-width="1.292" stroke-miterlimit="10" stroke-linecap="round"/>
<path d="M167.12 99.295C167.12 98.8434 166.689 98.4785 166.158 98.4785C165.625 98.4785 165.197 98.8434 165.197 99.295C165.197 99.7467 165.625 100.112 166.158 100.112C166.689 100.112 167.12 99.7467 167.12 99.295Z" fill="#5BB7C7"/>
<path d="M166.158 99.2949C166.158 99.2949 165.158 98.9836 163.165 99.7388C163.165 99.7388 161.377 100.839 160.895 102.903" stroke="#3A445B" stroke-width="1.292" stroke-miterlimit="10" stroke-linecap="round"/>
<path d="M166.192 99.1906C166.192 99.1906 164.472 99.6703 163.028 101.252C163.028 101.252 162.063 102.217 161.788 103.11" stroke="#3A445B" stroke-width="1.292" stroke-miterlimit="10" stroke-linecap="round"/>
<path d="M166.261 99.4635C166.261 99.4635 163.99 100.704 162.89 103.316" stroke="#3A445B" stroke-width="1.292" stroke-miterlimit="10" stroke-linecap="round"/>
<path d="M169.626 112.518C170.259 108.91 170.953 106.876 170.953 106.876L170.892 112.428" stroke="#3A445B" stroke-width="1.292" stroke-miterlimit="10" stroke-linecap="round" stroke-linejoin="round"/>
<path d="M170.953 106.879C170.953 106.879 172.198 110.083 172.333 112.382" stroke="#3A445B" stroke-width="1.292" stroke-miterlimit="10" stroke-linecap="round"/>
<path d="M106.244 69.3011H208.757V13H106.244V69.3011Z" fill="#DDF1F2"/>
<path d="M113.575 34.6964H133.483V24.291H113.575V34.6964Z" fill="#F8F8F9"/>
<path d="M113.575 55.3592H133.483V44.9512H113.575V55.3592Z" fill="#F8F8F9"/>
<path d="M122.322 55.961V59.4312H141.176" stroke="#F8F8F9" stroke-width="1.84667" stroke-miterlimit="10" stroke-dasharray="1.85 1.85"/>
<path d="M142.684 45.2547H162.591V34.8467H142.684V45.2547Z" fill="#F8F8F9"/>
<path d="M142.684 62.5983H162.591V52.1929H142.684V62.5983Z" fill="#F8F8F9"/>
<path d="M124.435 40.126H141.176" stroke="#F8F8F9" stroke-width="1.84667" stroke-miterlimit="10" stroke-dasharray="1.85 1.85"/>
<path d="M173.742 54.1063C171.06 53.8844 168.21 52.2309 167.789 49.5722C167.544 48.0259 168.195 46.4235 169.269 45.2829C170.343 44.1423 171.802 43.4253 173.305 42.9839C176.408 42.073 180.156 42.443 182.297 44.867C182.841 45.4845 183.257 46.204 183.599 46.9517C184.265 48.4239 184.65 50.0646 184.43 51.667C184.208 53.2694 183.326 54.8208 181.914 55.6143C180.335 56.5049 178.345 56.6809 176.541 56.4895C174.418 56.265 172.234 55.6603 170.511 54.3998" stroke="#F8F8F9" stroke-width="1.84667" stroke-miterlimit="10" stroke-linecap="round"/>
<path d="M154.411 223.392H149.479L147.703 202.479H155.398L154.411 223.392Z" fill="#A3876A"/>
<path d="M165.855 223.392H160.923L159.147 202.479H166.84L165.855 223.392Z" fill="#A3876A"/>
<path d="M147.7 217.787H155.62V200.081H147.7V217.787Z" fill="#00A1C2"/>
<path d="M159.348 217.787H167.268V200.081H159.348V217.787Z" fill="#00A1C2"/>
<path d="M94.6602 121.227L96.9464 132.505L99.7276 132.242L101.453 124.633" fill="#AC987E"/>
<path d="M103.287 128.042L104.076 132.76L107.222 133.022L109.579 124.633" fill="#AC987E"/>
<path d="M101.463 133.509C101.463 133.509 101.144 131.7 98.7937 131.608C98.7937 131.608 97.4746 131.608 96.6555 132.629C96.6555 132.629 96.704 132.427 96.5203 133.494C96.5203 133.494 96.6121 134.285 98.7504 134.193C98.7504 134.193 100.738 134.316 101.463 133.509Z" fill="#E8E540"/>
<path d="M84.6067 31.3639V31.8462" stroke="#F8F8F9" stroke-width="1.97067" stroke-miterlimit="10"/>
<path d="M84.6067 32.7931V39.9019" stroke="#F8F8F9" stroke-width="1.97067" stroke-miterlimit="10" stroke-dasharray="1.93 1.93"/>
<path d="M84.6067 40.3766V40.8589" stroke="#F8F8F9" stroke-width="1.97067" stroke-miterlimit="10"/>
<path d="M141.872 61.207L133.197 63.3989L141.872 61.207Z" fill="#AC987E"/>
<path d="M138.512 61.6566L138.872 61.5979L138.576 61.6566C138.553 61.6566 138.532 61.6566 138.512 61.6566ZM145.062 60.215C144.993 59.9241 144.602 60.0108 144.602 60.0108L143.352 60.4905C143.475 60.391 143.743 60.1333 143.549 59.9241C143.549 59.9241 143.334 59.7123 142.842 59.9139L141.768 60.5875C140.823 60.6156 139.823 60.8529 139.823 60.8529L138.407 60.8809C138.007 60.8835 137.958 60.7687 137.958 60.7687L138.8 60.266L139.441 59.8577C139.816 59.5924 139.703 59.3194 139.703 59.3194C139.568 59.0616 139.27 59.179 139.27 59.179L137.762 59.7251L136.001 60.6181C135.292 60.7814 134.409 61.8812 134.126 62.2562C133.824 62.3379 133.648 62.3966 133.648 62.3966L119.275 66.1372L118.076 60.3808L112.919 61.0978L116.091 71.1817L116.397 72.1335L123.113 69.8549C123.113 69.8549 126.313 68.0943 128.152 66.8951L130.26 65.7672L134.353 64.2337L138.57 63.157L141.035 62.3966L141.311 62.1695L144.845 60.7712C145.082 60.6079 145.062 60.215 145.062 60.215Z" fill="#7E6046"/>
<path d="M90.7 86.7695L92.1008 78.9386L87.7197 77.8618L87.8626 87.5962" fill="#7E6046"/>
<path d="M99.6994 46.1021L95.2239 48.3398L98.643 57.5766L109.832 59.1433L113.187 47.9545L106.923 46.1633" fill="#6A4F39"/>
<path d="M99.9011 43.7212L100.271 54.2568L102.644 58.6736L106.913 52.1262L106.668 43.7212" fill="#6A4F39"/>
<path d="M113.401 87.2748L115.267 130.129L91.6924 129.353L94.0016 87.1753" fill="#B04D8F"/>
<path d="M90.6412 86.6494L87.8625 87.2899L86.9185 89.7777L87.388 92.6227C87.388 92.6227 87.6635 92.8421 87.9952 92.8421C87.9952 92.8421 88.5744 93.2019 89.0465 93.1483C89.0465 93.1483 89.3782 93.5336 90.0391 93.452C90.0391 93.452 90.3886 94.0184 91.0699 93.7071L91.2587 93.2019C91.9604 93.7913 92.088 93.3933 92.088 93.3933L92.1697 91.944C92.1697 91.944 92.3457 90.3186 92.3534 90.2854" fill="#7E6046"/>
<path d="M116.03 72.2456L112.776 63.9912L112.003 77.7162L114.843 88.2339H92.0037L94.7391 77.604L94.1854 63.2181L91.9297 84.876L84.0989 79.0584L89.7073 52.042C89.7073 52.042 89.7583 49.937 93.1724 48.0284L97.3009 46.8368L102.759 54.8845L110.056 46.3877L113.7 47.8293C116.185 48.8321 116.892 52.3278 116.892 52.3278L120.375 63.8075L124.981 63.9606L130.678 68.8239L117.3 73.2612C117.3 73.2612 116.175 73.2586 116.03 72.2456Z" fill="#FAA443"/>
<path d="M104.555 46.6833C106.086 44.2823 106.926 44.9202 108.459 42.5166L109.495 34.7495L108.454 31.2793L105.678 30.2383H102.208L99.0846 31.6264L97.6965 35.0965L98.4186 42.4375C99.697 44.813 100.251 44.2287 101.526 46.6042C101.662 46.7369 102.134 47.1733 102.881 47.2421C103.808 47.3264 104.446 46.7803 104.555 46.6833Z" fill="#7E6046"/>
<path d="M100.891 43.155C101.731 41.8052 104.246 42.8973 105.272 43.155C105.272 43.155 103.838 44.589 102.802 44.6681C102.802 44.6681 102.006 44.6681 100.891 43.155Z" fill="#B69584"/>
<path d="M92.6825 43.2492C90.9703 42.8384 89.2582 42.4276 87.5435 42.0168C87.8013 41.0369 88.0921 39.4116 87.7502 37.4928C87.194 34.3773 85.3262 32.4431 84.0478 31.1189C83.4406 30.4886 80.6797 27.7278 76.0282 26.3908C72.2824 25.314 67.4038 25.2323 63.9361 27.2353C59.1927 29.9757 58.6365 40.0673 61.6397 44.2775C63.3135 46.6249 65.9927 47.3419 67.6002 47.7706C69.0138 48.1508 71.0985 48.0972 75.2091 47.9773C79.728 47.8446 83.3921 47.0255 87.5435 45.3058C89.7379 44.3948 91.5317 43.6932 92.6825 43.2492Z" fill="#00A1C2"/>
<path d="M60.1778 75.231L60.1293 75.2514L60.5171 74.0904C60.7034 73.4091 60.4023 72.2456 60.4023 72.2456C60.29 71.9751 60.1778 71.7046 60.0655 71.4367C59.8588 70.9468 59.6573 70.4569 59.4506 69.967C59.3613 69.7552 59.2745 69.5409 59.1852 69.3291C59.1112 69.153 59.0449 68.8749 58.8841 68.7652C58.6927 68.6325 58.3891 68.8494 58.4452 69.0765C58.4478 69.0841 58.8178 70.5845 58.8178 70.5845L57.7359 67.7139C57.5956 67.4231 57.3634 67.3899 57.223 67.4384C56.9475 67.5277 56.9934 67.7726 56.9934 67.7726L57.2536 68.5891L56.552 67.1934C56.3784 66.9383 56.1309 66.9689 56.0263 67.0046C55.7508 67.099 55.7916 67.3695 55.7916 67.3695L56.2024 69.0535L55.7737 67.8951C55.6334 67.7573 55.368 67.8007 55.2404 67.9002C55.1001 68.0099 55.1026 68.186 55.1026 68.186L55.7176 70.3242L56.159 72.0976C56.011 71.3576 55.5696 71.2096 55.5696 71.2096C55.1996 71.0616 55.0516 71.3576 55.0516 71.3576L55.1282 72.2456L55.2736 74.3124L56.3096 75.9352L57.297 76.7415C57.4654 78.2929 58.2156 85.2179 58.1186 85.69C57.9477 86.5473 57.7767 93.5795 57.7767 93.5795L56.404 97.5217C55.5492 99.5809 52.9746 112.27 52.9746 112.27L57.8762 111.53L62.5788 97.0089C63.6071 91.0075 60.1778 75.231 60.1778 75.231Z" fill="#77645A"/>
<path d="M52.1504 98.1089C52.1504 93.0415 49.5554 89.0737 45.0314 89.0737C40.5049 89.0737 37.7798 93.3885 37.7798 98.456C37.7798 101.635 39.5812 104.383 41.6276 105.963L41.1122 109.989L49.0145 109.851L48.522 106.004C50.5531 104.371 52.1504 101.452 52.1504 98.1089Z" fill="#897468"/>
<path d="M35.1415 116.516C35.1415 116.516 33.2355 122.022 33.0237 122.976C33.0237 122.976 34.1872 125.939 37.2593 124.882L41.0714 118.422" fill="#77645A"/>
<path d="M54.4468 100.688L54.0947 104.717L51.2471 108.514L49.0348 108.935L42.4951 109.252L37.226 110.517C35.9579 110.938 35.3276 112.099 35.3276 112.099L34.6948 113.998L33.3884 119.984L36.9505 122.4L36.9071 138.404L51.6706 139.473L53.7272 134.586L57.3633 119.586L57.9961 113.786L61.5811 103.031" fill="#B04D8F"/>
<path d="M109.84 223.392H104.907L103.131 202.479H110.827L109.84 223.392Z" fill="#594D3E"/>
<path d="M121.283 223.392H116.351L114.575 202.479H122.271L121.283 223.392Z" fill="#594D3E"/>
<path d="M51.0023 218.205H46.7641L43.2046 200.239H49.8158L51.0023 218.205Z" fill="#AC987E"/>
<path d="M56.7661 218.205H52.5279L52.0176 200.239H58.6288L56.7661 218.205Z" fill="#AC987E"/>
<path d="M83.0172 189.188H79.4475L79.0188 175.634H84.5864L83.0172 189.188Z" fill="#786957"/>
<path d="M79.5596 187.675C79.5596 187.675 81.6774 188.183 83.4048 187.585C83.4048 187.585 83.6778 187.973 83.9049 189.287C83.9049 189.287 83.9509 190.002 83.6549 190.392H79.6744C79.6744 190.392 79.3554 190.032 79.2432 189.346C79.2432 189.346 79.2432 188.481 79.5596 187.675Z" fill="#4A5048"/>
<path d="M88.1967 189.188H84.6296L84.2009 175.634H89.766L88.1967 189.188Z" fill="#786957"/>
<path d="M84.742 187.675C84.742 187.675 86.8573 188.183 88.5848 187.585C88.5848 187.585 88.8578 187.973 89.0849 189.287C89.0849 189.287 89.1308 190.002 88.8348 190.392H84.8543C84.8543 190.392 84.5379 190.032 84.4231 189.346C84.4231 189.346 84.4231 188.481 84.742 187.675Z" fill="#4A5048"/>
<path d="M73.2571 167.76L92.9223 168.048L90.432 178.035L78.4394 178.017C78.4394 178.017 72.313 173.075 73.0428 167.887" fill="#FAA443"/>
<path d="M70.7389 154.185H67.4422L66.2532 140.197H71.3998L70.7389 154.185Z" fill="#594D3E"/>
<path d="M80.7897 154.185H77.4904L76.304 140.197H81.448L80.7897 154.185Z" fill="#A3876A"/>
<path d="M69.6594 153.682C69.6594 153.682 71.5782 154.032 73.1424 153.621C73.1424 153.621 73.3899 153.889 73.5965 154.795C73.5965 154.795 73.6374 155.29 73.3695 155.558H69.764C69.764 155.558 69.4757 155.31 69.3711 154.836C69.3711 154.836 69.3711 154.239 69.6594 153.682Z" fill="#4A5048"/>
<path d="M77.3679 153.682C77.3679 153.682 79.2867 154.032 80.8534 153.621C80.8534 153.621 81.0984 153.889 81.305 154.795C81.305 154.795 81.3459 155.29 81.0779 155.558H77.4725C77.4725 155.558 77.1842 155.31 77.0796 154.836C77.0796 154.836 77.0796 154.239 77.3679 153.682Z" fill="#4A5048"/>
<path d="M43.1637 152.647H39.8645L38.678 138.659H43.8246L43.1637 152.647Z" fill="#77645A"/>
<path d="M50.8183 152.647H47.5191L46.3301 138.659H51.4767L50.8183 152.647Z" fill="#A3876A"/>
<path d="M39.6885 152.146C39.6885 152.146 41.6073 152.496 43.1714 152.083C43.1714 152.083 43.4189 152.353 43.6256 153.259C43.6256 153.259 43.6664 153.754 43.3985 154.022H39.7931C39.7931 154.022 39.5022 153.774 39.4001 153.3C39.4001 153.3 39.4001 152.703 39.6885 152.146Z" fill="#4A5048"/>
<path d="M47.3967 152.146C47.3967 152.146 49.3155 152.496 50.8822 152.083C50.8822 152.083 51.1272 152.353 51.3338 153.259C51.3338 153.259 51.3747 153.754 51.1068 154.022H47.5013C47.5013 154.022 47.213 153.774 47.1084 153.3C47.1084 153.3 47.1084 152.703 47.3967 152.146Z" fill="#4A5048"/>
<path d="M87.365 153.93H91.371V123.995H87.365V153.93Z" fill="#547585"/>
<path d="M54.3499 162.256H110.437V154.823H54.3499V162.256Z" fill="#798F9B"/>
<path d="M112.937 153.57H51.2342C50.4049 153.57 49.7288 154.249 49.7288 155.078C49.7288 155.907 50.4049 156.583 51.2342 156.583H112.937C113.766 156.583 114.445 155.907 114.445 155.078C114.445 154.249 113.766 153.57 112.937 153.57Z" fill="#547585"/>
<path d="M110.13 186.496H114.136V156.561H110.13V186.496Z" fill="#547585"/>
<path d="M51.2676 186.496H55.2736V156.561H51.2676V186.496Z" fill="#547585"/>
<path d="M25.6521 141.077H94.7546V137.176H25.6521V141.077Z" fill="#CCEAEE"/>
<path d="M30.643 139.235H33.9983V158.814H30.074L30.643 139.235Z" fill="#CCEAEE"/>
<path d="M50.9714 170.949H120.074V167.048H50.9714V170.949Z" fill="#CCEAEE"/>
<path d="M90.0466 139.235H93.5857V155.92H89.447L90.0466 139.235Z" fill="#CCEAEE"/>
<path d="M113.345 139.235H116.698V158.814H112.776L113.345 139.235Z" fill="#CCEAEE"/>
<path d="M92.9275 192.395H183.678V180.854H92.9275V192.395Z" fill="#798F9B"/>
<path d="M178.429 213.849H183.586V182.079H178.429V213.849Z" fill="#547585"/>
<path d="M92.7769 213.849H98.4057V182.079H92.7769V213.849Z" fill="#547585"/>
<path d="M182.922 177.548H94.5707C93.1596 177.548 92.0012 178.704 92.0012 180.117V180.148C92.0012 181.562 93.1596 182.717 94.5707 182.717H182.922C184.336 182.717 185.492 181.562 185.492 180.148V180.117C185.492 178.704 184.336 177.548 182.922 177.548Z" fill="#547585"/>
<path d="M48.0627 105.276C49.4891 103.584 52.3086 101.872 52.2448 97.981C52.1581 92.9135 49.6473 88.9458 45.1233 88.9458C40.5968 88.9458 37.4404 93.281 37.8716 98.328C38.1319 101.385 40.607 103.546 41.9874 105.136C41.9874 105.136 43.2275 106.389 47.2896 105.705" fill="#5A4C47"/>
<path d="M65.9214 98.8485C65.9214 93.7811 68.6465 89.4663 73.173 89.4663C77.697 89.4663 80.292 93.434 80.292 98.5015C80.292 103.566 76.6356 107.672 73.3389 107.787C70.4964 107.884 65.9214 103.916 65.9214 98.8485Z" fill="#594D3E"/>
<path d="M69.8405 105.796L69.2537 110.384L77.1585 110.244L76.5691 105.659" fill="#594D3E"/>
<path d="M68.6873 109.552H79.0417C79.0417 109.552 82.4736 110.017 83.4024 112.523L88.6893 125.6L81.8841 130.31L81.5729 137.477L63.0891 137.472L62.9028 130.33L60.5859 125.413L63.9234 112.336C63.9234 112.336 64.8446 109.484 68.6873 109.552Z" fill="#E8E540"/>
<path d="M97.2678 154.144C97.2678 154.144 98.9671 156.277 98.9671 157.497C98.9671 157.497 99.0309 160.156 94.8871 160.237L91.4858 155.974" fill="#786957"/>
<path d="M67.5315 153.94C67.5315 153.94 65.5872 156.145 65.5872 157.403C65.5872 157.403 65.1177 160.746 70.2515 160.238L74.1376 155.829" fill="#786957"/>
<path d="M35.2613 174.749C35.2613 174.749 33.5644 177.349 33.8196 178.584C33.8196 178.584 33.9778 181.962 39.5326 180.298L42.9263 175.098" fill="#786957"/>
<path d="M69.491 172.644C69.491 172.644 71.767 176.78 71.5144 178.015C71.5144 178.015 71.3562 181.393 65.8013 179.729L62.4077 174.529" fill="#786957"/>
<path d="M76.1125 105.796C77.5389 104.107 80.3584 102.393 80.2921 98.5014C80.2079 93.4339 77.6971 89.4688 73.1731 89.4688C68.6466 89.4688 65.4902 93.8014 65.9214 98.8484C66.1817 101.905 68.6593 104.066 70.0372 105.659C70.0372 105.659 71.2773 106.909 75.3394 106.225" fill="#262F42"/>
<path d="M91.0777 168.143L72.7878 168.268C69.8177 167.755 71.4763 158.36 71.4763 158.36L65.6459 154.576C64.4568 149.845 68.348 141.713 68.348 141.713C68.348 141.713 69.5575 137.957 73.8926 137.493H87.6126C87.6126 137.493 94.0095 138.082 95.0046 141.649C95.0046 141.649 99.4061 149.845 98.5079 155.002L92.6852 157.76C92.6852 157.76 93.8921 167.52 91.639 168.066" fill="#00A1C2"/>
<path d="M43.2477 210.956H59.3943L64.3035 195.105L41.186 194.659L43.2477 210.956Z" fill="#00A1C2"/>
<path d="M93.5757 205.503H187.771V199.348H93.5757V205.503Z" fill="#CCEAEE"/>
<path d="M40.6785 134.454C40.6785 126.465 44.9779 119.66 52.1147 119.66C59.2516 119.66 63.3443 125.916 63.3443 133.908C63.3443 141.899 57.5752 148.373 52.375 148.551C47.8918 148.707 40.6785 142.448 40.6785 134.454Z" fill="#786957"/>
<path d="M46.8354 145.454L45.9602 152.693L58.4248 152.384L57.445 145.155" fill="#786957"/>
<path d="M71.8411 125.409C71.8947 119.775 75.3343 114.636 81.1341 114.636C86.9364 114.636 90.2305 119.19 90.2611 125.008C90.2969 131.721 85.5738 135.541 81.3484 135.671C77.7047 135.783 71.7748 132.538 71.8411 125.409Z" fill="#786957"/>
<path d="M76.097 132.925C76.097 132.925 75.8087 136.653 76.1506 137.738C76.49 138.819 78.493 138.86 81.213 138.694C81.213 138.694 85.6936 138.868 86.0687 137.898C86.4438 136.931 86.0687 133.51 86.0687 133.51" fill="#786957"/>
<path d="M145.937 137.854C145.937 130.21 150.05 123.701 156.878 123.701C163.709 123.701 167.623 129.684 167.623 137.331C167.623 144.978 162.104 151.174 157.128 151.342C152.839 151.49 145.937 145.502 145.937 137.854Z" fill="#786957"/>
<path d="M151.826 148.381L150.989 155.306L162.915 155.01L161.979 148.095" fill="#786957"/>
<path d="M161.316 148.341C164.786 146.127 167.723 143.203 167.623 137.331C167.495 129.687 163.706 123.701 156.878 123.701C150.05 123.701 146.246 130.22 145.937 137.857C145.743 142.588 148.695 146.007 152.148 148.132C152.148 148.132 154.02 150.018 160.149 148.987" fill="#423648"/>
<path d="M41.8035 151.34H60.4047C60.4047 151.34 65.8192 152.073 67.2813 156.023L71.3434 174.425L63.4411 177.129L64.3291 195.373H41.2779L41.306 177.77L32.9775 175.208L36.56 155.729C36.56 155.729 37.106 151.93 41.8035 151.34Z" fill="#E8E540"/>
<path d="M123.378 35.3008V35.7524" stroke="#F8F8F9" stroke-width="1.84667" stroke-miterlimit="10"/>
<path d="M123.378 36.6406V43.3003" stroke="#F8F8F9" stroke-width="1.84667" stroke-miterlimit="10" stroke-dasharray="1.81 1.81"/>
<path d="M123.378 43.7441V44.1982" stroke="#F8F8F9" stroke-width="1.84667" stroke-miterlimit="10"/>
<path d="M149.346 187.035C149.346 187.035 142.957 196.82 145.904 200.081C145.904 200.081 164.089 202.878 168.511 200.548C168.511 200.548 172.446 191.694 168.021 187.502" fill="#00A1C2"/>
<path d="M162.441 39.6747L169.378 42.3896" stroke="#F8F8F9" stroke-width="1.84667" stroke-miterlimit="10" stroke-dasharray="1.85 1.85"/>
<path d="M163.193 58.0742L168.924 55.3593" stroke="#F8F8F9" stroke-width="1.84667" stroke-miterlimit="10" stroke-dasharray="1.85 1.85"/>
<path d="M177.322 53.3231H175.763V51.9988H177.322V53.3231ZM175.768 51.1287C175.773 50.6337 175.847 50.2713 175.99 50.0417C176.133 49.812 176.418 49.5314 176.845 49.2022C177.097 48.9981 177.296 48.7761 177.447 48.5414C177.597 48.3041 177.671 48.0387 177.671 47.7453C177.671 47.4186 177.587 47.166 177.416 46.9823C177.243 46.7986 176.998 46.7067 176.681 46.7067C176.418 46.7067 176.199 46.7833 176.015 46.9389C175.834 47.0946 175.74 47.3242 175.737 47.6228H174.232L174.222 47.5922C174.211 46.9134 174.433 46.3929 174.893 46.0331C175.349 45.6708 175.946 45.4922 176.681 45.4922C177.472 45.4922 178.095 45.6938 178.544 46.0944C178.996 46.495 179.22 47.041 179.22 47.7299C179.22 48.179 179.09 48.5949 178.825 48.9751C178.562 49.3579 178.233 49.6768 177.837 49.9345C177.62 50.1004 177.48 50.2688 177.414 50.4346C177.345 50.603 177.312 50.8352 177.312 51.1287" fill="white"/>
<path d="M138.734 106.399L141.903 104.154L143.544 101.908L143.781 99.0504L143.896 97.8256C143.896 97.8256 143.661 97.4174 143.077 97.6215C143.077 97.6215 142.37 97.8256 142.138 98.8463L142.839 96.3967L143.817 93.442C143.817 93.442 143.822 93.1996 143.595 93.0465C143.396 92.9087 142.972 92.8475 142.75 93.0414L142.071 94.6412L142.725 92.3142C142.725 92.3142 142.786 91.9416 142.349 91.8115C142.181 91.7605 141.791 91.7171 141.513 92.0692L140.403 94.0008L140.813 92.8704C140.813 92.8704 140.885 92.5336 140.448 92.4086C140.224 92.3422 139.854 92.3907 139.629 92.7888L137.912 96.7565C137.912 96.7565 138.502 94.6846 138.507 94.6718C138.596 94.358 138.114 94.0595 137.81 94.2406C137.552 94.3937 137.448 94.7765 137.33 95.0214C137.19 95.3149 137.047 95.6108 136.907 95.9043C136.583 96.5804 136.256 97.2566 135.932 97.9328C135.754 98.3053 135.572 98.6804 135.394 99.0529C135.394 99.0529 134.914 100.663 135.213 101.602L136.504 104.97" fill="#594D3E"/>
<path d="M113.146 124.25C106.663 124.25 100.45 129.981 102.299 136.536C103.787 141.805 104.427 146.566 107.887 147.431C108.53 148.5 107.747 151.113 107.405 152.33C107.405 152.33 108.913 153.188 114.169 153.67C114.169 153.67 117.675 154.272 119.372 152.346C119.372 152.346 118.579 148.534 119.196 146.395C123.161 144.742 122.404 140.733 123.496 136.536C125.21 129.95 119.63 124.25 113.146 124.25Z" fill="#594D3E"/>
<path d="M119.541 143.321C118.331 144.311 116.905 145.02 115.366 145.28C112.975 145.681 109.985 145.928 107.74 144.663C105.915 143.634 104.838 141.463 103.657 139.845L101.792 135.502C101.695 134.895 101.065 130.417 104.504 126.822C107.918 123.255 112.608 123.415 113.491 123.446C114.149 123.469 119.508 123.74 122.649 127.947C124.971 131.065 123.48 134.768 123.325 136.467C123.098 139.008 121.651 141.593 119.541 143.321Z" fill="#262F42"/>
<path d="M170.57 186.455L170.409 195.238L144.084 198.695C139.369 185.715 139.56 168.329 139.56 168.329L138.606 160.039L133.199 144.663L130.178 128.983L135.743 103.357L140.831 105.468L138.879 129.269L144.49 147.074L148.782 152.501L152.122 153.103L161.981 153.555L169.932 155.367C172.226 156.331 174.027 159.574 174.027 159.574L174.803 161.69C174.803 161.69 177.452 175.981 176.791 181.947C176.791 181.947 174.127 187.351 170.57 186.455Z" fill="#B04D8F"/>
<path d="M180.981 97.1545C182.591 95.8685 184.201 94.5799 185.811 93.2939C185.051 92.3856 183.935 90.8087 183.343 88.6066C182.382 85.0318 183.395 82.0541 184.091 80.0179C184.42 79.0483 185.972 74.7489 190.23 71.021C193.662 68.0178 198.788 65.507 203.455 65.9025C209.839 66.4434 219.801 75.619 215.422 87.2466C213.567 92.1763 209.265 95.7817 204.338 97.4275C198.143 99.4994 193.558 96.4936 187.446 96.7743C184.673 96.9044 182.422 97.0524 180.981 97.1545Z" fill="#00A1C2"/>
<path d="M96.3748 225.441H102.473V199.312H96.3748V225.441Z" fill="#CCEAEE"/>
<path d="M179.845 225.441H185.941V199.312H179.845V225.441Z" fill="#CCEAEE"/>
<path d="M-12.9258 205.503H81.2691V199.348H-12.9258V205.503Z" fill="#CCEAEE"/>
<path d="M73.344 225.441H79.4398V199.312H73.344V225.441Z" fill="#CCEAEE"/>
<path d="M157.151 149.458V123.702" stroke="#82725E" stroke-width="1.276" stroke-miterlimit="10"/>
<path d="M165.658 132.831C164.495 130.58 163.474 128.256 162.609 125.873C162.721 126.105 162.834 126.337 162.946 126.569C163.201 125.788 163.336 124.969 163.349 124.148L163.65 125.181C163.627 124.354 163.969 123.523 164.571 122.956C164.571 123.347 164.571 123.739 164.574 124.132C164.857 123.211 165.587 122.436 166.49 122.099C166.35 122.533 166.212 122.969 166.072 123.405C166.6 122.632 167.498 122.122 168.434 122.066C168.286 122.359 168.138 122.652 167.99 122.943C168.848 122.515 169.769 122.203 170.71 122.027C170.639 122.515 170.435 122.982 170.126 123.367C171.129 123.022 172.282 123.168 173.168 123.745C172.951 124.002 172.731 124.263 172.512 124.523C173.15 124.275 173.872 124.265 174.517 124.492C174.262 125.082 173.795 125.574 173.219 125.865C173.895 125.717 174.642 126.021 175.025 126.595C174.283 127.028 173.469 127.337 172.624 127.503C173.54 127.837 174.27 128.649 174.507 129.595C174.188 129.034 173.405 128.797 172.828 129.088C173.706 129.447 174.446 130.139 174.867 130.989C174.293 131.336 173.555 131.394 172.935 131.142C173.224 131.091 173.53 131.042 173.8 131.147C174.073 131.254 174.283 131.575 174.16 131.841C173.969 132.259 173.339 132.068 172.953 131.815C173.484 131.925 174.147 132.43 173.813 132.859C173.379 133.41 172.321 132.4 171.851 132.923C172.315 133.099 172.639 133.586 172.624 134.081C172.175 133.959 171.723 133.836 171.274 133.714C171.484 134.204 171.624 134.722 171.693 135.247C171.325 135.354 170.932 135.375 170.555 135.314C170.524 135.546 170.693 135.752 170.792 135.967C170.897 136.179 170.894 136.5 170.672 136.579C170.315 136.704 169.968 136.02 169.664 136.247C169.718 136.809 169.026 137.288 168.519 137.041" fill="#423648"/>
<path d="M97.3774 40.9072L98.3828 41.591C98.3828 41.591 98.1378 37.6743 98.5052 36.2301C98.5052 36.2301 99.3116 33.9541 100.365 33.3672C100.365 33.3672 102.151 32.3619 103.621 32.6323C103.621 32.6323 106.681 32.9742 107.635 34.6634C107.635 34.6634 108.518 36.6945 108.64 40.6112L108.811 40.9301L109.643 36.646L107.806 33.2677L104.843 31.8975L101.1 32.5098L98.8727 33.3162L97.4285 35.7172" fill="#494143"/>
<path d="M148.068 132.53C149.412 130.381 150.617 128.146 151.67 125.842C151.54 126.064 151.41 126.286 151.28 126.508C151.086 125.709 151.017 124.882 151.073 124.061C150.943 124.398 150.816 124.732 150.688 125.066C150.78 124.244 150.504 123.39 149.953 122.775C149.92 123.168 149.887 123.558 149.854 123.948C149.644 123.007 148.981 122.175 148.108 121.764C148.213 122.211 148.315 122.657 148.42 123.101C147.953 122.287 147.101 121.708 146.172 121.576C146.294 121.879 146.419 122.183 146.542 122.489C145.723 121.989 144.832 121.606 143.906 121.354C143.939 121.846 144.105 122.328 144.381 122.736C143.411 122.313 142.247 122.361 141.319 122.867C141.515 123.142 141.712 123.418 141.908 123.696C141.293 123.397 140.574 123.328 139.913 123.502C140.119 124.109 140.545 124.643 141.094 124.974C140.436 124.775 139.665 125.018 139.237 125.556C139.941 126.048 140.729 126.424 141.558 126.656C140.617 126.916 139.823 127.666 139.512 128.592C139.872 128.057 140.673 127.883 141.224 128.22C140.321 128.508 139.527 129.136 139.04 129.952C139.584 130.343 140.313 130.46 140.951 130.259C140.668 130.185 140.369 130.111 140.089 130.195C139.808 130.276 139.573 130.583 139.673 130.856C139.831 131.289 140.474 131.149 140.88 130.93C140.341 130.996 139.64 131.445 139.938 131.899C140.326 132.484 141.464 131.562 141.888 132.121C141.413 132.259 141.048 132.721 141.025 133.216C141.482 133.129 141.941 133.042 142.4 132.958C142.153 133.428 141.969 133.93 141.857 134.451C142.217 134.586 142.607 134.64 142.987 134.609C142.998 134.844 142.816 135.035 142.696 135.239C142.579 135.443 142.554 135.765 142.768 135.862C143.112 136.015 143.513 135.362 143.799 135.612C143.699 136.168 144.352 136.701 144.878 136.495" fill="#423648"/>
<path d="M97.3061 38.6463C97.8904 34.4107 100.281 32.9512 100.281 32.9512C103.907 31.0706 106.862 33.2191 106.862 33.2191C109.416 34.6964 109.013 39.667 109.013 39.667L108.747 41.8231C110.454 39.7282 111.029 34.2933 111.029 34.2933C110.761 31.2033 107.4 29.1901 107.4 29.1901C104.849 28.3838 99.8781 29.0549 99.8781 29.0549C98.2655 29.7259 96.117 33.2191 96.117 33.2191C95.9818 34.4285 95.821 38.95 95.821 38.95C95.821 38.95 95.918 41.1392 96.1502 41.7822L97.3826 41.5756C97.3826 41.5756 97.204 39.3914 97.3061 38.6463Z" fill="#E8E540"/>
<path d="M98.1991 41.667C98.1991 41.667 99.5515 42.7795 99.5515 45.3668C99.5515 45.3668 99.3397 46.219 99.1279 46.5457C99.1279 46.5457 97.3494 46.6783 96.538 46.0889C96.538 46.0889 95.3337 45.1397 94.8744 44.9739C94.8744 44.9739 93.9201 44.5171 93.3536 44.6804C93.3536 44.6804 93.073 43.4021 93.744 42.879C93.744 42.879 95.548 41.9936 98.1991 41.667Z" fill="#E8E540"/>
<path d="M98.3726 46.6452C98.3726 46.6452 96.7345 46.7422 96.0787 46.3492C96.0787 46.3492 95.1295 45.3669 94.8999 45.2367C94.8999 45.2367 94.2773 44.9407 93.7874 44.877C93.7874 44.877 94.3104 45.8593 94.5069 46.1221C94.5069 46.1221 95.5556 46.8749 96.3415 46.8749C96.3415 46.8749 97.6199 46.9718 98.3726 46.6452Z" fill="#E8E540"/>
<path d="M95.9434 42.3967C95.9434 42.3967 95.4815 40.0849 95.507 38.8755C95.507 38.8755 95.8413 37.3088 95.9689 37L96.418 33.415C96.418 33.415 94.8947 37.0944 94.8691 37.8905C94.8691 37.8905 95.2238 40.1615 95.2519 41.2663L95.1983 42.6544" fill="#E8E540"/>
<path d="M97.301 46.8368L102.761 54.8845L110.056 46.3877L111.365 46.9312L102.922 57.6505L95.9741 47.2297" fill="#B04D8F"/>
<path d="M60.4993 124.076L60.6524 124.232C60.4967 124 60.3334 123.773 60.1625 123.553C57.371 123.673 54.8985 123.719 53.0205 123.719C46.0496 123.719 44.7482 123.058 44.6845 123.023L44.6972 123C44.1486 123.61 43.6536 124.291 43.2147 125.033C44.2073 125.133 54.9776 126.156 60.4993 124.076ZM52.1147 119.66C50.6373 119.66 49.3003 119.956 48.0985 120.489C49.3437 120.897 52.9032 121.892 59.0806 122.364C57.2868 120.665 54.9572 119.66 52.1147 119.66ZM45.6336 144.132C46.1287 144.515 46.6415 144.872 47.1697 145.196C47.1697 145.196 49.1268 147.168 55.5313 146.089L56.751 145.416C59.8512 143.435 62.5354 140.909 63.1887 136.391C60.1574 141.677 47.3254 143.879 45.6336 144.132ZM63.13 131.116C59.8894 134.37 50.9563 134.913 45.3708 134.913C42.8243 134.913 40.977 134.801 40.6784 134.783C40.6606 136.37 40.9821 137.812 41.5511 139.111L41.5689 138.764C41.7348 138.774 58.2921 139.366 63.2295 132.719L63.3316 133.755C60.8973 136.243 57.0342 138.207 50.5659 139.039C47.8586 139.386 45.3326 139.463 43.6434 139.463C42.6712 139.463 41.9747 139.437 41.6863 139.424C42.513 141.162 43.7812 142.629 45.2535 143.834L45.0187 143.471C45.4984 143.418 60.1574 141.205 63.3111 135.214C63.3367 134.793 63.352 134.362 63.3443 133.908C63.329 132.948 63.255 132.017 63.13 131.116ZM61.525 125.72C61.326 125.324 61.1117 124.944 60.8846 124.579C58.0548 125.625 53.809 126.036 50.326 126.036C46.4961 126.036 43.3117 125.702 43.0642 125.674L43.1152 125.202C42.7274 125.878 42.3829 126.603 42.0869 127.363C43.3882 127.549 58.0395 129.532 61.525 125.72ZM58.3279 122.961C50.8644 122.326 47.4785 120.971 47.3305 120.91L47.3534 120.856C46.5522 121.298 45.825 121.857 45.1642 122.51C45.8225 122.714 48.6471 123.311 58.3279 122.961ZM50.696 131.216C57.1771 130.877 61.3336 129.488 62.2854 127.557C62.14 127.141 61.9843 126.738 61.8108 126.347C59.8741 128.197 55.5543 128.705 51.4232 128.705C46.7028 128.705 42.2375 128.047 41.8905 127.996L41.916 127.822C41.5409 128.866 41.2474 129.973 41.0408 131.129C41.8369 131.185 46.1669 131.456 50.696 131.216ZM40.6989 134.13L40.6784 134.454C40.6835 134.344 40.6938 134.237 40.6989 134.13ZM62.9896 130.285C62.8621 129.583 62.7115 128.899 62.5176 128.246C60.6269 131.389 52.5434 131.974 46.7946 131.974C43.8093 131.974 41.4567 131.815 40.9336 131.777C40.8188 132.545 40.7422 133.331 40.6989 134.13C40.9004 134.143 59.0729 135.27 62.9896 130.285Z" fill="#3A445B"/>
<path d="M81.1339 114.636H81.1364C81.1364 114.636 81.1364 114.636 81.1339 114.636ZM76.1021 125.273C75.3851 122.87 75.2882 118.211 75.2754 116.917C74.3798 117.764 73.6552 118.813 73.104 119.999C73.3107 121.191 74.0762 125.123 75.7143 128.613L77.3142 133.362C77.4851 133.467 77.7785 133.615 78.2251 133.752C77.9903 132.676 77.4749 130.864 77.4698 130.846C77.3269 129.677 76.1149 125.317 76.1021 125.273ZM72.734 120.89C72.2186 122.278 71.9124 123.806 71.841 125.409C71.6879 128.802 73.9078 131.308 76.6176 132.938L75.2167 128.774C73.8414 125.845 73.0734 122.597 72.734 120.89ZM89.5925 120.897C89.3628 122.329 88.7122 125.613 87.2195 128.797L85.64 132.943C88.2529 131.305 90.3375 129.098 90.261 125.008C90.2329 123.541 90.0084 122.153 89.5925 120.897ZM85.8288 125.159C86.6326 122.462 86.6403 116.641 86.6403 116.583H86.7704C86.0891 116.011 85.316 115.552 84.4484 115.223C84.5097 116.419 84.8184 123.23 83.8871 128.011C83.8769 128.057 82.9915 131.785 82.7108 134.023C82.9736 134 83.2492 133.967 83.5324 133.928C83.7442 132.88 84.4357 130.808 84.4637 130.718C84.5913 129.596 85.7778 125.337 85.8288 125.159ZM89.1714 120.109L89.3016 120.122C88.7887 118.882 88.0743 117.8 87.1684 116.93C87.1557 118.244 87.0562 122.877 86.3417 125.276C86.3315 125.317 85.1144 129.677 84.9817 130.81C84.9664 130.872 84.354 132.704 84.104 133.783L84.9026 133.385C84.9077 133.385 84.9103 133.382 84.9128 133.38L86.7245 128.629C88.6739 124.472 89.1663 120.152 89.1714 120.109ZM78.5364 115.064C78.5313 115.141 78.072 122.752 79.0799 127.93C79.0875 127.97 79.7867 131.816 80.0648 134.076C80.3123 134.094 80.5853 134.104 80.8711 134.11V114.651C79.9857 114.674 79.1641 114.814 78.4037 115.057L78.5364 115.064ZM83.3665 127.919C84.3719 122.75 83.9126 115.141 83.9075 115.064L83.9917 115.059C83.1981 114.812 82.3331 114.671 81.3993 114.649V134.107C81.6493 134.102 81.9121 134.089 82.1903 134.069H82.1724C82.4429 131.816 83.3563 127.96 83.3665 127.919ZM77.998 115.195C77.1789 115.506 76.4338 115.937 75.7704 116.47C75.7857 117.529 75.8929 122.729 76.615 125.153C76.666 125.337 77.8525 129.596 77.9878 130.762C78.0056 130.815 78.5874 132.857 78.7941 133.898C79.0135 133.946 79.2534 133.987 79.5238 134.023C79.2381 131.762 78.5644 128.047 78.5568 128.009C77.6178 123.186 77.9393 116.302 77.998 115.195Z" fill="#423648"/>
<path d="M78.0671 148.755C77.8859 148.755 77.7354 148.61 77.7328 148.426L77.3731 133.341C77.3705 133.155 77.6027 133.145 77.789 133.142C77.9752 133.127 78.2049 133.555 78.21 133.742L78.4014 148.413C78.4065 148.6 78.2585 148.753 78.0748 148.755" fill="#423648"/>
<path d="M79.4194 148.755C79.2383 148.755 79.0877 148.61 79.0852 148.426L78.8121 133.686C78.807 133.499 78.955 133.346 79.1387 133.344C79.3225 133.372 79.4756 133.489 79.4807 133.673L79.7537 148.414C79.7562 148.6 79.6108 148.753 79.4245 148.755" fill="#423648"/>
<path d="M80.7156 148.756C80.5344 148.756 80.3864 148.61 80.3813 148.427L80.1134 133.941C80.1083 133.757 80.2537 132.966 80.4375 132.964H80.4426C80.6237 132.964 80.8789 133.76 80.8814 133.941L81.0498 148.414C81.055 148.6 80.907 148.753 80.7232 148.756" fill="#423648"/>
<path d="M82.0782 148.755C81.897 148.755 81.749 148.61 81.7439 148.426L81.4173 134.109C81.4122 133.926 81.6164 132.966 81.8001 132.964C81.9863 132.943 82.1369 133.107 82.1394 133.293L82.4125 148.414C82.4176 148.6 82.2696 148.753 82.0858 148.755" fill="#423648"/>
<path d="M83.3947 148.755C83.2135 148.755 83.0656 148.61 83.0604 148.426L82.7543 133.908C82.7492 133.721 82.9303 133.469 83.114 133.466H83.1217C83.3029 133.466 83.5504 133.727 83.5555 133.908L83.729 148.414C83.7341 148.6 83.5861 148.753 83.4024 148.755" fill="#423648"/>
<path d="M84.8133 148.756C84.6322 148.756 84.4816 148.61 84.4791 148.426L84.1218 133.709C84.1193 133.522 84.3489 133.186 84.5327 133.183H84.5378C84.7215 133.183 84.8695 133.329 84.872 133.51L85.1476 148.414C85.1501 148.6 85.0021 148.753 84.8184 148.756" fill="#423648"/>
<path d="M96.7369 174.749C96.7369 174.749 95.0401 177.349 95.2927 178.584C95.2927 178.584 95.4509 181.962 101.006 180.298L104.399 175.098" fill="#594D3E"/>
<path d="M131.834 172.644C131.834 172.644 134.11 176.78 133.858 178.015C133.858 178.015 133.697 181.393 128.145 179.729L124.751 174.529" fill="#594D3E"/>
<path d="M105.757 187.035C105.757 187.035 99.3678 196.82 102.317 200.081C102.317 200.081 120.503 202.878 124.925 200.548C124.925 200.548 128.857 191.694 124.435 187.502" fill="#00A1C2"/>
<path d="M102.695 151.34H122.398C122.398 151.34 128.132 152.073 129.681 156.023L133.983 174.425L125.613 177.129L126.55 195.373H102.139L102.167 177.77L93.3459 175.208L97.1402 155.729C97.1402 155.729 97.7194 151.93 102.695 151.34Z" fill="#FAA443"/>
<path d="M182.892 120.305C182.892 119.568 183.489 118.971 184.224 118.971C184.959 118.971 185.556 119.568 185.556 120.305C185.556 121.04 184.959 121.637 184.224 121.637C183.489 121.637 182.892 121.04 182.892 120.305Z" fill="#3A445B"/>
<path d="M158.098 120.305C158.098 119.568 158.692 118.971 159.43 118.971C160.165 118.971 160.762 119.568 160.762 120.305C160.762 121.04 160.165 121.637 159.43 121.637C158.692 121.637 158.098 121.04 158.098 120.305Z" fill="#3A445B"/>
</g>
</svg>
