<svg width="217" height="216" viewBox="0 0 217 216" fill="none" xmlns="http://www.w3.org/2000/svg">
<mask id="mask0_1635_38642" style="mask-type:alpha" maskUnits="userSpaceOnUse" x="0" y="0" width="217" height="216">
<path d="M0.5 108C0.5 48.3534 48.8534 0 108.5 0C168.147 0 216.5 48.3534 216.5 108C216.5 167.647 168.147 216 108.5 216C48.8534 216 0.5 167.647 0.5 108Z" fill="#ECF7F8"/>
</mask>
<g mask="url(#mask0_1635_38642)">
<path d="M0.5 108C0.5 48.3534 48.8534 0 108.5 0C168.147 0 216.5 48.3534 216.5 108C216.5 167.647 168.147 216 108.5 216C48.8534 216 0.5 167.647 0.5 108Z" fill="#ECF7F8"/>
<path d="M102.92 74.0186H197.383V12H102.92V74.0186Z" fill="#DDF1F2"/>
<path d="M109.678 35.9006H128.022V24.438H109.678V35.9006Z" fill="#F8F8F9"/>
<path d="M109.678 58.6589H128.022V47.1963H109.678V58.6589Z" fill="#F8F8F9"/>
<path d="M136.499 47.531H154.842V36.0684H136.499V47.531Z" fill="#F8F8F9"/>
<path d="M136.499 66.6345H154.842V55.1719H136.499V66.6345Z" fill="#F8F8F9"/>
<path d="M119.683 41.8804H135.109" stroke="#F8F8F9" stroke-width="2.91067" stroke-miterlimit="10" stroke-dasharray="2.91 2.91"/>
<path d="M165.119 57.2818C162.648 57.0337 160.022 55.2134 159.635 52.2864C159.408 50.5832 160.005 48.8158 160.996 47.5614C161.988 46.307 163.331 45.5153 164.716 45.0303C167.575 44.0239 171.031 44.4309 173.004 47.1015C173.503 47.7816 173.888 48.5761 174.2 49.3984C174.816 51.0208 175.17 52.8272 174.967 54.5918C174.765 56.3563 173.951 58.0679 172.649 58.9404C171.194 59.9216 169.361 60.1168 167.699 59.9049C165.742 59.6596 163.73 58.9906 162.141 57.6024" stroke="#F8F8F9" stroke-width="2.91067" stroke-miterlimit="10" stroke-linecap="round"/>
<path d="M154.705 41.3842L161.097 44.3726" stroke="#F8F8F9" stroke-width="2.91067" stroke-miterlimit="10" stroke-dasharray="2.91 2.91"/>
<path d="M155.4 61.6499L160.679 58.6588" stroke="#F8F8F9" stroke-width="2.91067" stroke-miterlimit="10" stroke-dasharray="2.91 2.91"/>
<path d="M168.419 56.4177H166.983V54.957H168.419V56.4177ZM166.987 54.0008C166.99 53.4544 167.057 53.0558 167.19 52.8021C167.321 52.5513 167.584 52.2418 167.978 51.8795C168.209 51.6537 168.394 51.4111 168.533 51.1491C168.671 50.8899 168.741 50.5972 168.741 50.2738C168.741 49.9142 168.662 49.6354 168.503 49.4319C168.347 49.2312 168.121 49.1281 167.827 49.1281C167.587 49.1281 167.381 49.2145 167.214 49.3845C167.046 49.5574 166.962 49.8083 166.957 50.14H165.57L165.56 50.1037C165.551 49.3567 165.756 48.7852 166.178 48.3866C166.6 47.9907 167.151 47.79 167.827 47.79C168.557 47.79 169.13 48.013 169.543 48.4535C169.961 48.8967 170.168 49.4961 170.168 50.2571C170.168 50.7505 170.047 51.2076 169.804 51.6286C169.562 52.0495 169.256 52.4007 168.893 52.6851C168.694 52.8691 168.564 53.053 168.501 53.237C168.44 53.4238 168.41 53.6775 168.41 54.0008" fill="white"/>
<path d="M57.8195 149.925L97.4845 150.475L103.846 138.811L64.8738 136.804L57.8195 149.925Z" fill="#7A7A8C"/>
<path d="M102.2 170.74H102.536C103.466 170.74 104.224 169.831 104.224 168.719V105.747C104.224 104.635 103.466 103.726 102.536 103.726H102.2C101.272 103.726 100.511 104.635 100.511 105.747V168.719C100.511 169.831 101.272 170.74 102.2 170.74Z" fill="#7A7A8C"/>
<path d="M61.1122 196.216C61.1122 196.216 59.5614 197.682 59.9346 201.256H71.1468L71.0769 197.891C71.0769 197.891 70.4122 194.451 65.5407 194.276C65.5407 194.276 62.8099 194.276 61.1122 196.216Z" fill="#4A5048"/>
<path d="M95.6445 189.339H93.9608C93.0327 189.339 92.2724 188.43 92.2724 187.318V150.697C92.2724 149.587 93.0327 148.679 93.9608 148.679H95.6445C96.575 148.679 97.3352 149.587 97.3352 150.697V187.318C97.3352 188.43 96.575 189.339 95.6445 189.339Z" fill="#7A7A8C"/>
<path d="M60.8721 189.339H59.1884C58.2579 189.339 57.5 188.43 57.5 187.318V150.697C57.5 149.587 58.2579 148.679 59.1884 148.679H60.8721C61.8025 148.679 62.5628 149.587 62.5628 150.697V187.318C62.5628 188.43 61.8025 189.339 60.8721 189.339Z" fill="#7A7A8C"/>
<path d="M79.5934 196.216C79.5934 196.216 78.0426 197.682 78.4157 201.256H89.6257L89.558 197.891C89.558 197.891 88.8934 194.451 84.0219 194.276C84.0219 194.276 81.2911 194.276 79.5934 196.216Z" fill="#4A5048"/>
<path d="M70.4799 126.612L59.7504 143.787L60.7462 196.261H71.5153L72.7186 146.301L79.7123 139.38L77.8444 145.794L78.5323 196.509L90.6587 196.562L91.6708 145.468L101.211 139.438C101.211 139.438 102.848 135.31 101.939 123.136" fill="#BBB9C2"/>
<path d="M90.036 71.8613L90.7613 83.8759L85.1901 110.369L80.4678 87.352L81.1278 72.8007L78.6092 66.4199" fill="#9F8275"/>
<path d="M102.12 112.05L101.211 102.486L102.039 132.631L71.0139 132.94L72.4668 101.499L72.1799 103.556L71.8931 108.702L71.6459 111.119L61.6836 110.776L62.9965 89.4898C62.9965 89.4898 62.9965 83.6581 66.154 83.3153L79.1409 76.5581C79.1409 76.5581 82.9864 76.979 83.3735 81.2692L84.817 85.7767L86.2815 80.982C87.121 77.202 90.4605 78.8077 91.3256 77.3972L102.162 81.2859C102.162 81.2859 105.378 82.8246 106.878 86.9252L111.031 109.876" fill="#FAA443"/>
<path d="M84.0988 79.0835L83.5391 83.5687L82.2426 84.1876L81.403 81.7875L84.0988 79.0835Z" fill="#A7A9AC"/>
<path d="M88.6835 95.8848H99.1379V106.335L93.9911 110.043L88.3617 106.335" fill="#FBB87B"/>
<path d="M79.078 74.6709L84.0988 79.0837L82.2448 84.185C82.2448 84.185 80.1134 81.4671 78.6372 77.2299" fill="#FBB87B"/>
<path d="M85.8711 79.0835L85.934 83.4126L87.0324 84.3409L87.4871 82.1749L85.8711 79.0835Z" fill="#A7A9AC"/>
<path d="M90.8919 74.6709L85.8711 79.0837L87.0324 84.3411C87.0324 84.3411 89.8588 81.4671 91.3349 77.2299" fill="#FBB87B"/>
<path d="M92.3517 75.3985C92.0089 77.8321 89.9195 77.5087 89.9195 77.5087C88.5459 77.584 86.5007 76.5386 86.5007 76.5386C80.5122 71.9809 78.3621 65.5917 78.3621 65.5917C75.3305 60.2423 77.6765 54.288 77.6765 54.288C80.7197 47.7817 88.1914 50.1261 88.1914 50.1261C95.936 52.8579 94.5788 61.4047 94.5788 61.4047C94.3153 63.1498 93.9491 63.5177 93.9491 63.5177C93.9491 63.5177 93.1446 64.0725 93.4105 64.6021L94.8633 67.8385C94.8633 67.8385 95.2108 68.3626 94.9636 68.9982C94.9636 68.9982 94.3642 70.0212 93.7276 69.7174L93.688 70.838C93.688 70.838 93.9142 71.6213 93.2939 71.9502C92.6712 72.282 93.2939 71.9502 93.2939 71.9502L92.7412 73.5001C92.7412 73.5001 92.8951 73.9015 93.1073 73.9489C93.1073 73.9489 93.2939 74.9859 92.7225 75.2731" fill="#B0977F"/>
<path d="M93.2939 71.9504C93.2939 71.9504 93 73.9854 92.9231 74.0105C92.2002 74.2558 91.4026 74.0718 91.4026 74.0718C90.2739 73.6369 88.6439 71.6577 88.6439 71.6577L91.5332 72.3128C91.5332 72.3128 92.4963 72.5553 93.2939 71.9504Z" fill="#D5CBC3"/>
<path d="M63.0245 110.667L63.0362 118.955C63.0362 118.955 62.4532 122.091 63.9107 123.485L67.3504 130.393L73.1874 132.196L70.6175 118.604L70.6711 111.027" fill="#B0977F"/>
<path d="M74.4116 132.519C74.4116 132.519 73.1034 130.468 71.2284 129.765L71.7601 131.627L67.1078 130.005C67.1078 130.005 65.4614 133.289 65.8345 136.455C65.8345 136.455 65.9208 137.883 66.8653 137.883C66.8653 137.883 67.7561 136.179 67.9193 134.649C67.9193 134.649 67.404 138.387 67.9123 139.173C67.9123 139.173 68.6399 140.129 69.1926 139.366L69.9249 134.671L70.284 140.238C70.284 140.238 71.2284 141.37 71.7811 140.606C72.3361 139.84 71.7741 135.089 71.7741 135.089L72.8912 139.076C72.8912 139.076 73.3972 139.859 74.2437 139.706C74.2437 139.706 74.8104 138.8 74.1155 135.304L73.9336 134.526L75.426 136.349C77.7231 138.108 77.842 135.867 77.842 135.867C76.8229 135.43 74.4116 132.519 74.4116 132.519Z" fill="#B0977F"/>
<path d="M109.741 110.232L109.73 118.52C109.73 118.52 110.313 121.656 108.855 123.05L99.5739 133.788L95.2108 132.048L102.146 118.169L102.095 110.592" fill="#B0977F"/>
<path d="M92.3191 132.24C92.3191 132.24 94.1567 130.888 96.1202 131.044L96.8478 132.048L99.8888 133.043C99.8888 133.043 100.434 136.815 99.1309 139.608C99.1309 139.608 98.6201 140.901 97.7387 140.494C97.7387 140.494 97.4215 138.523 97.7317 137.026C97.7317 137.026 97.0834 140.734 96.3721 141.244C96.3721 141.244 95.4067 141.827 95.1198 140.873L95.8544 136.179L93.8395 141.216C93.8395 141.216 92.6176 141.866 92.3307 140.912C92.0462 139.962 94.0028 135.772 94.0028 135.772L91.7594 139.008C91.7594 139.008 91.0481 139.519 90.3089 139.011C90.3089 139.011 90.0524 137.924 91.7547 134.961L92.1582 134.314L90.218 135.373C87.5455 136.023 88.1098 133.879 88.1098 133.879C89.1919 133.913 92.3191 132.24 92.3191 132.24Z" fill="#B0977F"/>
<path d="M155.157 64.2536C155.157 64.2536 157.016 63.3532 157.016 66.3359C157.016 66.3359 159.747 71.9613 156.029 75.2925C156.029 75.2925 152.776 79.1784 152.023 73.1405" fill="#262F42"/>
<path d="M132.67 126.066L133.621 99.3525L132.67 126.066Z" fill="#7E6046"/>
<path d="M128.341 90.8867L126.259 110.977C126.259 110.977 124.955 115.529 130.466 122.953C135.976 130.379 130.466 122.953 130.466 122.953L134.073 115.529L131.669 103.913" fill="#6A4F39"/>
<path d="M169.846 149.925H135.566L126.956 138.811L163.272 136.804L169.846 149.925Z" fill="#7A7A8C"/>
<path d="M134.244 189.339H135.928C136.858 189.339 137.618 188.43 137.618 187.318V150.697C137.618 149.587 136.858 148.679 135.928 148.679H134.244C133.316 148.679 132.555 149.587 132.555 150.697V187.318C132.555 188.43 133.316 189.339 134.244 189.339Z" fill="#3A445B"/>
<path d="M166.794 189.339H168.478C169.408 189.339 170.166 188.43 170.166 187.318V150.697C170.166 149.587 169.408 148.679 168.478 148.679H166.794C165.863 148.679 165.103 149.587 165.103 150.697V187.318C165.103 188.43 165.863 189.339 166.794 189.339Z" fill="#7A7A8C"/>
<path d="M125.086 189.339H126.772C127.7 189.339 128.46 188.43 128.46 187.318V150.697C128.46 149.587 127.7 148.679 126.772 148.679H125.086C124.158 148.679 123.398 149.587 123.398 150.697V187.318C123.398 188.43 124.158 189.339 125.086 189.339Z" fill="#7A7A8C"/>
<path d="M193.693 105.909L194.183 105.815L193.78 105.912C193.752 105.909 193.724 105.912 193.693 105.909ZM168.979 114.579L163.429 91.5728L158.912 105.003L161.712 116.441L163.639 122.931C163.639 122.931 163.611 122.674 165.642 122.111" fill="#6A4F39"/>
<path d="M150.936 80.6367L157.237 83.8926L152.37 99.2802L137.163 101.825L132.602 83.6473L141.116 80.7399" fill="#6A4F39"/>
<path d="M150.661 76.7705L150.157 93.8864L146.932 101.064L141.133 90.427L141.464 76.7705" fill="#6A4F39"/>
<path d="M133.117 108.71L132.796 131.198L160.453 131.006L158.951 108.473L159.222 108.691L164.935 92.8879L164.515 90.2898C164.515 90.2898 164.448 86.8695 159.807 83.7669L156.144 82.9027L152.816 94.1005H138.905L137.483 81.626L131.905 83.4435C128.528 85.0742 127.567 90.7526 127.567 90.7526L131.991 107.269" fill="#E8E540"/>
<path d="M143.474 81.5844C141.394 77.6818 141.111 78.7188 139.031 74.8161L138.723 61.8956L139.654 57.8006L142.807 54.8652H147.524L151.771 57.1204L153.658 62.7597L152.674 74.6879C150.936 78.5459 149.325 77.5954 147.59 81.4562C147.408 81.6708 146.767 82.3817 145.747 82.4904C144.488 82.6298 143.623 81.7405 143.474 81.5844Z" fill="#7E6046"/>
<path d="M148.271 76.3328C147.13 74.139 143.712 75.9119 142.317 76.3328C142.317 76.3328 144.264 78.6633 145.673 78.7915C145.673 78.7915 146.755 78.7915 148.271 76.3328Z" fill="#B69584"/>
<path d="M162.207 78.7825C164.476 78.133 166.745 77.4807 169.014 76.8312C168.673 75.2785 168.291 72.7083 168.743 69.667C169.478 64.7357 171.95 61.6722 173.645 59.5759C174.45 58.5779 178.106 54.2042 184.267 52.0884C189.232 50.3824 195.694 50.2569 200.288 53.4264C206.571 57.7667 207.305 73.7481 203.329 80.4104C201.112 84.1291 197.562 85.2637 195.431 85.9466C193.56 86.5432 190.799 86.4623 185.354 86.27C179.368 86.0609 174.513 84.7647 169.014 82.0384C166.111 80.6 163.734 79.485 162.207 78.7825Z" fill="#00A1C2"/>
<path d="M137.42 65.2768L139.013 72.7922V71.7524C139.181 65.3883 140.148 62.0543 140.148 62.0543C141.447 59.3113 145.176 58.8318 145.176 58.8318C147.172 58.3942 149.919 60.1783 149.919 60.1783C151.351 61.1316 151.93 64.8865 151.93 64.8865C152.429 67.2337 152.725 73.3107 152.725 73.3107L153.765 72.1677L155.696 65.8287C155.696 65.8287 155.274 56.2728 150.064 54.2379C150.064 54.2379 141.918 50.6502 137.709 59.2862C137.709 59.2862 136.93 60.6048 137.42 65.2768Z" fill="#262F42"/>
<path d="M134.584 172.159L134.92 198.535H141.538L144.656 171.587" fill="#7E6046"/>
<path d="M150.955 173.739L151.319 200.038L157.426 199.751L161.827 173.168" fill="#7E6046"/>
<path d="M144.57 136.731L132.97 128.58C132.97 128.58 123.654 138.024 124.454 151.137C124.953 159.333 127.182 182.314 127.182 190.529C128.95 190.03 132.003 188.781 133.983 189.573C136.009 190.381 137.76 188.776 140.183 189.813C141.065 190.186 143.977 190.537 146.585 190.289C149.162 190.044 151.997 190.298 152.986 189.813C155.472 188.589 157.986 190.05 161.871 191.257C161.871 191.257 166.087 191.493 166.379 184.385L167.549 151.472C167.549 151.472 168.872 146.58 167.272 145.155L162.99 136.444" fill="#E8E540"/>
<path d="M155.526 204.057L153.534 203.809C151.146 202.859 151.139 197.919 151.139 197.919L155.526 197.086C160.539 196.45 161.192 199.073 161.192 199.073C162.148 202.56 159.8 204.041 159.8 204.041C159.8 204.041 158.867 204.42 155.526 204.057Z" fill="#00A1C2"/>
<path d="M137.877 202.812L139.876 202.609C142.273 201.825 142.278 197.756 142.278 197.756L137.877 197.067C132.845 196.546 132.192 198.706 132.192 198.706C131.233 201.58 133.589 202.798 133.589 202.798C133.589 202.798 134.524 203.111 137.877 202.812Z" fill="#00A1C2"/>
<path d="M162.662 129.21C162.662 129.21 163.865 134.49 162.361 135.569L158.949 131.73" fill="#6A4F39"/>
<path d="M163.321 136.921L156.689 122.319L139.115 127.853L136.198 147.062L163.321 136.921Z" fill="white"/>
<path d="M132.698 112.329L135.876 119L139.642 126.245C139.642 126.245 140.144 126.025 141.312 125.754C141.851 125.632 143.444 127.003 144.155 128.784C144.155 128.784 144.369 130.552 143.322 129.866C142.275 129.183 143.322 129.866 143.322 129.866L138.266 131.441L131.968 124.99L128.362 119.959" fill="#6A4F39"/>
<path d="M146.34 135.129C146.34 135.129 146.636 135.789 146.158 136.163C146.158 136.163 145.633 136.676 144.903 135.731L139.897 127.114L141.291 125.486L141.632 125.938" fill="#9A7033"/>
<path d="M140.001 127.184L141.594 129.846L143.276 133.509C143.527 134.086 142.861 134.529 142.861 134.529C143.206 135.544 142.196 135.427 142.196 135.427L141.244 134.805C141.578 135.315 140.71 135.747 140.71 135.747L137.98 133.963L135.818 131.61C135.818 131.61 135.899 130.197 136.704 129.784C136.704 129.784 138.847 126.899 139.766 126.91C139.766 126.91 140.393 124.973 141.268 125.427L141.746 126.54" fill="#9A7033"/>
<path d="M159.047 127.409L161.862 115.375L168.904 114.313C168.904 114.313 170.164 119.484 161.255 131.85" fill="#6A4F39"/>
<path d="M159.047 127.53L158.646 130.889C158.646 130.889 158.345 132.33 159.147 132.57C159.147 132.57 160.854 130.29 160.954 128.851" fill="#6A4F39"/>
<path d="M117.99 35.3876V49.1138" stroke="#F8F8F9" stroke-width="2.91067" stroke-miterlimit="10" stroke-dasharray="2.91 2.91"/>
</g>
</svg>
