<svg width="217" height="216" viewBox="0 0 217 216" fill="none" xmlns="http://www.w3.org/2000/svg">
<mask id="mask0_195_4623" style="mask-type:alpha" maskUnits="userSpaceOnUse" x="0" y="0" width="217" height="216">
<path d="M0.5 108C0.5 48.3534 48.8534 0 108.5 0C168.147 0 216.5 48.3534 216.5 108C216.5 167.647 168.147 216 108.5 216C48.8534 216 0.5 167.647 0.5 108Z" fill="#ECF7F8"/>
</mask>
<g mask="url(#mask0_195_4623)">
<path d="M0.5 108C0.5 48.3533 48.8534 -6.10352e-05 108.5 -6.10352e-05C168.147 -6.10352e-05 216.5 48.3533 216.5 108C216.5 167.647 168.147 216 108.5 216C48.8534 216 0.5 167.647 0.5 108Z" fill="#ECF7F8"/>
<path d="M199.916 12.6243H104.559V64.9972H199.916V12.6243Z" fill="#DEF1F3"/>
<path d="M129.897 32.8074H111.379V23.1275H129.897V32.8074Z" fill="#F8F8F9"/>
<path d="M129.897 52.027H111.379V42.3471H129.897V52.027Z" fill="#F8F8F9"/>
<path d="M119.514 52.5882V55.8148H137.05" stroke="#F8F8F9" stroke-width="2.89333" stroke-miterlimit="10" stroke-dasharray="2.89 2.89"/>
<path d="M156.971 42.6276H138.453V32.9477H156.971V42.6276Z" fill="#F8F8F9"/>
<path d="M156.971 58.7608H138.453V49.0809H156.971V58.7608Z" fill="#F8F8F9"/>
<path d="M121.479 37.8577H137.051" stroke="#F8F8F9" stroke-width="2.89333" stroke-miterlimit="10" stroke-dasharray="2.89 2.89"/>
<path d="M167.343 50.8627C164.849 50.6544 162.197 49.1169 161.806 46.6449C161.578 45.2051 162.182 43.7144 163.183 42.6544C164.182 41.5945 165.538 40.9263 166.936 40.5154C169.824 39.668 173.311 40.0116 175.301 42.2676C175.807 42.8408 176.195 43.5103 176.511 44.2068C177.132 45.5764 177.49 47.1019 177.285 48.5919C177.08 50.0826 176.257 51.5273 174.946 52.2649C173.475 53.0932 171.626 53.2561 169.947 53.079C167.972 52.87 165.94 52.3067 164.338 51.1341" stroke="#F8F8F9" stroke-width="2.89333" stroke-miterlimit="10" stroke-linecap="round"/>
<path d="M120.496 33.3684V34.1371" stroke="#F8F8F9" stroke-width="2.89333" stroke-miterlimit="10"/>
<path d="M120.496 35.485V40.2024" stroke="#F8F8F9" stroke-width="2.89333" stroke-miterlimit="10" stroke-dasharray="2.54 2.54"/>
<path d="M120.496 40.8767V41.6454" stroke="#F8F8F9" stroke-width="2.89333" stroke-miterlimit="10"/>
<path d="M156.832 37.4368L163.285 39.962" stroke="#F8F8F9" stroke-width="2.89333" stroke-miterlimit="10" stroke-dasharray="2.89 2.89"/>
<path d="M157.531 54.5516L162.862 52.0264" stroke="#F8F8F9" stroke-width="2.89333" stroke-miterlimit="10" stroke-dasharray="2.89 2.89"/>
<path d="M170.675 50.1337H169.225V48.9008H170.675V50.1337ZM169.229 48.0917C169.233 47.6311 169.301 47.2946 169.434 47.0806C169.567 46.8666 169.833 46.6066 170.23 46.3012C170.464 46.1107 170.65 45.9052 170.791 45.6848C170.93 45.4645 171 45.2179 171 44.9451C171 44.6426 170.92 44.4059 170.761 44.2345C170.602 44.0637 170.373 43.978 170.078 43.978C169.835 43.978 169.628 44.051 169.459 44.1955C169.289 44.34 169.204 44.5519 169.2 44.8318H167.799L167.789 44.802C167.779 44.1707 167.988 43.6875 168.413 43.3516C168.839 43.0165 169.394 42.8486 170.078 42.8486C170.814 42.8486 171.392 43.0356 171.811 43.4083C172.23 43.7817 172.44 44.289 172.44 44.9303C172.44 45.3476 172.318 45.7344 172.073 46.0894C171.828 46.4444 171.521 46.742 171.153 46.9821C170.953 47.1366 170.821 47.2918 170.759 47.4476C170.696 47.6042 170.665 47.8189 170.665 48.0917H169.229Z" fill="white"/>
<path d="M113.543 60.0764L120.272 52.522L121.752 54.6412L113.871 66.0124L111.626 67.9722C111.626 67.9722 110.784 68.7941 110.056 68.415C110.056 68.415 109.515 68.2166 108.903 66.1668C108.903 66.1668 108.781 65.1884 108.608 63.823L108.49 58.7472L113.094 57.0821L113.543 60.0764Z" fill="#B39A84"/>
<path d="M86.9883 58.9237L85.1036 80.093L81.8848 79.9357L81.8281 58.0954" fill="#B39A84"/>
<path d="M84.7328 79.4179L81.9306 79.9677L80.9805 82.099L81.4531 84.5356C81.4531 84.5356 81.7315 84.7248 82.0659 84.7248C82.0659 84.7248 82.6498 85.0323 83.1231 84.9848C83.1231 84.9848 83.4568 85.3164 84.1249 85.2448C84.1249 85.2448 84.477 85.7323 85.1636 85.4652L85.3549 85.0316C86.0613 85.536 86.1888 85.1952 86.1888 85.1952L86.2717 83.9546C86.2717 83.9546 86.4503 82.5616 86.4567 82.5333L84.7328 79.4179Z" fill="#B39A84"/>
<path d="M100.41 37.3648L100.916 44.3671L97.0355 59.8066L93.7451 46.3921L94.2049 37.9125L92.4492 34.1927" fill="#B39A84"/>
<path d="M119.938 53.07L120.605 49.0902L124.845 45.0297C124.845 45.0297 125.302 44.4742 125.756 44.8015C125.756 44.8015 126.194 44.9871 125.829 45.5618L123.8 48.4526C123.8 48.4526 124.086 48.5801 124.309 48.872C124.532 49.1639 124.625 49.8923 124.625 49.8923C124.625 49.8923 125.042 50.0737 125.265 50.3882C125.487 50.7028 125.459 51.2746 125.459 51.2746C125.459 51.2746 125.615 51.3164 125.778 51.5417C125.941 51.767 125.964 52.37 125.964 52.37L124.315 54.6727L120.923 54.9363" fill="#B39A84"/>
<path d="M87.9922 77.5006L90.9836 126.04L94.6375 126.023L97.1669 89.0262L100.117 126.215H103.428L106.564 78.6293" fill="#51473E"/>
<path d="M89.5599 127.038C89.5599 127.038 88.5623 127.827 88.8032 129.75H96.0138L95.9699 127.939C95.9699 127.939 95.5427 126.088 92.4088 125.993C92.4088 125.993 90.6517 125.993 89.5599 127.038Z" fill="#545953"/>
<path d="M98.638 127.038C98.638 127.038 97.6404 127.827 97.8813 129.75H105.092L105.048 127.94C105.048 127.94 104.621 126.088 101.487 125.993C101.487 125.993 99.7298 125.993 98.638 127.038Z" fill="#545953"/>
<path d="M112.144 46.1436L113.01 50.1426L113.459 54.0352L113.812 58.3976C113.812 58.3976 109.31 61.0411 108.189 61.5399L108.144 57.1796L106.721 79.5655L88.1282 79.9453L88.1707 54.6367L87.9709 55.8363L87.7711 58.8355L87.5975 60.2447L80.6582 60.0449L81.5729 47.6393C81.5729 47.6393 81.5729 44.2405 83.7722 44.04L93.586 39.6507C93.586 39.6507 98.0341 41.1223 101.371 39.9802L108.858 42.8575C108.858 42.8575 111.098 43.7538 112.144 46.1436Z" fill="#FAA74F"/>
<path d="M91.0463 35.675C89.4733 35.2973 87.8997 34.9197 86.3268 34.5421C86.5634 33.6429 86.8291 32.1515 86.5159 30.3894C86.0065 27.5298 84.2919 25.7535 83.1178 24.5377C82.5595 23.9588 80.0244 21.423 75.7541 20.1951C72.3135 19.2067 67.8335 19.133 64.6501 20.9716C60.2948 23.4869 59.7846 32.7551 62.5415 36.6187C64.079 38.7741 66.5397 39.433 68.0163 39.8277C69.3129 40.1755 71.2266 40.1274 75.0017 40.0168C79.1501 39.8957 82.5163 39.1432 86.3268 37.5625C88.3404 36.7279 89.9884 36.0824 91.0463 35.675Z" fill="#00A4C3"/>
<path d="M87.9023 75.8842L89.3258 127.062L94.9904 126.82L97.2485 89.0515L97.9556 127.196L105.756 127.223L107.19 75.8708L87.9023 75.8842Z" fill="#BCBBC4"/>
<path d="M102.731 37.5315C101.874 39.8307 100.83 38.8168 100.83 38.8168C99.8984 39.0385 99.1381 39.3786 99.1381 39.3786C94.5448 37.5471 92.3802 34.1667 92.3802 34.1667C89.7239 31.4977 90.6819 27.7843 90.6819 27.7843C92.0585 23.6635 97.427 24.0348 97.427 24.0348C103.024 24.5945 103.024 29.6633 103.024 29.6633C103.034 30.6978 102.987 31.12 102.987 31.12C102.987 31.12 102.494 31.5409 102.734 31.8109L103.628 32.8758C103.628 32.8758 103.923 33.1316 103.824 33.5269C103.824 33.5269 103.524 34.1915 103.055 34.1001L103.151 34.7463C103.151 34.7463 103.39 35.1657 103 35.435C102.611 35.7049 103 35.435 103 35.435L102.786 36.2462C102.786 36.2462 102.967 36.4113 103.09 36.6033C103.09 36.6033 103.33 37.1723 102.971 37.4118" fill="#B39A84"/>
<path d="M103 35.4353L102.594 36.0588L103.09 36.603L103 35.4353Z" fill="white"/>
<path d="M93.5859 39.651L94.2045 37.9123C94.2045 37.9123 99.1776 38.2503 100.332 38.0618L101.434 40.023L97.9483 42.906" fill="#FAA74F"/>
<path d="M27.5363 181.987H24.066L21.1504 167.271H26.5642L27.5363 181.987Z" fill="#AE9B82"/>
<path d="M32.2542 181.987H28.7838L28.3672 167.271H33.781L32.2542 181.987Z" fill="#AE9B82"/>
<path d="M23.8794 181.459C23.8794 181.459 25.8959 181.827 27.5439 181.393C27.5439 181.393 27.8039 181.675 28.0208 182.63C28.0208 182.63 28.064 183.15 27.7827 183.432H23.9878C23.9878 183.432 23.6846 183.172 23.5762 182.673C23.5762 182.673 23.5762 182.044 23.8794 181.459Z" fill="#545953"/>
<path d="M28.6568 181.459C28.6568 181.459 30.6732 181.828 32.3213 181.394C32.3213 181.394 32.5813 181.676 32.7981 182.63C32.7981 182.63 32.8413 183.15 32.56 183.432H28.7652C28.7652 183.432 28.4619 183.172 28.3535 182.674C28.3535 182.674 28.3535 182.044 28.6568 181.459Z" fill="#545953"/>
<path d="M122.155 135.382H119.453L117.184 123.925H121.399L122.155 135.382Z" fill="#877866"/>
<path d="M58.2004 162.341H55.2785L54.9277 151.241H59.4864L58.2004 162.341Z" fill="#7C6F5F"/>
<path d="M118.003 128.078L126.857 128.094L128.695 119.653L115.994 119.54L118.003 128.078Z" fill="#00A4C3"/>
<path d="M55.3701 161.101C55.3701 161.101 57.1025 161.517 58.5181 161.028C58.5181 161.028 58.7413 161.346 58.9276 162.422C58.9276 162.422 58.9652 163.009 58.7229 163.327H55.4629C55.4629 163.327 55.2022 163.034 55.1094 162.471C55.1094 162.471 55.1094 161.762 55.3701 161.101Z" fill="#545953"/>
<path d="M62.4426 162.341H59.5206L59.1699 151.241H63.7286L62.4426 162.341Z" fill="#7C6F5F"/>
<path d="M59.6143 161.101C59.6143 161.101 61.3466 161.517 62.7622 161.028C62.7622 161.028 62.9854 161.346 63.1718 162.422C63.1718 162.422 63.2093 163.009 62.967 163.327H59.7071C59.7071 163.327 59.4463 163.034 59.3535 162.471C59.3535 162.471 59.3535 161.762 59.6143 161.101Z" fill="#545953"/>
<path d="M50.2065 144.791L66.3135 145.029L64.2743 153.208L54.4513 153.191C54.4513 153.191 49.4321 149.144 50.0322 144.895" fill="#FAA74F"/>
<path d="M43.7076 133.672H41.0053L40.0332 122.216H44.2482L43.7076 133.672Z" fill="#61574B"/>
<path d="M51.9381 133.672H49.2358L48.2637 122.216H52.4787L51.9381 133.672Z" fill="#A68B70"/>
<path d="M42.8226 133.262C42.8226 133.262 44.3927 133.549 45.6758 133.212C45.6758 133.212 45.8778 133.431 46.0471 134.174C46.0471 134.174 46.0804 134.578 45.8615 134.798H42.9069C42.9069 134.798 42.671 134.595 42.5859 134.207C42.5859 134.207 42.5859 133.718 42.8226 133.262Z" fill="#545953"/>
<path d="M49.1351 133.262C49.1351 133.262 50.7052 133.549 51.9883 133.212C51.9883 133.212 52.1903 133.431 52.3596 134.174C52.3596 134.174 52.3929 134.579 52.174 134.799H49.2194C49.2194 134.799 48.9835 134.596 48.8984 134.208C48.8984 134.208 48.8984 133.718 49.1351 133.262Z" fill="#545953"/>
<path d="M21.1197 132.414H18.4174L17.4453 120.957H21.6603L21.1197 132.414Z" fill="#B0957C"/>
<path d="M27.3893 132.414H24.6869L23.7148 120.957H27.9299L27.3893 132.414Z" fill="#A68B70"/>
<path d="M18.2738 132.003C18.2738 132.003 19.8439 132.29 21.127 131.953C21.127 131.953 21.3289 132.172 21.4983 132.915C21.4983 132.915 21.5316 133.32 21.3126 133.539H18.3581C18.3581 133.539 18.1221 133.337 18.0371 132.948C18.0371 132.948 18.0371 132.459 18.2738 132.003Z" fill="#545953"/>
<path d="M24.5882 132.003C24.5882 132.003 26.1583 132.29 27.4414 131.953C27.4414 131.953 27.6434 132.172 27.8127 132.915C27.8127 132.915 27.846 133.32 27.6271 133.54H24.6725C24.6725 133.54 24.4366 133.337 24.3516 132.949C24.3516 132.949 24.3516 132.459 24.5882 132.003Z" fill="#545953"/>
<path d="M16.7852 88.3522C16.7852 84.2023 19.0177 80.6696 22.724 80.6696C26.4303 80.6696 28.5559 83.9175 28.5559 88.0673C28.5559 92.2172 25.5596 95.5798 22.8594 95.6726C20.5318 95.752 16.7852 92.502 16.7852 88.3522Z" fill="#B0957C"/>
<path d="M19.9974 94.0429L19.5156 97.7988L25.9901 97.6855L25.5083 93.9289" fill="#B0957C"/>
<path d="M57.5733 114.542H11.6367V108.454H57.5733V114.542Z" fill="#7E939E"/>
<path d="M59.6895 106.973H9.01638C8.37588 106.973 7.85156 107.497 7.85156 108.139V108.276C7.85156 108.917 8.37588 109.442 9.01638 109.442H59.6895C60.3307 109.442 60.855 108.917 60.855 108.276V108.139C60.855 107.497 60.3307 106.973 59.6895 106.973Z" fill="#5D7A89"/>
<path d="M17.8143 97.1204H27.9179C27.9179 97.1204 30.7279 97.5002 31.4882 99.5513L35.818 110.262L32.7033 114.212L33.0831 119.986H14.852L14.6996 114.136L12.8008 110.111L15.5357 99.399C15.5357 99.399 16.0132 97.9132 17.8143 97.1204Z" fill="#FAA74F"/>
<path d="M57.3223 108.948H60.6035V133.465H57.3223V108.948Z" fill="#5D7A89"/>
<path d="M9.11523 108.947H12.3964V133.465H9.11523V108.947Z" fill="#5D7A89"/>
<path d="M76.2198 140.284H30.2832V134.196H76.2198V140.284Z" fill="#7E939E"/>
<path d="M78.334 133.17H27.6609C27.0204 133.17 26.4961 133.695 26.4961 134.336V134.473C26.4961 135.115 27.0204 135.639 27.6609 135.639H78.334C78.9752 135.639 79.4995 135.115 79.4995 134.473V134.336C79.4995 133.695 78.9752 133.17 78.334 133.17Z" fill="#5D7A89"/>
<path d="M27.7578 135.618H31.039V160.136H27.7578V135.618Z" fill="#5D7A89"/>
<path d="M6.77734 119.743H59.6129V122.938H6.77734V119.743Z" fill="#CDEBEE"/>
<path d="M73.1328 135.371H76.6428V156.99H73.1328V135.371Z" fill="#5D7A89"/>
<path d="M10.8686 121.429H13.6155V137.464H10.4023L10.8686 121.429Z" fill="#CDEBEE"/>
<path d="M27.5156 144.209H77.2556V147.996H27.5156V144.209Z" fill="#CDEBEE"/>
<path d="M59.5191 121.429H62.4162V135.095H59.0273L59.5191 121.429Z" fill="#CDEBEE"/>
<path d="M91.6426 119.743H137.014V122.938H91.6426V119.743Z" fill="#CDEBEE"/>
<path d="M-4.98633 171.588H51.6101V174.784H-4.98633V171.588Z" fill="#CDEBEE"/>
<path d="M133.16 121.429H136.057V137.464H132.668L133.16 121.429Z" fill="#CDEBEE"/>
<path d="M136.702 113.631H90.7656V107.249H136.702V113.631Z" fill="#7E939E"/>
<path d="M138.762 105.697H88.202C87.5303 105.697 86.9805 106.247 86.9805 106.918V107.063C86.9805 107.735 87.5303 108.284 88.202 108.284H138.762C139.434 108.284 139.984 107.735 139.984 107.063V106.918C139.984 106.247 139.434 105.697 138.762 105.697Z" fill="#5D7A89"/>
<path d="M136.451 107.766H139.732V133.465H136.451V107.766Z" fill="#5D7A89"/>
<path d="M88.5645 107.766H91.8456V133.465H88.5645V107.766Z" fill="#5D7A89"/>
<path d="M51.3454 163.831H-22.9805V154.378H51.3454V163.831Z" fill="#7E939E"/>
<path d="M50.8293 151.67H-21.7408C-22.8404 151.67 -23.7402 152.57 -23.7402 153.669V153.905C-23.7402 155.004 -22.8404 155.904 -21.7408 155.904H50.8293C51.929 155.904 52.8281 155.004 52.8281 153.905V153.669C52.8281 152.57 51.929 151.67 50.8293 151.67Z" fill="#5D7A89"/>
<path d="M47.2129 155.38H51.4378V181.401H47.2129V155.38Z" fill="#5D7A89"/>
<path d="M25.1326 94.0435C26.3017 92.6591 28.6101 91.2548 28.557 88.0678C28.4875 83.9187 26.4314 80.6694 22.7251 80.6694C19.0188 80.6694 16.4327 84.2198 16.7862 88.3527C17.0002 90.8566 19.028 92.6265 20.1567 93.9295C20.1567 93.9295 21.1734 94.954 24.4999 94.3943L25.1326 94.0435Z" fill="#624F48"/>
<path d="M119.603 94.0431L119.121 97.799L125.596 97.6856L125.114 93.929" fill="#877866"/>
<path d="M39.7598 88.3522C39.7598 84.2023 41.9923 80.6696 45.6986 80.6696C49.4049 80.6696 51.5305 83.9175 51.5305 88.0673C51.5305 92.2172 48.5342 95.5798 45.834 95.6726C43.5065 95.752 39.7598 92.502 39.7598 88.3522Z" fill="#61574B"/>
<path d="M42.9701 94.0432L42.4883 97.7991L48.9628 97.6857L48.481 93.9291" fill="#61574B"/>
<path d="M40.7889 97.1202H50.8925C50.8925 97.1202 53.7025 97.4999 54.4628 99.5511L58.7926 110.262L53.2193 114.12L52.9635 119.99L37.8266 119.986L37.6742 114.136L35.7754 110.11L38.5103 99.3988C38.5103 99.3988 38.9879 97.913 40.7889 97.1202Z" fill="#E7DAC9"/>
<path d="M69.8725 133.64C69.8725 133.64 71.2655 135.387 71.2655 136.385C71.2655 136.385 71.3172 138.564 67.9226 138.631L65.1367 135.137" fill="#7C6F5F"/>
<path d="M45.5172 133.473C45.5172 133.473 43.9252 135.278 43.9252 136.309C43.9252 136.309 43.5412 139.046 47.7456 138.63L50.9297 135.02" fill="#7C6F5F"/>
<path d="M14.6477 150.516C14.6477 150.516 13.2583 152.645 13.4666 153.656C13.4666 153.656 13.5963 156.423 18.1457 155.06L20.9245 150.8" fill="#7C6F5F"/>
<path d="M42.6856 148.792C42.6856 148.792 44.5498 152.179 44.3415 153.19C44.3415 153.19 44.2118 155.957 39.6624 154.594L36.8828 150.334" fill="#7C6F5F"/>
<path d="M48.1053 94.0428C49.2744 92.6583 51.5828 91.2541 51.5296 88.0671C51.4602 83.918 49.404 80.6687 45.6977 80.6687C41.9914 80.6687 39.4053 84.2191 39.7589 88.3519C39.9728 90.8559 42.0006 92.6258 43.1293 93.9287C43.1293 93.9287 44.1461 94.9533 47.4726 94.3935L48.1053 94.0428Z" fill="#393F4E"/>
<path d="M64.8037 145.106L49.8233 145.208C47.391 144.786 48.7485 137.091 48.7485 137.091L43.9745 133.995C42.9995 130.119 46.1872 123.459 46.1872 123.459C46.1872 123.459 47.177 120.382 50.7281 120.002H61.9647C61.9647 120.002 67.2042 120.486 68.019 123.407C68.019 123.407 71.6233 130.119 70.8878 134.342L66.1187 136.602C66.1187 136.602 67.1086 144.594 65.2621 145.042" fill="#00A4C3"/>
<path d="M116.533 97.1198H126.637C126.637 97.1198 129.447 97.4996 130.207 99.5507L134.537 110.262L128.292 114.212L128.673 119.985H116.704L116.552 114.136L111.52 110.11L114.254 99.3984C114.254 99.3984 114.732 97.9126 116.533 97.1198Z" fill="#B25693"/>
<path d="M21.1884 180.17H34.4145L38.4332 167.187L19.5 166.822L21.1884 180.17Z" fill="#00A4C3"/>
<path d="M-37.6562 169.617H51.6082V174.656H-37.6562V169.617Z" fill="#CDEBEE"/>
<path d="M19.084 117.514C19.084 110.969 22.6054 105.397 28.4507 105.397C34.2968 105.397 37.6488 110.52 37.6488 117.066C37.6488 123.61 32.9236 128.914 28.6647 129.06C24.9931 129.186 19.084 124.06 19.084 117.514Z" fill="#7C6F5F"/>
<path d="M24.1284 126.522L23.4121 132.452L33.6213 132.197L32.8185 126.279" fill="#7C6F5F"/>
<path d="M49.0472 110.104C48.885 105.342 51.909 101.282 56.6589 101.282C61.4096 101.282 64.1091 105.013 64.1339 109.778C64.1629 115.274 60.2937 118.403 56.8325 118.51C53.8489 118.602 49.2463 115.94 49.0472 110.104Z" fill="#7C6F5F"/>
<path d="M52.5321 116.262C52.5321 116.262 52.2969 119.315 52.576 120.202C52.8552 121.089 54.4961 121.123 56.7237 120.987C56.7237 120.987 60.3932 121.128 60.7007 120.336C61.0075 119.543 60.7007 116.74 60.7007 116.74" fill="#7C6F5F"/>
<path d="M20.0064 131.343H35.2419C35.2419 131.343 39.6751 131.942 40.8733 135.177L44.1998 150.249L37.7288 152.464L38.4536 167.406H19.5771L19.5983 152.989L12.7773 150.89L15.7128 134.937C15.7128 134.937 16.1591 131.828 20.0064 131.343Z" fill="#00A4C3"/>
<path d="M120.978 111.799C115.998 111.799 111.226 116.2 112.647 121.234C113.79 125.282 114.281 128.938 116.938 129.603C117.432 130.423 116.832 132.432 116.569 133.366C116.569 133.366 117.726 134.023 121.764 134.393C121.764 134.393 124.457 134.858 125.76 133.376C125.76 133.376 125.151 130.449 125.624 128.807C128.671 127.537 128.087 124.46 128.927 121.234C130.244 116.175 125.958 111.799 120.978 111.799Z" fill="#61574B"/>
<path d="M49.7996 192.034H44.8066V170.634H49.7996V192.034Z" fill="#CDEBEE"/>
<path d="M77.1541 160.635H73.5137V145.035H77.1541V160.635Z" fill="#CDEBEE"/>
<path d="M116.393 88.3522C116.393 84.2023 118.625 80.6696 122.331 80.6696C126.038 80.6696 128.163 83.9175 128.163 88.0673C128.163 92.2172 125.167 95.5798 122.467 95.6726C120.139 95.752 116.393 92.502 116.393 88.3522Z" fill="#877866"/>
<path d="M19.0846 117.514V117.513C19.0846 117.514 19.0846 117.514 19.0846 117.514ZM23.1451 125.441C23.5504 125.754 23.9699 126.046 24.4007 126.311C24.4007 126.311 26.0041 127.926 31.2514 127.043L32.249 126.49C34.8061 124.858 37.0209 122.772 37.5346 119.018C34.7933 123.768 24.5204 125.262 23.1451 125.441ZM37.6416 116.889C35.8016 119.138 32.2894 120.612 27.183 121.268C24.9654 121.553 22.8965 121.615 21.5134 121.615C20.7163 121.615 20.1481 121.594 19.9093 121.584C20.5867 123.006 21.6261 124.21 22.8313 125.196L22.64 124.899C23.0445 124.867 35.3899 123.214 37.3823 118.122L37.6161 118.213C37.6409 117.845 37.6565 117.466 37.6494 117.066C37.6487 117.006 37.643 116.949 37.6416 116.889ZM33.5399 108.101C27.4268 107.581 24.6536 106.471 24.5324 106.421L24.5509 106.376C23.8983 106.738 23.3081 107.201 22.7682 107.733C23.3251 107.903 25.6555 108.385 33.5399 108.101ZM28.4513 105.397C27.2461 105.397 26.1571 105.646 25.1751 106.079C26.2074 106.417 29.118 107.227 34.1571 107.612C32.6876 106.22 30.7802 105.397 28.4513 105.397ZM36.1579 110.359C35.8122 109.665 35.4048 109.034 34.9435 108.464L34.9485 108.581C32.6394 108.682 30.7448 108.722 29.1931 108.722C23.4852 108.722 22.4182 108.18 22.3651 108.151L22.3707 108.141C21.9244 108.64 21.5219 109.194 21.1641 109.798C21.9895 109.881 30.8008 110.717 35.3183 109.014L35.5068 109.514C33.1906 110.388 29.8655 110.62 26.9861 110.62C23.8508 110.62 21.2428 110.345 21.0394 110.323L21.0805 109.94C20.7631 110.493 20.4839 111.084 20.2402 111.707C21.3193 111.859 33.3054 113.481 36.1579 110.359ZM37.417 116.317L37.6211 116.469C37.5941 115.891 37.5488 115.324 37.4723 114.774C34.821 117.443 27.5054 117.89 22.9276 117.89C20.8318 117.89 19.3191 117.797 19.0846 117.782C19.0697 119.083 19.3333 120.264 19.7988 121.328L19.8151 121.044C19.9504 121.051 33.3727 121.76 37.417 116.317ZM27.29 114.862C32.6146 114.582 35.8334 113.592 36.5979 112.001L36.8707 112.132C36.7304 111.697 36.571 111.277 36.3939 110.874C34.8061 112.389 31.2684 112.805 27.8866 112.805C24.0188 112.805 20.3621 112.266 20.0772 112.223L20.0942 112.111C19.7917 112.957 19.5558 113.855 19.3871 114.792C20.0531 114.837 23.5901 115.057 27.29 114.862ZM37.3575 114.099C37.2526 113.519 37.1265 112.954 36.9657 112.414C35.4303 114.996 28.8084 115.482 24.0953 115.482C21.6537 115.482 19.7308 115.353 19.2971 115.322C19.2022 115.951 19.1384 116.593 19.103 117.247C19.2745 117.259 34.1514 118.182 37.3575 114.099Z" fill="#475063"/>
<path d="M52.5367 109.993C51.9507 108.025 51.8707 104.211 51.8601 103.149C51.1267 103.844 50.533 104.702 50.0824 105.675C50.251 106.65 50.8787 109.871 52.2193 112.729L53.5293 116.619C53.6696 116.704 53.9091 116.825 54.274 116.938C54.0827 116.057 53.6604 114.574 53.6562 114.557C53.5414 113.601 52.5466 110.029 52.5367 109.993ZM56.6582 101.282H56.661C56.6603 101.282 56.6603 101.282 56.6596 101.282C56.6589 101.282 56.6582 101.282 56.6582 101.282ZM49.7791 106.404C49.3575 107.539 49.1067 108.793 49.0472 110.104C48.9211 112.883 50.7392 114.936 52.959 116.271L51.8119 112.86C50.686 110.462 50.0576 107.801 49.7791 106.404ZM63.5862 106.411C63.3977 107.582 62.8656 110.271 61.6427 112.88L60.3475 116.276C62.4887 114.935 64.1969 113.127 64.1346 109.777C64.1119 108.575 63.9263 107.439 63.5862 106.411ZM60.5041 109.899C61.1616 107.69 61.1687 102.923 61.1687 102.875H61.2742C60.7173 102.408 60.0825 102.032 59.3726 101.763C59.4229 102.71 59.6786 108.305 58.9127 112.236C58.9042 112.274 58.1808 115.326 57.9498 117.161C58.1652 117.139 58.3905 117.113 58.6244 117.081C58.7958 116.223 59.3626 114.526 59.3867 114.454C59.4909 113.534 60.4623 110.047 60.5041 109.899ZM63.2411 105.765L63.3474 105.774C62.9272 104.76 62.3434 103.873 61.6009 103.161C61.5895 104.236 61.5088 108.031 60.9242 109.996C60.915 110.029 59.9195 113.601 59.8104 114.53C59.7977 114.579 59.2975 116.079 59.0934 116.962L59.7452 116.638C59.7481 116.637 59.7509 116.636 59.7538 116.633L61.2374 112.741C62.833 109.338 63.2376 105.8 63.2411 105.765ZM54.5312 101.632C54.5269 101.695 54.15 107.928 54.9762 112.169C54.9818 112.203 55.5536 115.351 55.7832 117.204C55.9858 117.219 56.209 117.226 56.4428 117.229V101.294C55.718 101.313 55.0449 101.428 54.4221 101.627L54.5312 101.632ZM54.0905 101.739C53.3728 102.012 52.7273 102.396 52.1583 102.875H52.2923C52.2923 102.923 52.3001 107.69 52.9569 109.896C52.9987 110.047 53.97 113.534 54.082 114.489C54.0969 114.533 54.573 116.205 54.7416 117.057C54.9216 117.095 55.1179 117.131 55.3403 117.159C55.1065 115.307 54.5539 112.265 54.5482 112.234C53.7773 108.275 54.0423 102.624 54.0905 101.739ZM58.4869 112.162C59.3109 107.927 58.9347 101.695 58.9304 101.632L58.9992 101.629C58.3502 101.426 57.6402 101.311 56.8764 101.293V117.229C57.0812 117.224 57.2966 117.214 57.5226 117.198L57.5084 117.197C57.7309 115.352 58.4791 112.194 58.4869 112.162Z" fill="#4D4452"/>
<path d="M53.9238 116.713L54.1477 128.953" stroke="#4D4452" stroke-width="2.13733" stroke-miterlimit="10" stroke-linecap="round"/>
<path d="M55.0312 116.879L55.2551 128.953" stroke="#4D4452" stroke-width="2.13733" stroke-miterlimit="10" stroke-linecap="round"/>
<path d="M56.0918 116.566L56.3157 128.952" stroke="#4D4452" stroke-width="2.13733" stroke-miterlimit="10" stroke-linecap="round"/>
<path d="M57.207 116.566L57.4309 128.952" stroke="#4D4452" stroke-width="2.13733" stroke-miterlimit="10" stroke-linecap="round"/>
<path d="M58.2852 116.978L58.5091 128.952" stroke="#4D4452" stroke-width="2.13733" stroke-miterlimit="10" stroke-linecap="round"/>
<path d="M59.4473 116.745L59.6712 128.952" stroke="#4D4452" stroke-width="2.13733" stroke-miterlimit="10" stroke-linecap="round"/>
<path d="M125.778 85.7525L122.607 87.973L122.605 87.9709V89.2002H122.561V89.2405H123.332L125.778 85.7525ZM125.101 89.2405L125.99 85.9168L123.659 89.2405H125.101ZM122.561 89.5084V91.4327L125.379 89.5084H122.561ZM122.605 85.9027V87.6471L125.796 85.4124L122.605 85.9027ZM125.298 81.5417C124.617 81.0797 123.817 80.7892 122.908 80.7014L126.129 84.6528L125.298 81.5417ZM127.905 89.2405L126.511 86.055L126.78 89.2405H127.905ZM122.605 84.5735V85.632L125.599 85.1722L122.605 84.5735ZM125.622 84.9044L122.605 83.1543V84.3475L122.614 84.3028L125.622 84.9044ZM122.605 80.7531V82.8454L125.84 84.7216L122.605 80.7531ZM116.362 87.5238C116.36 87.7966 116.367 88.0729 116.391 88.3521C116.423 88.7233 116.498 89.0755 116.6 89.4148V89.3234L116.594 89.3206L116.6 89.305V89.2405H116.629L118.116 85.8417L116.362 87.5238ZM122.178 91.8805L118.543 92.5288L118.496 92.266L122.118 91.6191L119.747 89.5084H116.629C117.242 91.4143 118.815 92.837 119.762 93.9296C119.762 93.9296 120.137 94.3008 121.162 94.4737L120.956 94.3731L122.178 91.8805ZM127.994 89.5084H125.779L125.802 89.5431L122.721 91.6467L126.105 92.6393C126.912 91.8111 127.718 90.817 128.027 89.4113L127.994 89.4255V89.5084ZM124.2 94.3412L124.738 94.0429C125.06 93.6618 125.469 93.277 125.891 92.8562L122.708 91.9223L124.2 94.3412ZM127.595 84.7194C127.568 84.6443 127.545 84.5671 127.517 84.4941L127.021 84.9277L127.595 84.7194ZM121.202 94.4808C121.841 94.5835 122.731 94.6055 123.934 94.4185L122.429 91.9783L121.202 94.4808ZM127.905 85.8028C127.88 85.6901 127.85 85.5817 127.821 85.4712L127.064 85.4542L127.905 85.8028ZM128.067 86.7713C128.04 86.5489 128.005 86.3313 127.964 86.1167L126.941 85.6922L128.067 86.7713ZM119.23 81.626C118.868 81.8733 118.536 82.1652 118.234 82.4925L118.457 84.5218L119.23 81.626ZM127.753 85.2019C127.731 85.124 127.704 85.0496 127.68 84.9731L127.092 85.1871L127.753 85.2019ZM126.564 82.7575C126.292 82.399 125.984 82.083 125.645 81.8081L126.37 84.5203L126.564 82.7575ZM126.796 83.092L126.632 84.5706L127.12 83.6368C127.019 83.4476 126.911 83.2663 126.796 83.092ZM117.4 83.6262C117.324 83.7566 117.25 83.889 117.181 84.0251L117.966 84.7124L117.4 83.6262ZM118.588 86.016L118.316 89.2405H119.449L118.588 86.016ZM116.467 86.2803C116.423 86.5602 116.395 86.8457 116.379 87.1362L117.886 85.6922L116.467 86.2803ZM117.996 82.7745C117.842 82.9609 117.698 83.1564 117.564 83.3633L118.194 84.5706L117.996 82.7745ZM127.405 84.2348C127.362 84.1307 127.32 84.0237 127.272 83.9231L126.861 84.7124L127.405 84.2348ZM116.633 85.4797C116.591 85.6398 116.555 85.8035 116.522 85.9686L117.762 85.4542L116.633 85.4797ZM128.113 87.1858L126.71 85.8417L128.099 89.0152C128.142 88.7162 128.168 88.4038 128.162 88.0679C128.157 87.7682 128.139 87.4749 128.113 87.1858ZM122.415 91.7218L122.429 91.7126L122.434 91.697L122.427 91.6857H122.4L122.393 91.6942L122.396 91.7126L122.415 91.7218ZM116.827 84.8569C116.786 84.9731 116.749 85.0914 116.713 85.2097L117.735 85.1871L116.827 84.8569ZM118.047 89.2405L118.316 86.0536L116.921 89.2405H118.047ZM117.064 84.278C117.014 84.3864 116.967 84.4955 116.922 84.6068L117.805 84.927L117.064 84.278ZM122.288 82.8071L122.337 82.8914V80.6695C122.335 80.6695 122.332 80.6695 122.33 80.6695C122.316 80.6695 122.302 80.6716 122.288 80.6716L118.987 84.7216L122.288 82.8071ZM126.24 86.0168L125.378 89.2405H126.511L126.24 86.0168ZM126.37 85.2572H126.372L126.376 85.2537L126.377 85.2494V85.2445L126.377 85.2423L126.373 85.2381L126.37 85.2367L126.367 85.236L126.358 85.243L126.357 85.2452L126.364 85.2551L126.365 85.2558L126.37 85.2572ZM118.454 85.2572H118.457L118.461 85.2565L118.464 85.2544L118.47 85.2459L118.468 85.243L118.46 85.236L118.456 85.2367L118.454 85.2381L118.45 85.2416L118.449 85.2459V85.2494L118.451 85.2537L118.454 85.2572ZM122.337 83.087L119.204 84.9044L122.213 84.3028L122.265 84.565L119.228 85.1722L122.31 85.6455L122.269 85.9098L119.031 85.4131L122.337 87.7278V83.087ZM121.168 89.2405L118.838 85.9183L119.726 89.2405H121.168ZM122.293 89.5084H120.149L122.293 91.4178V89.5084ZM122.293 89.2002H122.337V87.8058L122.22 87.973L119.048 85.7518L121.495 89.2405H122.293V89.2002ZM118.699 84.6521L121.926 80.6936C121.006 80.7595 120.164 81.0443 119.428 81.5056L119.532 81.5332L118.699 84.6521Z" fill="#475063"/>
<path d="M125.584 85.2796C125.584 84.8715 125.974 84.5413 126.454 84.5413C126.934 84.5413 127.324 84.8715 127.324 85.2796C127.324 85.6877 126.934 86.0179 126.454 86.0179C125.974 86.0179 125.584 85.6877 125.584 85.2796Z" fill="#63B9C9"/>
<path d="M121.613 91.6861C121.613 91.3042 121.978 90.9953 122.428 90.9953C122.877 90.9953 123.242 91.3042 123.242 91.6861C123.242 92.068 122.877 92.377 122.428 92.377C121.978 92.377 121.613 92.068 121.613 91.6861Z" fill="#63B9C9"/>
<path d="M126.453 85.2795C126.453 85.2795 127.296 85.0152 128.982 85.6543C128.982 85.6543 130.493 86.5846 130.901 88.3282" stroke="#475063" stroke-width="2.088" stroke-miterlimit="10" stroke-linecap="round"/>
<path d="M126.424 85.1891C126.424 85.1891 127.877 85.5958 129.098 86.9328C129.098 86.9328 129.912 87.7469 130.144 88.5022" stroke="#475063" stroke-width="2.088" stroke-miterlimit="10" stroke-linecap="round"/>
<path d="M126.367 85.4215C126.367 85.4215 128.285 86.468 129.215 88.6765" stroke="#475063" stroke-width="2.088" stroke-miterlimit="10" stroke-linecap="round"/>
<path d="M119.187 85.2796C119.187 84.8984 118.823 84.5895 118.374 84.5895C117.925 84.5895 117.561 84.8984 117.561 85.2796C117.561 85.6608 117.925 85.9697 118.374 85.9697C118.823 85.9697 119.187 85.6608 119.187 85.2796Z" fill="#63B9C9"/>
<path d="M118.375 85.2795C118.375 85.2795 117.532 85.0152 115.846 85.6543C115.846 85.6543 114.335 86.5846 113.928 88.3283" stroke="#475063" stroke-width="2.088" stroke-miterlimit="10" stroke-linecap="round"/>
<path d="M118.404 85.1891C118.404 85.1891 116.951 85.5958 115.73 86.9328C115.73 86.9328 114.916 87.7469 114.684 88.5022" stroke="#475063" stroke-width="2.088" stroke-miterlimit="10" stroke-linecap="round"/>
<path d="M118.462 85.4217C118.462 85.4217 116.544 86.4682 115.613 88.6766" stroke="#475063" stroke-width="2.088" stroke-miterlimit="10" stroke-linecap="round"/>
<path d="M121.305 96.4526C121.838 93.4038 122.426 91.6857 122.426 91.6857L122.372 96.3761" stroke="#475063" stroke-width="2.088" stroke-miterlimit="10" stroke-linecap="round" stroke-linejoin="round"/>
<path d="M122.428 91.6859C122.428 91.6859 123.479 94.3946 123.594 96.3381" stroke="#475063" stroke-width="2.088" stroke-miterlimit="10" stroke-linecap="round"/>
<path d="M190.355 166.981L196.778 158.61C196.778 158.61 205.147 137.36 199.721 125.731L193.519 140.46" fill="#EAE64C"/>
<path d="M198.429 140.202L201.271 133.225C201.271 133.225 201.013 128.057 196.878 125.473L189.126 125.731L187.834 130.383" fill="#826751"/>
<path d="M117.416 190.355H113.376L111.922 173.227H118.224L117.416 190.355Z" fill="#A68B70"/>
<path d="M126.791 190.355H122.751L121.297 173.226H127.599L126.791 190.355Z" fill="#A68B70"/>
<path d="M113.162 189.741C113.162 189.741 115.509 190.171 117.427 189.665C117.427 189.665 117.731 189.993 117.983 191.104C117.983 191.104 118.033 191.71 117.705 192.038H113.288C113.288 192.038 112.935 191.735 112.809 191.155C112.809 191.155 112.809 190.423 113.162 189.741Z" fill="#A79D95"/>
<path d="M122.602 189.741C122.602 189.741 124.949 190.17 126.867 189.665C126.867 189.665 127.17 189.993 127.422 191.104C127.422 191.104 127.473 191.71 127.145 192.038H122.728C122.728 192.038 122.374 191.735 122.248 191.155C122.248 191.155 122.248 190.423 122.602 189.741Z" fill="#A79D95"/>
<path d="M111.92 171.263H118.407V185.764H111.92V171.263Z" fill="#00A4C3"/>
<path d="M121.461 171.263H127.948V185.764H121.461V171.263Z" fill="#00A4C3"/>
<path d="M80.9138 190.355H76.8738L75.4199 173.226H81.7216L80.9138 190.355Z" fill="#00A4C3"/>
<path d="M90.2849 190.355H86.2449L84.791 173.226H91.0926L90.2849 190.355Z" fill="#00A4C3"/>
<path d="M76.3575 190.077C76.3575 190.077 78.7048 190.507 80.6228 190.001C80.6228 190.001 80.926 190.329 81.1783 191.44C81.1783 191.44 81.2286 192.046 80.9005 192.374H76.4836C76.4836 192.374 76.13 192.071 76.0039 191.491C76.0039 191.491 76.0039 190.759 76.3575 190.077Z" fill="#A79D95"/>
<path d="M85.7969 190.077C85.7969 190.077 88.1443 190.507 90.0622 190.001C90.0622 190.001 90.3655 190.329 90.6177 191.44C90.6177 191.44 90.668 192.046 90.34 192.374H85.923C85.923 192.374 85.5695 192.071 85.4434 191.491C85.4434 191.491 85.4434 190.759 85.7969 190.077Z" fill="#A79D95"/>
<path d="M81.1484 135.618H84.4296V160.136H81.1484V135.618Z" fill="#5D7A89"/>
<path d="M83.7826 121.429H86.5296V137.464H83.3164L83.7826 121.429Z" fill="#CDEBEE"/>
<path d="M89.1109 119.992H92.008V136.027H88.6191L89.1109 119.992Z" fill="#CDEBEE"/>
<path d="M141.386 163.831H67.0605V154.378H141.386V163.831Z" fill="#7E939E"/>
<path d="M137.088 155.38H141.313V181.401H137.088V155.38Z" fill="#5D7A89"/>
<path d="M67.002 155.38H71.6123V181.401H67.002V155.38Z" fill="#5D7A89"/>
<path d="M140.872 151.67H68.3022C67.2026 151.67 66.3027 152.569 66.3027 153.668V153.905C66.3027 155.004 67.2026 155.904 68.3022 155.904H140.872C141.972 155.904 142.871 155.004 142.871 153.905V153.668C142.871 152.569 141.972 151.67 140.872 151.67Z" fill="#5D7A89"/>
<path d="M67.5898 170.663H144.736V175.702H67.5898V170.663Z" fill="#CDEBEE"/>
<path d="M75.0762 119.654C75.0762 113.109 78.5975 107.537 84.4429 107.537C90.2889 107.537 93.641 112.661 93.641 119.206C93.641 125.751 88.9158 131.054 84.6569 131.2C80.9853 131.326 75.0762 126.2 75.0762 119.654Z" fill="#B0957C"/>
<path d="M80.1187 128.662L79.4023 134.592L89.6115 134.337L88.8087 128.419" fill="#B0957C"/>
<path d="M88.2423 128.63C91.2132 126.734 93.7277 124.232 93.6427 119.206C93.5329 112.662 90.2907 107.537 84.4446 107.537C78.5993 107.537 75.3436 113.118 75.0779 119.655C74.9135 123.705 77.4408 126.632 80.3947 128.451C80.3947 128.451 81.9974 130.067 87.2447 129.183L88.2423 128.63Z" fill="#393F4E"/>
<path d="M113.267 160.578C113.267 160.578 108.034 168.592 110.449 171.263C110.449 171.263 125.342 173.553 128.965 171.645C128.965 171.645 132.185 164.394 128.563 160.96L113.267 160.578Z" fill="#00A4C3"/>
<path d="M125.893 126.445C124.964 127.206 123.868 127.75 122.685 127.949C120.849 128.257 118.554 128.449 116.828 127.476C115.426 126.686 114.601 125.019 113.692 123.774L112.259 120.441C112.186 119.974 111.702 116.534 114.344 113.774C116.966 111.033 120.568 111.158 121.246 111.181C121.751 111.199 125.868 111.405 128.278 114.638C130.063 117.031 128.917 119.876 128.8 121.182C128.623 123.133 127.512 125.118 125.893 126.445Z" fill="#393F4E"/>
<path d="M113.475 133.689L117.077 132.788L125.152 133.158L131.664 134.64C133.543 135.431 135.019 138.088 135.019 138.088L135.653 139.82C135.653 139.82 137.823 151.524 137.28 156.411C137.28 156.411 135.099 160.836 132.188 160.102L132.055 167.295L110.494 170.128C106.633 159.496 108.444 158.548 108.444 158.548C108.444 158.548 103.709 160.62 103.117 157.365C103.117 157.365 105.189 139.312 106.668 137.536C106.668 137.536 109.628 134.577 113.475 133.689Z" fill="#FAA74F"/>
<path d="M73.6903 192.034H68.6973V170.634H73.6903V192.034Z" fill="#CDEBEE"/>
<path d="M143.239 192.034H138.246V170.634H143.239V192.034Z" fill="#CDEBEE"/>
<path d="M74.3882 133.924H91.2461C91.2461 133.924 95.9359 134.558 97.2034 137.981L98.6488 154.151L93.0713 159.264L93.9888 172.076L71.9239 170.884L73.0859 158.799L66.3379 152.552L70.5855 137.727C70.5855 137.727 71.3833 135.248 74.3882 133.924Z" fill="#B25693"/>
<path d="M84.6758 129.585V107.537" stroke="#AD9D7E" stroke-width="2.088" stroke-miterlimit="10"/>
<path d="M91.9586 115.352C90.9617 113.426 90.0888 111.435 89.3477 109.397C89.444 109.595 89.5404 109.793 89.636 109.992C89.855 109.324 89.9719 108.622 89.9818 107.919C90.0682 108.214 90.154 108.508 90.2404 108.803C90.2191 108.096 90.5132 107.385 91.0269 106.898C91.0276 107.234 91.029 107.57 91.0297 107.906C91.2727 107.117 91.8969 106.455 92.6706 106.165C92.5509 106.538 92.4319 106.91 92.3121 107.284C92.7656 106.621 93.5343 106.186 94.3357 106.137C94.2089 106.388 94.082 106.639 93.9559 106.89C94.6899 106.52 95.4764 106.254 96.2841 106.103C96.2225 106.521 96.0475 106.921 95.7839 107.25C96.6405 106.957 97.6282 107.08 98.387 107.573C98.2 107.795 98.0129 108.018 97.8259 108.24C98.3707 108.03 98.9907 108.02 99.5419 108.213C99.323 108.718 98.9227 109.142 98.4317 109.388C99.0084 109.263 99.6496 109.522 99.9777 110.013C99.3421 110.385 98.6435 110.649 97.9208 110.791C98.7059 111.078 99.3301 111.772 99.5327 112.584C99.2607 112.102 98.5897 111.899 98.0965 112.148C98.849 112.457 99.481 113.047 99.8409 113.776C99.3506 114.072 98.7193 114.122 98.1887 113.906C98.4345 113.862 98.696 113.821 98.9291 113.911C99.1615 114.001 99.3421 114.278 99.2373 114.504C99.0722 114.862 98.533 114.698 98.2028 114.483C98.6577 114.578 99.2259 115.01 98.939 115.376C98.5677 115.848 97.6608 114.984 97.2598 115.431C97.6565 115.582 97.9343 115.999 97.9215 116.423C97.5361 116.318 97.1507 116.213 96.7652 116.108C96.9445 116.527 97.0656 116.97 97.1244 117.421C96.8091 117.511 96.4733 117.53 96.1495 117.477C96.1247 117.677 96.2671 117.854 96.3543 118.036C96.4414 118.218 96.4407 118.493 96.2508 118.561C95.9447 118.668 95.6486 118.083 95.3878 118.276C95.4346 118.757 94.8416 119.169 94.4072 118.956" fill="#393F4E"/>
<path d="M76.9012 115.095C78.0504 113.256 79.0813 111.343 79.9847 109.371C79.8728 109.561 79.7608 109.751 79.6496 109.941C79.4852 109.257 79.425 108.548 79.4724 107.847C79.3626 108.133 79.2528 108.42 79.143 108.706C79.2216 108.003 78.9864 107.272 78.5131 106.745C78.4855 107.08 78.4571 107.414 78.4288 107.749C78.2502 106.943 77.682 106.232 76.9345 105.881C77.0231 106.262 77.1123 106.644 77.2009 107.025C76.8027 106.328 76.0715 105.831 75.2772 105.718C75.3828 105.978 75.4891 106.239 75.5947 106.5C74.8932 106.071 74.1309 105.743 73.3373 105.527C73.3656 105.948 73.5073 106.361 73.7433 106.711C72.9136 106.35 71.9188 106.392 71.1224 106.822L71.6276 107.532C71.1019 107.279 70.4848 107.219 69.9201 107.367C70.0972 107.888 70.4621 108.342 70.9319 108.628C70.3665 108.456 69.7068 108.663 69.3398 109.126C69.9435 109.548 70.6187 109.868 71.3272 110.067C70.5216 110.289 69.8429 110.93 69.5757 111.723C69.8854 111.266 70.5712 111.118 71.0424 111.406C70.268 111.652 69.5892 112.189 69.1719 112.887C69.6367 113.222 70.2623 113.323 70.8086 113.15C70.5663 113.087 70.3098 113.024 70.0703 113.096C69.8308 113.166 69.6289 113.427 69.7146 113.662C69.8506 114.032 70.4012 113.912 70.7476 113.724C70.2864 113.782 69.6856 114.167 69.942 114.554C70.2736 115.055 71.2471 114.268 71.6106 114.746C71.2039 114.864 70.8922 115.257 70.8709 115.681C71.2634 115.607 71.6567 115.534 72.0492 115.461C71.8366 115.863 71.6801 116.295 71.5844 116.74C71.8919 116.856 72.2249 116.902 72.5523 116.874C72.56 117.076 72.4049 117.241 72.3029 117.415C72.2008 117.589 72.1796 117.864 72.3638 117.946C72.66 118.079 73.0022 117.52 73.2466 117.732C73.1616 118.208 73.7185 118.666 74.1691 118.49" fill="#393F4E"/>
<path d="M183.676 100.246C183.676 100.246 177.043 99.6695 177.043 108.893C177.043 108.893 176.959 109.985 177.355 111.378C177.767 112.824 179.03 114.486 179.03 115.526C179.075 116.081 179.109 116.637 179.137 117.193C179.184 118.161 179.019 119.121 179.077 120.074C179.138 121.099 179.982 122.167 180.961 121.23C180.961 121.23 181.486 123.176 182.833 126.679C182.833 126.679 184.395 131.139 193.761 126.01L198.693 118.52" fill="#826751"/>
<path d="M181.14 121.494C181.14 121.494 180.804 122.663 181.188 123.472L181.908 123.922L181.572 124.506C181.572 124.506 181.524 125.091 182.628 125.136" fill="#826751"/>
<path d="M193.676 125.28C201.066 124.327 205.573 116.597 203.234 108.108C200.894 99.6175 193.174 94.3396 185.99 96.3193C185.99 96.3193 178.878 98.6942 177.875 103.961C177.875 103.961 182.049 106.786 185.32 110.056C185.32 110.056 189.817 105.15 191.044 114.145L189 117.416C189 117.416 191.779 125.525 193.676 125.28Z" fill="#393F4E"/>
<path d="M186.654 122.773C186.654 118.867 189.821 115.701 193.726 115.701C197.631 115.701 200.798 118.867 200.798 122.773C200.798 126.678 197.631 129.844 193.726 129.844C189.821 129.844 186.654 126.678 186.654 122.773Z" fill="#393F4E"/>
<path d="M145.645 135.087L157.675 130.125L163.801 152.23L156.801 162.606L145.645 135.087Z" fill="#393F4E"/>
<path d="M180.857 140.461L173.363 170.436L183.569 182.101L194.884 179.937L201.28 141.223" fill="#EAE64C"/>
<path d="M184.284 135.193L178.569 150.195L162.139 141.503L162.02 145.551L179.998 158.886L183.926 142.456" fill="#6D5645"/>
<path d="M147.523 136.562L157.888 132.191L163.164 151.662L157.134 160.801L147.523 136.562Z" fill="white"/>
<path d="M181.632 135.809C181.632 135.809 184.992 131.933 189.127 133.225C189.127 133.225 195.07 134.775 193.002 143.303C193.002 143.303 182.925 159.066 180.34 161.65C180.34 161.65 175.172 167.593 171.813 166.301L153.983 155.707L152.949 151.572L171.813 157.515L181.632 135.809Z" fill="#826751"/>
<path d="M150.366 144.854C150.366 144.854 145.714 153.381 154.242 156.223H157.084" fill="#826751"/>
<path d="M175.172 142.011C175.172 142.011 181.374 128.574 187.834 130.383C187.834 130.383 194.036 130.383 195.845 133.225C195.845 133.225 199.204 137.618 198.429 140.202L192.743 149.246L175.172 142.011Z" fill="#EAE64C"/>
<path d="M175.947 169.144L157.342 167.852C157.342 167.852 148.814 168.885 149.073 182.84C149.073 182.84 146.23 199.636 147.522 203.77L169.229 199.636L191.854 181.62" fill="#EAE64C"/>
<path d="M164.043 140.551C164.043 140.551 162.532 137.34 159.318 137.34C159.318 137.34 152.092 138.513 158.942 144.19C158.942 144.19 162.257 146.742 163.448 146.146" fill="#6D5645"/>
<path d="M155.111 140.781L165.219 135.03L165.542 135.75L155.608 141.501L155.111 140.781Z" fill="#EAE64C"/>
<path d="M160.772 143.064L157.347 139.967C157.347 139.967 156.737 139.216 156.175 139.357C156.175 139.357 154.767 140.202 157.066 142.078" fill="#6D5645"/>
<path d="M155.111 140.781L154.533 141.563L155.608 141.501" fill="#EAE64C"/>
<path d="M152.939 150.124L152.625 146.905C152.625 146.905 152.939 146.355 153.41 146.513C153.41 146.513 153.881 146.669 154.038 147.69L154.509 151.93" fill="#826751"/>
</g>
</svg>
