<svg width="87" height="32" viewBox="0 0 87 32" fill="none" xmlns="http://www.w3.org/2000/svg">
<path d="M3.10938 14.959C3.10938 8.01926 7.62022 3.73975 13.7118 3.73975C17.4515 3.73975 20.4973 5.43613 22.1552 8.3277L18.9937 10.4482C17.6443 8.21204 15.6781 7.44095 13.8274 7.44095C10.0106 7.44095 7.466 10.0626 7.466 14.7663C7.466 19.547 10.2419 21.9759 13.6347 21.9759C16.4106 21.9759 18.4154 20.4337 19.7262 18.9301L22.3865 21.5518C20.266 24.0578 17.1817 25.7928 13.3262 25.7928C7.65877 25.8699 3.10938 22.053 3.10938 14.959Z" fill="#2C4668"/>
<path d="M22.5795 18.0434C22.618 13.2627 25.471 10.1783 30.0976 10.1783C34.8783 10.1783 37.6542 13.2241 37.6542 18.0434C37.6542 22.7856 34.8012 25.9085 30.0976 25.9085C25.471 25.9085 22.5409 22.7856 22.5795 18.0434ZM33.6831 18.0434C33.6831 14.9976 32.4108 13.5326 30.0976 13.5326C27.8614 13.5326 26.5506 15.0362 26.5506 18.0434C26.5506 21.0892 27.8229 22.5542 30.0976 22.5542C32.4108 22.5542 33.6831 21.0506 33.6831 18.0434Z" fill="#2C4668"/>
<path d="M51.9964 16.3856V25.5229H48.4108V23.5567C47.3699 24.9832 45.7506 25.8699 43.553 25.8699C40.4686 25.8699 38.3867 24.0579 38.3867 21.2434C38.3867 17.5422 41.8952 16.3085 45.712 16.3085C46.5988 16.3085 47.447 16.3856 48.2566 16.5012V16.3085C48.2566 14.3422 46.9458 13.4169 45.0951 13.4169C43.6686 13.4169 42.0879 13.9181 40.5458 15.1133L38.8108 12.5687C40.4301 11.0265 42.9361 10.1783 45.4036 10.1783C49.3361 10.1398 51.9964 12.3759 51.9964 16.3856ZM48.2566 18.853C47.4855 18.7759 46.7144 18.7759 46.0205 18.7759C44.0542 18.7759 42.4349 19.3543 42.4349 20.9735C42.4349 22.0916 43.2445 22.8627 44.5168 22.8627C46.753 22.8627 48.1024 21.1663 48.2566 18.853Z" fill="#2C4668"/>
<path d="M53.4609 18.0819C53.4609 13.1856 56.5838 10.1398 61.1718 10.1398C63.7935 10.1398 66.2609 11.1807 67.5332 13.7253L64.4489 15.4603C63.7164 14.1109 62.6368 13.494 61.2489 13.494C59.2826 13.494 57.5477 14.8048 57.5477 18.0434C57.5477 21.2434 59.2441 22.4771 61.1332 22.4771C62.4826 22.4771 63.6778 21.8603 64.7573 20.1253L67.726 21.8217C66.5694 24.2121 64.1405 25.8313 60.8634 25.8313C56.8537 25.8699 53.4609 23.1711 53.4609 18.0819Z" fill="#2C4668"/>
<path d="M83.1098 15.0746V25.5228H78.946V16.0385C78.946 14.3421 78.3677 13.5325 76.9412 13.5325C75.746 13.5325 74.3966 14.1108 73.0857 15.0746V25.5228H68.9219V4.12524H73.1243V11.8746C74.705 10.7566 76.4399 10.1397 78.1749 10.1397C81.2207 10.1397 83.1098 11.8746 83.1098 15.0746Z" fill="#2C4668"/>
<path d="M43.0897 29.1084H23.0801V30.0723H43.0897V29.1084Z" fill="#E9E540"/>
<path d="M23.119 29.1084H3.10938V30.0723H23.119V29.1084Z" fill="#9CC184"/>
<path d="M63.0614 29.1084H43.0518V30.0723H63.0614V29.1084Z" fill="#B04C8F"/>
<path d="M83.0712 29.1084H63.0615V30.0723H83.0712V29.1084Z" fill="#FAA544"/>
</svg>
