<svg width="175" height="80" viewBox="0 0 175 80" fill="none" xmlns="http://www.w3.org/2000/svg">
<path d="M5.80762 29.8462C5.80762 16 14.8076 7.46155 26.9615 7.46155C34.423 7.46155 40.4999 10.8462 43.8076 16.6154L37.4999 20.8462C34.8076 16.3846 30.8845 14.8462 27.1922 14.8462C19.5768 14.8462 14.4999 20.0769 14.4999 29.4615C14.4999 39 20.0384 43.8462 26.8076 43.8462C32.3461 43.8462 36.3461 40.7692 38.9615 37.7692L44.2692 43C40.0384 48 33.8845 51.4615 26.1922 51.4615C14.8845 51.6154 5.80762 44 5.80762 29.8462Z" fill="#2C4668"/>
<path d="M44.6536 36C44.7305 26.4616 50.4228 20.3077 59.6536 20.3077C69.192 20.3077 74.7305 26.3847 74.7305 36C74.7305 45.4616 69.0382 51.6924 59.6536 51.6924C50.4228 51.6924 44.5767 45.4616 44.6536 36ZM66.8074 36C66.8074 29.9231 64.269 27 59.6536 27C55.192 27 52.5767 30 52.5767 36C52.5767 42.077 55.1151 45 59.6536 45C64.269 45 66.8074 42 66.8074 36Z" fill="#2C4668"/>
<path d="M103.346 32.6924V50.9231H96.1924V47C94.1155 49.8462 90.8847 51.6154 86.5001 51.6154C80.3462 51.6154 76.1924 48 76.1924 42.3847C76.1924 35 83.1924 32.5385 90.8078 32.5385C92.577 32.5385 94.2693 32.6924 95.8847 32.9231V32.5385C95.8847 28.6154 93.2693 26.7693 89.577 26.7693C86.7308 26.7693 83.577 27.7693 80.5001 30.1539L77.0385 25.077C80.2693 22 85.2693 20.3077 90.1924 20.3077C98.0385 20.2308 103.346 24.6924 103.346 32.6924ZM95.8847 37.6154C94.3462 37.4616 92.8078 37.4616 91.4231 37.4616C87.5001 37.4616 84.2693 38.6154 84.2693 41.8462C84.2693 44.077 85.8847 45.6154 88.4231 45.6154C92.8847 45.6154 95.577 42.2308 95.8847 37.6154Z" fill="#2C4668"/>
<path d="M106.27 36.077C106.27 26.3078 112.5 20.2308 121.654 20.2308C126.885 20.2308 131.808 22.3078 134.346 27.3847L128.193 30.8462C126.731 28.1539 124.577 26.9231 121.808 26.9231C117.885 26.9231 114.423 29.5385 114.423 36.0001C114.423 42.3847 117.808 44.8462 121.577 44.8462C124.27 44.8462 126.654 43.6155 128.808 40.1539L134.731 43.5385C132.423 48.3078 127.577 51.5385 121.039 51.5385C113.039 51.6155 106.27 46.2308 106.27 36.077Z" fill="#2C4668"/>
<path d="M165.423 30.077V50.9231H157.115V32.0001C157.115 28.6154 155.961 27.0001 153.115 27.0001C150.731 27.0001 148.038 28.1539 145.423 30.077V50.9231H137.115V8.23083H145.5V23.6924C148.654 21.4616 152.115 20.2308 155.577 20.2308C161.654 20.2308 165.423 23.6924 165.423 30.077Z" fill="#2C4668"/>
<path d="M85.5769 58.0769H45.6538V60H85.5769V58.0769Z" fill="#E9E540"/>
<path d="M45.7307 58.0769H5.80762V60H45.7307V58.0769Z" fill="#9CC184"/>
<path d="M125.423 58.0769H85.5V60H125.423V58.0769Z" fill="#B04C8F"/>
<path d="M165.346 58.0769H125.423V60H165.346V58.0769Z" fill="#FAA544"/>
<path d="M6.03857 74.0769V66.4615H7.26934V69.4615H9.73088V66.4615H10.9617V74.0769H9.73088V70.7692H7.26934V74.0769H6.03857Z" fill="#2C4668"/>
<path d="M14.9614 72.3077L16.1153 72.5385C15.9614 73.077 15.7307 73.5385 15.346 73.7693C15.0383 74 14.5768 74.1539 14.1153 74.1539C13.423 74.1539 12.9614 73.9231 12.5768 73.4616C12.1153 72.9231 11.9614 72.2308 11.9614 71.3077C11.9614 70.3846 12.1922 69.6154 12.5768 69.077C12.9614 68.6154 13.423 68.3846 13.9614 68.3846C14.5768 68.3846 15.1153 68.6154 15.4999 69.077C15.8845 69.6154 16.1153 70.4616 16.1153 71.5385V71.6923H13.1153C13.1153 72.1539 13.1922 72.4616 13.423 72.6923C13.5768 72.9231 13.8076 73.077 14.1153 73.077C14.4999 73.077 14.8076 72.8462 14.9614 72.3077ZM14.9614 70.8462C14.9614 70.3846 14.8845 70.077 14.6537 69.8462C14.4999 69.6154 14.2691 69.5385 14.0383 69.5385C13.8076 69.5385 13.5768 69.6154 13.423 69.8462C13.2691 70.077 13.1922 70.3846 13.1922 70.7693H14.9614V70.8462Z" fill="#2C4668"/>
<path d="M17.1157 74.0769V66.4615H18.3465V74.0769H17.1157Z" fill="#2C4668"/>
<path d="M19.5003 68.5385H20.5772V69.3846C20.731 69.0769 20.9618 68.8462 21.1926 68.6923C21.4233 68.5385 21.731 68.4615 21.9618 68.4615C22.5003 68.4615 22.8849 68.6923 23.2695 69.2308C23.6541 69.6923 23.808 70.3846 23.808 71.3077C23.808 72.2308 23.6541 73 23.2695 73.4615C22.8849 74 22.4233 74.2308 21.9618 74.2308C21.731 74.2308 21.5003 74.1539 21.2695 74.0769C21.0387 73.9231 20.8849 73.7692 20.6541 73.4615V76.1539H19.4233V68.5385H19.5003ZM20.731 71.2308C20.731 71.8462 20.808 72.3077 21.0387 72.6154C21.2695 72.9231 21.5003 73.0769 21.808 73.0769C22.1156 73.0769 22.3464 72.9231 22.5003 72.6923C22.6541 72.3846 22.808 72 22.808 71.3846C22.808 70.7692 22.731 70.3846 22.5003 70.0769C22.3464 69.7692 22.0387 69.6923 21.808 69.6923C21.5003 69.6923 21.2695 69.8462 21.1156 70.0769C20.808 70.2308 20.731 70.6154 20.731 71.2308Z" fill="#2C4668"/>
<path d="M24.8848 67.7693V66.3846H26.1155V67.7693H24.8848ZM24.8848 74.077V68.5385H26.1155V74.077H24.8848Z" fill="#2C4668"/>
<path d="M31.4231 74.077H30.1923V71.2308C30.1923 70.6923 30.1923 70.3077 30.1154 70.0769C30.0385 69.9231 29.9616 69.7693 29.8847 69.6154C29.7308 69.5385 29.6539 69.4616 29.5 69.4616C29.2693 69.4616 29.1154 69.5385 28.9616 69.6923C28.8077 69.8462 28.6539 70 28.6539 70.2308C28.6539 70.4616 28.577 70.9231 28.577 71.5385V74.077H27.3462V68.5385H28.4231V69.3077C28.6539 69 28.8077 68.7693 29.1154 68.6154C29.4231 68.4616 29.6539 68.3846 29.9616 68.3846C30.3462 68.3846 30.577 68.4616 30.8847 68.6923C31.1154 68.8462 31.2693 69.0769 31.3462 69.3846C31.4231 69.6923 31.5 70.077 31.5 70.6154V74.077H31.4231Z" fill="#2C4668"/>
<path d="M32.5003 74.3846L33.8849 74.6154C33.8849 74.8461 33.9618 74.9231 34.0388 75.0769C34.1157 75.2308 34.3465 75.2308 34.5772 75.2308C34.808 75.2308 35.0388 75.1538 35.1926 75.0769C35.2695 75 35.4234 74.9231 35.4234 74.7692C35.5003 74.6154 35.5003 74.3846 35.5003 74V73.2308C35.3465 73.5385 35.1157 73.7692 34.8849 73.9231C34.6541 74.0769 34.4234 74.1538 34.1157 74.1538C33.5772 74.1538 33.1926 73.9231 32.8849 73.4615C32.5003 72.9231 32.2695 72.2308 32.2695 71.3846C32.2695 70.4615 32.4234 69.7692 32.808 69.2308C33.1926 68.7692 33.6541 68.5385 34.1926 68.5385C34.5003 68.5385 34.7311 68.6154 34.9618 68.7692C35.1926 68.9231 35.4234 69.1538 35.5772 69.4615V68.6923H36.7311V73.6154C36.7311 74.3846 36.6541 75 36.5003 75.3077C36.3465 75.6154 36.1157 75.9231 35.808 76.0769C35.5003 76.2308 35.1157 76.3846 34.5772 76.3846C34.1157 76.3846 33.6541 76.3077 33.4234 76.1538C33.1157 76 32.8849 75.8461 32.7311 75.5385C32.5772 75.2308 32.5003 74.9231 32.5003 74.6154V74.3846ZM33.5772 71.1538C33.5772 71.7692 33.6541 72.1538 33.8849 72.4615C34.0388 72.7692 34.2695 72.8461 34.5772 72.8461C34.8849 72.8461 35.1157 72.6923 35.3465 72.4615C35.5772 72.2308 35.6541 71.7692 35.6541 71.2308C35.6541 70.6923 35.5772 70.2308 35.3465 69.9231C35.1157 69.6154 34.8849 69.5385 34.6541 69.5385C34.3465 69.5385 34.1157 69.6923 33.9618 69.9231C33.7311 70.2308 33.5772 70.6154 33.5772 71.1538Z" fill="#2C4668"/>
<path d="M44.4232 71.2308L45.6539 71.6924C45.5001 72.5385 45.1155 73.1539 44.7308 73.5385C44.3462 73.9231 43.7308 74.1539 43.1155 74.1539C42.2693 74.1539 41.6539 73.8462 41.1155 73.2308C40.5001 72.5385 40.1924 71.5385 40.1924 70.3077C40.1924 69.0001 40.5001 68.0001 41.0385 67.2308C41.577 66.6154 42.2693 66.3077 43.1155 66.3077C43.8078 66.3077 44.4232 66.5385 44.8847 67C45.1924 67.3077 45.5001 67.8462 45.6539 68.5385L44.4232 68.9231C44.3462 68.5385 44.1924 68.2308 43.9616 68.0001C43.7308 67.7693 43.4232 67.6924 43.1155 67.6924C42.6539 67.6924 42.2693 67.9231 41.9616 68.3077C41.6539 68.6924 41.5001 69.3847 41.5001 70.3077C41.5001 71.2308 41.6539 71.9231 41.9616 72.3847C42.2693 72.7693 42.577 73.0001 43.0385 73.0001C43.3462 73.0001 43.6539 72.8462 43.8847 72.6154C44.1155 72.2308 44.2693 71.8462 44.4232 71.2308Z" fill="#2C4668"/>
<path d="M46.4233 71.2308C46.4233 70.6923 46.5003 70.2308 46.731 69.7692C46.9618 69.3077 47.1926 69 47.5772 68.7692C47.8849 68.5385 48.3464 68.4615 48.731 68.4615C49.4233 68.4615 50.0387 68.7692 50.4233 69.3077C50.808 69.8462 51.0387 70.5385 51.0387 71.3077C51.0387 71.8462 50.9618 72.3846 50.731 72.8462C50.5003 73.3077 50.2695 73.6154 49.8849 73.8462C49.5003 74.0769 49.1156 74.1539 48.731 74.1539C48.0387 74.1539 47.5003 73.9231 47.0387 73.3846C46.6541 72.9231 46.4233 72.1539 46.4233 71.2308ZM47.6541 71.3077C47.6541 71.8462 47.731 72.3077 47.9618 72.5385C48.1926 72.7692 48.4233 73 48.731 73C49.0387 73 49.2695 72.8462 49.5003 72.5385C49.731 72.2308 49.808 71.8462 49.808 71.2308C49.808 70.6923 49.731 70.2308 49.5003 70C49.2695 69.6923 49.0387 69.5385 48.731 69.5385C48.4233 69.5385 48.1926 69.6923 47.9618 70C47.731 70.3077 47.6541 70.7692 47.6541 71.3077Z" fill="#2C4668"/>
<path d="M54.9616 74.0769V73.2308C54.8078 73.5385 54.577 73.7692 54.3463 73.9231C54.0386 74.0769 53.8078 74.1538 53.5001 74.1538C53.1924 74.1538 52.9617 74.0769 52.7309 73.9231C52.5001 73.7692 52.3463 73.5385 52.1924 73.2308C52.0386 72.9231 52.0386 72.5385 52.0386 72V68.5385H53.2693V71.0769C53.2693 71.7692 53.2693 72.2308 53.3463 72.4615C53.3463 72.6923 53.5001 72.8461 53.577 72.9231C53.654 73 53.8847 73.0769 54.0386 73.0769C54.2693 73.0769 54.4232 73 54.577 72.8461C54.7309 72.6923 54.8847 72.5385 54.8847 72.3077C54.9616 72.0769 54.9616 71.6154 54.9616 70.8461V68.5385H56.1924V74.0769H54.9616Z" fill="#2C4668"/>
<path d="M61.5003 74.077H60.2695V71.2308C60.2695 70.6923 60.2695 70.3077 60.1926 70.0769C60.1156 69.9231 60.0387 69.7693 59.9618 69.6154C59.808 69.5385 59.731 69.4616 59.5772 69.4616C59.3464 69.4616 59.1926 69.5385 59.0387 69.6923C58.8849 69.8462 58.731 70 58.731 70.2308C58.731 70.4616 58.6541 70.9231 58.6541 71.5385V74.077H57.4233V68.5385H58.5003V69.3077C58.731 69 58.8849 68.7693 59.1926 68.6154C59.5003 68.4616 59.731 68.3846 60.0387 68.3846C60.4233 68.3846 60.6541 68.4616 60.9618 68.6923C61.1926 68.8462 61.3464 69.0769 61.4233 69.3846C61.5003 69.6923 61.5772 70.077 61.5772 70.6154V74.077H61.5003Z" fill="#2C4668"/>
<path d="M64.7309 68.5385V69.6924H63.8847V71.9232C63.8847 72.3847 63.8847 72.6924 63.8847 72.7693C63.9617 72.9232 64.0386 73.0001 64.1924 73.0001C64.2693 73.0001 64.5001 72.9232 64.654 72.8462L64.7309 74.0001C64.4232 74.1539 64.1155 74.2308 63.8078 74.2308C63.5001 74.2308 63.2693 74.1539 63.0386 74.0001C62.8847 73.8462 62.7309 73.6155 62.654 73.3847C62.577 73.1539 62.577 72.7693 62.577 72.1539V69.7693H62.0386V68.6155H62.577V67.5385L63.8078 66.6924V68.6155H64.7309V68.5385Z" fill="#2C4668"/>
<path d="M66.7308 74.077H65.5V68.5385H66.5769V69.3077C66.7308 68.9231 66.9615 68.6923 67.1154 68.5385C67.2692 68.3846 67.4231 68.3846 67.6538 68.3846C67.9615 68.3846 68.1923 68.4616 68.4231 68.6923L68.0385 70C67.8077 69.8462 67.6538 69.7693 67.5 69.7693C67.3462 69.7693 67.1923 69.8462 67.0385 69.9231C66.8846 70.077 66.8077 70.2308 66.7308 70.6154C66.6538 70.9231 66.6538 71.5385 66.6538 72.3846V74.077H66.7308Z" fill="#2C4668"/>
<path d="M68.9614 67.7693V66.3846H70.1922V67.7693H68.9614ZM68.9614 74.077V68.5385H70.1922V74.077H68.9614Z" fill="#2C4668"/>
<path d="M74.0386 72.3077L75.1924 72.5385C75.0386 73.077 74.8078 73.5385 74.4232 73.7693C74.1155 74 73.654 74.1539 73.1924 74.1539C72.5001 74.1539 72.0386 73.9231 71.654 73.4616C71.1924 72.9231 71.0386 72.2308 71.0386 71.3077C71.0386 70.3846 71.2693 69.6154 71.654 69.077C72.0386 68.6154 72.5001 68.3846 73.0386 68.3846C73.654 68.3846 74.1924 68.6154 74.577 69.077C74.9616 69.6154 75.1924 70.4616 75.1924 71.5385V71.6923H72.1924C72.1924 72.1539 72.2693 72.4616 72.5001 72.6923C72.654 72.9231 72.8847 73.077 73.1924 73.077C73.654 73.077 73.8847 72.8462 74.0386 72.3077ZM74.1155 70.8462C74.1155 70.3846 74.0386 70.077 73.8078 69.8462C73.654 69.6154 73.4232 69.5385 73.1924 69.5385C72.9617 69.5385 72.7309 69.6154 72.577 69.8462C72.4232 70.077 72.3463 70.3846 72.3463 70.7693H74.1155V70.8462Z" fill="#2C4668"/>
<path d="M75.8076 72.4616L77.0384 72.2308C77.1153 72.8462 77.4999 73.077 78.0384 73.077C78.3461 73.077 78.5768 73 78.6538 72.9231C78.7307 72.8462 78.8845 72.6923 78.8845 72.4616C78.8845 72.3077 78.8845 72.2308 78.8076 72.1539C78.7307 72.077 78.5768 72 78.423 72C77.423 71.7693 76.8076 71.4616 76.5768 71.2308C76.2692 70.9231 76.1153 70.5385 76.1153 70C76.1153 69.4616 76.2692 69.077 76.5768 68.7693C76.8845 68.4616 77.3461 68.3077 77.9615 68.3077C78.5768 68.3077 79.0384 68.3847 79.3461 68.6154C79.6538 68.8462 79.8845 69.2308 79.9615 69.6924L78.8076 69.9231C78.7307 69.4616 78.423 69.2308 77.9615 69.2308C77.6538 69.2308 77.423 69.3077 77.3461 69.3847C77.1922 69.4616 77.1922 69.6154 77.1922 69.6924C77.1922 69.8462 77.2692 69.9231 77.3461 70C77.423 70.077 77.8076 70.2308 78.423 70.3847C79.1153 70.5385 79.5768 70.7693 79.8076 71.077C80.0384 71.3077 80.1922 71.6924 80.1922 72.1539C80.1922 72.6924 80.0384 73.1539 79.6538 73.4616C79.2692 73.8462 78.8076 74 78.1153 74C77.4999 74 77.0384 73.8462 76.6538 73.5385C76.1922 73.4616 75.9615 73 75.8076 72.4616Z" fill="#2C4668"/>
<path d="M88.8079 74.0769H87.4233L86.8848 72.3846H84.4233L83.8848 74.0769H82.5771L85.0387 66.4615H86.3464L88.8079 74.0769ZM86.5002 71L85.6541 68.1539L84.8079 71H86.5002Z" fill="#2C4668"/>
<path d="M93.4232 70.1539L92.2693 70.3847C92.1924 69.7693 91.8847 69.5385 91.4232 69.5385C91.1155 69.5385 90.8847 69.6924 90.7308 69.9231C90.577 70.1539 90.4232 70.6154 90.4232 71.1539C90.4232 71.8462 90.5001 72.3077 90.7308 72.5385C90.9616 72.7693 91.1155 72.9231 91.4232 72.9231C91.6539 72.9231 91.8078 72.8462 91.9616 72.6924C92.1155 72.5385 92.1924 72.2308 92.2693 71.8462L93.4232 72.077C93.1924 73.3847 92.5001 74.077 91.3462 74.077C90.577 74.077 90.0385 73.7693 89.7308 73.2308C89.3462 72.6923 89.1924 72 89.1924 71.2308C89.1924 70.3077 89.4232 69.5385 89.8078 69.077C90.1924 68.6154 90.7308 68.3077 91.4232 68.3077C91.9616 68.3077 92.4232 68.4616 92.7308 68.6924C93.0385 69.077 93.2693 69.5385 93.4232 70.1539Z" fill="#2C4668"/>
<path d="M98.2693 70.1539L97.1155 70.3847C97.0386 69.7693 96.7309 69.5385 96.2693 69.5385C95.9617 69.5385 95.7309 69.6924 95.577 69.9231C95.4232 70.1539 95.2693 70.6154 95.2693 71.1539C95.2693 71.8462 95.3463 72.3077 95.577 72.5385C95.8078 72.7693 95.9617 72.9231 96.2693 72.9231C96.5001 72.9231 96.654 72.8462 96.8078 72.6924C96.9617 72.5385 97.0386 72.2308 97.1155 71.8462L98.2693 72.077C98.0386 73.3847 97.3463 74.077 96.1924 74.077C95.4232 74.077 94.8847 73.7693 94.577 73.2308C94.1924 72.6923 94.0386 72 94.0386 71.2308C94.0386 70.3077 94.2693 69.5385 94.654 69.077C95.0386 68.6154 95.577 68.3077 96.2693 68.3077C96.8078 68.3077 97.2693 68.4616 97.577 68.6924C97.8847 69.077 98.1155 69.5385 98.2693 70.1539Z" fill="#2C4668"/>
<path d="M101.808 72.3077L102.961 72.5385C102.808 73.077 102.577 73.5385 102.192 73.7693C101.885 74 101.423 74.1539 100.961 74.1539C100.269 74.1539 99.8076 73.9231 99.423 73.4616C98.9615 72.9231 98.8076 72.2308 98.8076 71.3077C98.8076 70.3846 99.0384 69.6154 99.423 69.077C99.8076 68.6154 100.269 68.3846 100.808 68.3846C101.423 68.3846 101.961 68.6154 102.346 69.077C102.731 69.6154 102.961 70.4616 102.961 71.5385V71.6923H99.9615C99.9615 72.1539 100.038 72.4616 100.269 72.6923C100.423 72.9231 100.654 73.077 100.961 73.077C101.423 73.077 101.731 72.8462 101.808 72.3077ZM101.885 70.8462C101.885 70.3846 101.808 70.077 101.577 69.8462C101.423 69.6154 101.192 69.5385 100.961 69.5385C100.731 69.5385 100.5 69.6154 100.346 69.8462C100.192 70.077 100.115 70.3846 100.115 70.7693H101.885V70.8462Z" fill="#2C4668"/>
<path d="M104.039 74.0769V66.4615H105.27V74.0769H104.039Z" fill="#2C4668"/>
<path d="M109.115 72.3077L110.269 72.5385C110.115 73.077 109.884 73.5385 109.5 73.7693C109.192 74 108.731 74.1539 108.269 74.1539C107.577 74.1539 107.115 73.9231 106.731 73.4616C106.269 72.9231 106.115 72.2308 106.115 71.3077C106.115 70.3846 106.346 69.6154 106.731 69.077C107.115 68.6154 107.577 68.3846 108.115 68.3846C108.731 68.3846 109.269 68.6154 109.654 69.077C110.038 69.6154 110.269 70.4616 110.269 71.5385V71.6923H107.269C107.269 72.1539 107.346 72.4616 107.577 72.6923C107.731 72.9231 107.961 73.077 108.269 73.077C108.731 73.077 108.961 72.8462 109.115 72.3077ZM109.192 70.8462C109.192 70.3846 109.115 70.077 108.884 69.8462C108.731 69.6154 108.5 69.5385 108.269 69.5385C108.038 69.5385 107.808 69.6154 107.654 69.8462C107.5 70.077 107.423 70.3846 107.423 70.7693H109.192V70.8462Z" fill="#2C4668"/>
<path d="M112.5 74.077H111.27V68.5385H112.346V69.3077C112.5 68.9231 112.731 68.6923 112.885 68.5385C113.039 68.3846 113.193 68.3846 113.423 68.3846C113.731 68.3846 113.962 68.4616 114.193 68.6923L113.808 70C113.577 69.8462 113.423 69.7693 113.27 69.7693C113.116 69.7693 112.962 69.8462 112.808 69.9231C112.654 70.077 112.577 70.2308 112.5 70.6154C112.423 70.9231 112.423 71.5385 112.423 72.3846V74.077H112.5Z" fill="#2C4668"/>
<path d="M115.577 70.2308L114.501 70C114.654 69.4616 114.885 69.077 115.116 68.7693C115.424 68.5385 115.885 68.3846 116.424 68.3846C116.962 68.3846 117.347 68.4616 117.577 68.6154C117.808 68.7693 118.039 68.9231 118.116 69.2308C118.193 69.5385 118.27 69.9231 118.27 70.5385V72.2308C118.27 72.6923 118.27 73.077 118.347 73.3077C118.347 73.5385 118.424 73.7693 118.577 74.077H117.424L117.27 73.4616C117.039 73.6923 116.885 73.9231 116.577 74C116.347 74.1539 116.116 74.1539 115.808 74.1539C115.347 74.1539 115.039 74 114.731 73.6923C114.424 73.3846 114.347 73 114.347 72.5385C114.347 72.2308 114.424 71.9231 114.501 71.6923C114.577 71.4616 114.808 71.3077 114.962 71.1539C115.116 71 115.501 70.9231 115.962 70.7693C116.501 70.6154 116.885 70.5385 117.116 70.3846C117.116 70.077 117.116 69.8462 117.039 69.7693C116.962 69.6923 116.885 69.6154 116.808 69.5385C116.654 69.4616 116.501 69.4616 116.347 69.4616C116.116 69.4616 115.962 69.5385 115.808 69.6154C115.808 69.7693 115.654 69.9231 115.577 70.2308ZM117.193 71.3846C117.039 71.4616 116.808 71.5385 116.501 71.6154C116.116 71.6923 115.885 71.8462 115.808 71.9231C115.731 72.077 115.654 72.2308 115.654 72.3846C115.654 72.6154 115.731 72.7693 115.808 72.9231C115.962 73.077 116.116 73.1539 116.27 73.1539C116.424 73.1539 116.577 73.077 116.808 73C116.962 72.8462 117.116 72.7693 117.116 72.6154C117.193 72.4616 117.193 72.1539 117.193 71.7693V71.3846Z" fill="#2C4668"/>
<path d="M121.654 68.5385V69.6924H120.808V71.9232C120.808 72.3847 120.808 72.6924 120.808 72.7693C120.885 72.9232 120.962 73.0001 121.116 73.0001C121.193 73.0001 121.423 72.9232 121.577 72.8462L121.654 74.0001C121.347 74.1539 121.039 74.2308 120.731 74.2308C120.423 74.2308 120.193 74.1539 119.962 74.0001C119.808 73.8462 119.654 73.6155 119.577 73.3847C119.5 73.1539 119.5 72.7693 119.5 72.1539V69.7693H118.962V68.6155H119.5V67.5385L120.731 66.6924V68.6155H121.654V68.5385Z" fill="#2C4668"/>
<path d="M125.115 72.3077L126.269 72.5385C126.115 73.077 125.884 73.5385 125.5 73.7693C125.192 74 124.731 74.1539 124.269 74.1539C123.577 74.1539 123.115 73.9231 122.731 73.4616C122.269 72.9231 122.115 72.2308 122.115 71.3077C122.115 70.3846 122.346 69.6154 122.731 69.077C123.115 68.6154 123.577 68.3846 124.115 68.3846C124.731 68.3846 125.269 68.6154 125.654 69.077C126.038 69.6154 126.269 70.4616 126.269 71.5385V71.6923H123.269C123.269 72.1539 123.346 72.4616 123.577 72.6923C123.731 72.9231 123.961 73.077 124.269 73.077C124.731 73.077 124.961 72.8462 125.115 72.3077ZM125.192 70.8462C125.192 70.3846 125.115 70.077 124.884 69.8462C124.731 69.6154 124.5 69.5385 124.269 69.5385C124.038 69.5385 123.808 69.6154 123.654 69.8462C123.5 70.077 123.423 70.3846 123.423 70.7693H125.192V70.8462Z" fill="#2C4668"/>
<path d="M129.808 74.0769V66.5385H131.038V72.7692H134.192V74.0769H129.808Z" fill="#2C4668"/>
<path d="M137.73 72.3077L138.884 72.5385C138.73 73.077 138.5 73.5385 138.115 73.7693C137.807 74 137.346 74.1539 136.884 74.1539C136.192 74.1539 135.73 73.9231 135.346 73.4616C134.884 72.9231 134.73 72.2308 134.73 71.3077C134.73 70.3846 134.961 69.6154 135.346 69.077C135.73 68.6154 136.192 68.3846 136.73 68.3846C137.346 68.3846 137.884 68.6154 138.269 69.077C138.654 69.6154 138.884 70.4616 138.884 71.5385V71.6923H135.884C135.884 72.1539 135.961 72.4616 136.192 72.6923C136.346 72.9231 136.577 73.077 136.884 73.077C137.346 73.077 137.577 72.8462 137.73 72.3077ZM137.73 70.8462C137.73 70.3846 137.654 70.077 137.423 69.8462C137.269 69.6154 137.038 69.5385 136.807 69.5385C136.577 69.5385 136.346 69.6154 136.192 69.8462C136.038 70.077 135.961 70.3846 135.961 70.7693H137.73V70.8462Z" fill="#2C4668"/>
<path d="M140.808 70.2308L139.731 70C139.885 69.4616 140.116 69.077 140.346 68.7693C140.654 68.5385 141.116 68.3846 141.654 68.3846C142.193 68.3846 142.577 68.4616 142.808 68.6154C143.039 68.7693 143.269 68.9231 143.346 69.2308C143.423 69.5385 143.5 69.9231 143.5 70.5385V72.2308C143.5 72.6923 143.5 73.077 143.577 73.3077C143.577 73.5385 143.654 73.7693 143.808 74.077H142.654L142.5 73.4616C142.269 73.6923 142.116 73.9231 141.808 74C141.577 74.1539 141.346 74.1539 141.039 74.1539C140.577 74.1539 140.269 74 139.962 73.6923C139.654 73.3846 139.577 73 139.577 72.5385C139.577 72.2308 139.654 71.9231 139.731 71.6923C139.808 71.4616 140.039 71.3077 140.193 71.1539C140.346 71 140.731 70.9231 141.193 70.7693C141.731 70.6154 142.116 70.5385 142.346 70.3846C142.346 70.077 142.346 69.8462 142.269 69.7693C142.193 69.6923 142.116 69.6154 142.039 69.5385C141.885 69.4616 141.731 69.4616 141.577 69.4616C141.346 69.4616 141.193 69.5385 141.039 69.6154C140.962 69.7693 140.885 69.9231 140.808 70.2308ZM142.423 71.3846C142.269 71.4616 142.039 71.5385 141.731 71.6154C141.346 71.6923 141.116 71.8462 141.039 71.9231C140.962 72.077 140.885 72.2308 140.885 72.3846C140.885 72.6154 140.962 72.7693 141.039 72.9231C141.193 73.077 141.346 73.1539 141.5 73.1539C141.654 73.1539 141.808 73.077 142.039 73C142.193 72.8462 142.346 72.7693 142.346 72.6154C142.423 72.4616 142.423 72.1539 142.423 71.7693V71.3846Z" fill="#2C4668"/>
<path d="M145.885 74.077H144.654V68.5385H145.731V69.3077C145.885 68.9231 146.116 68.6923 146.27 68.5385C146.424 68.3846 146.577 68.3846 146.808 68.3846C147.116 68.3846 147.347 68.4616 147.577 68.6923L147.193 70C146.962 69.8462 146.808 69.7693 146.654 69.7693C146.5 69.7693 146.347 69.8462 146.193 69.9231C146.039 70.077 145.962 70.2308 145.885 70.6154C145.808 70.9231 145.808 71.5385 145.808 72.3846V74.077H145.885Z" fill="#2C4668"/>
<path d="M152.269 74.077H151.039V71.2308C151.039 70.6923 151.039 70.3077 150.962 70.0769C150.885 69.9231 150.808 69.7693 150.731 69.6154C150.577 69.5385 150.5 69.4616 150.346 69.4616C150.115 69.4616 149.962 69.5385 149.808 69.6923C149.654 69.8462 149.5 70 149.5 70.2308C149.5 70.4616 149.423 70.9231 149.423 71.5385V74.077H148.192V68.5385H149.269V69.3077C149.5 69 149.654 68.7693 149.962 68.6154C150.269 68.4616 150.5 68.3846 150.808 68.3846C151.192 68.3846 151.423 68.4616 151.731 68.6923C151.962 68.8462 152.115 69.0769 152.192 69.3846C152.269 69.6923 152.346 70.077 152.346 70.6154V74.077H152.269Z" fill="#2C4668"/>
<path d="M153.5 67.7693V66.3846H154.731V67.7693H153.5ZM153.5 74.077V68.5385H154.731V74.077H153.5Z" fill="#2C4668"/>
<path d="M160.039 74.077H158.808V71.2308C158.808 70.6923 158.808 70.3077 158.731 70.0769C158.654 69.9231 158.577 69.7693 158.5 69.6154C158.346 69.5385 158.269 69.4616 158.116 69.4616C157.885 69.4616 157.731 69.5385 157.577 69.6923C157.423 69.8462 157.269 70 157.269 70.2308C157.269 70.4616 157.116 70.9231 157.116 71.5385V74.077H155.885V68.5385H156.962V69.3077C157.192 69 157.346 68.7693 157.654 68.6154C157.962 68.4616 158.192 68.3846 158.5 68.3846C158.885 68.3846 159.116 68.4616 159.423 68.6923C159.654 68.8462 159.808 69.0769 159.885 69.3846C159.962 69.6923 160.039 70.077 160.039 70.6154V74.077Z" fill="#2C4668"/>
<path d="M161.116 74.3846L162.5 74.6154C162.5 74.8461 162.577 74.9231 162.654 75.0769C162.731 75.2308 162.962 75.2308 163.192 75.2308C163.423 75.2308 163.654 75.1538 163.808 75.0769C163.885 75 164.039 74.9231 164.039 74.7692C164.116 74.6154 164.116 74.3846 164.116 74V73.2308C163.962 73.5385 163.731 73.7692 163.5 73.9231C163.269 74.0769 163.039 74.1538 162.731 74.1538C162.192 74.1538 161.808 73.9231 161.5 73.4615C161.116 72.9231 160.885 72.2308 160.885 71.3846C160.885 70.4615 161.039 69.7692 161.423 69.2308C161.808 68.7692 162.269 68.5385 162.808 68.5385C163.116 68.5385 163.346 68.6154 163.577 68.7692C163.808 68.9231 164.039 69.1538 164.192 69.4615V68.6923H165.346V73.6154C165.346 74.3846 165.269 75 165.116 75.3077C164.962 75.6154 164.731 75.9231 164.423 76.0769C164.116 76.2308 163.731 76.3846 163.192 76.3846C162.731 76.3846 162.269 76.3077 162.039 76.1538C161.731 76 161.5 75.8461 161.346 75.5385C161.192 75.3077 161.116 75 161.116 74.6154V74.3846ZM162.192 71.1538C162.192 71.7692 162.269 72.1538 162.5 72.4615C162.654 72.7692 162.885 72.8461 163.192 72.8461C163.5 72.8461 163.731 72.6923 163.962 72.4615C164.192 72.2308 164.269 71.7692 164.269 71.2308C164.269 70.6923 164.192 70.2308 163.962 69.9231C163.731 69.6154 163.5 69.5385 163.269 69.5385C162.962 69.5385 162.731 69.6923 162.577 69.9231C162.269 70.2308 162.192 70.6154 162.192 71.1538Z" fill="#2C4668"/>
</svg>
