<svg width="169" height="80" viewBox="0 0 169 80" fill="none" xmlns="http://www.w3.org/2000/svg">
<path d="M4.5 39C3.94772 39 3.5 39.4477 3.5 40C3.5 40.5523 3.94772 41 4.5 41V39ZM165.5 41C166.052 41 166.5 40.5523 166.5 40C166.5 39.4477 166.052 39 165.5 39V41ZM6.5125 41C7.06478 41 7.5125 40.5523 7.5125 40C7.5125 39.4477 7.06478 39 6.5125 39V41ZM10.5375 39C9.98522 39 9.5375 39.4477 9.5375 40C9.5375 40.5523 9.98522 41 10.5375 41V39ZM14.5625 41C15.1148 41 15.5625 40.5523 15.5625 40C15.5625 39.4477 15.1148 39 14.5625 39V41ZM18.5875 39C18.0352 39 17.5875 39.4477 17.5875 40C17.5875 40.5523 18.0352 41 18.5875 41V39ZM22.6125 41C23.1648 41 23.6125 40.5523 23.6125 40C23.6125 39.4477 23.1648 39 22.6125 39V41ZM26.6375 39C26.0852 39 25.6375 39.4477 25.6375 40C25.6375 40.5523 26.0852 41 26.6375 41V39ZM30.6625 41C31.2148 41 31.6625 40.5523 31.6625 40C31.6625 39.4477 31.2148 39 30.6625 39V41ZM34.6875 39C34.1352 39 33.6875 39.4477 33.6875 40C33.6875 40.5523 34.1352 41 34.6875 41V39ZM38.7125 41C39.2648 41 39.7125 40.5523 39.7125 40C39.7125 39.4477 39.2648 39 38.7125 39V41ZM42.7375 39C42.1852 39 41.7375 39.4477 41.7375 40C41.7375 40.5523 42.1852 41 42.7375 41V39ZM46.7625 41C47.3148 41 47.7625 40.5523 47.7625 40C47.7625 39.4477 47.3148 39 46.7625 39V41ZM50.7875 39C50.2352 39 49.7875 39.4477 49.7875 40C49.7875 40.5523 50.2352 41 50.7875 41V39ZM54.8125 41C55.3648 41 55.8125 40.5523 55.8125 40C55.8125 39.4477 55.3648 39 54.8125 39V41ZM58.8375 39C58.2852 39 57.8375 39.4477 57.8375 40C57.8375 40.5523 58.2852 41 58.8375 41V39ZM62.8625 41C63.4148 41 63.8625 40.5523 63.8625 40C63.8625 39.4477 63.4148 39 62.8625 39V41ZM66.8875 39C66.3352 39 65.8875 39.4477 65.8875 40C65.8875 40.5523 66.3352 41 66.8875 41V39ZM70.9125 41C71.4648 41 71.9125 40.5523 71.9125 40C71.9125 39.4477 71.4648 39 70.9125 39V41ZM74.9375 39C74.3852 39 73.9375 39.4477 73.9375 40C73.9375 40.5523 74.3852 41 74.9375 41V39ZM78.9625 41C79.5148 41 79.9625 40.5523 79.9625 40C79.9625 39.4477 79.5148 39 78.9625 39V41ZM82.9875 39C82.4352 39 81.9875 39.4477 81.9875 40C81.9875 40.5523 82.4352 41 82.9875 41V39ZM87.0125 41C87.5648 41 88.0125 40.5523 88.0125 40C88.0125 39.4477 87.5648 39 87.0125 39V41ZM91.0375 39C90.4852 39 90.0375 39.4477 90.0375 40C90.0375 40.5523 90.4852 41 91.0375 41V39ZM95.0625 41C95.6148 41 96.0625 40.5523 96.0625 40C96.0625 39.4477 95.6148 39 95.0625 39V41ZM99.0875 39C98.5352 39 98.0875 39.4477 98.0875 40C98.0875 40.5523 98.5352 41 99.0875 41V39ZM103.113 41C103.665 41 104.113 40.5523 104.113 40C104.113 39.4477 103.665 39 103.113 39V41ZM107.138 39C106.585 39 106.138 39.4477 106.138 40C106.138 40.5523 106.585 41 107.138 41V39ZM111.163 41C111.715 41 112.163 40.5523 112.163 40C112.163 39.4477 111.715 39 111.163 39V41ZM115.188 39C114.635 39 114.188 39.4477 114.188 40C114.188 40.5523 114.635 41 115.188 41V39ZM119.213 41C119.765 41 120.213 40.5523 120.213 40C120.213 39.4477 119.765 39 119.213 39V41ZM123.238 39C122.685 39 122.238 39.4477 122.238 40C122.238 40.5523 122.685 41 123.238 41V39ZM127.263 41C127.815 41 128.263 40.5523 128.263 40C128.263 39.4477 127.815 39 127.263 39V41ZM131.288 39C130.735 39 130.288 39.4477 130.288 40C130.288 40.5523 130.735 41 131.288 41V39ZM135.313 41C135.865 41 136.313 40.5523 136.313 40C136.313 39.4477 135.865 39 135.313 39V41ZM139.338 39C138.785 39 138.338 39.4477 138.338 40C138.338 40.5523 138.785 41 139.338 41V39ZM143.363 41C143.915 41 144.363 40.5523 144.363 40C144.363 39.4477 143.915 39 143.363 39V41ZM147.388 39C146.835 39 146.388 39.4477 146.388 40C146.388 40.5523 146.835 41 147.388 41V39ZM151.413 41C151.965 41 152.413 40.5523 152.413 40C152.413 39.4477 151.965 39 151.413 39V41ZM155.438 39C154.885 39 154.438 39.4477 154.438 40C154.438 40.5523 154.885 41 155.438 41V39ZM159.462 41C160.015 41 160.462 40.5523 160.462 40C160.462 39.4477 160.015 39 159.462 39V41ZM163.487 39C162.935 39 162.487 39.4477 162.487 40C162.487 40.5523 162.935 41 163.487 41V39ZM4.5 41H6.5125V39H4.5V41ZM10.5375 41H14.5625V39H10.5375V41ZM18.5875 41H22.6125V39H18.5875V41ZM26.6375 41H30.6625V39H26.6375V41ZM34.6875 41H38.7125V39H34.6875V41ZM42.7375 41H46.7625V39H42.7375V41ZM50.7875 41H54.8125V39H50.7875V41ZM58.8375 41H62.8625V39H58.8375V41ZM66.8875 41H70.9125V39H66.8875V41ZM74.9375 41H78.9625V39H74.9375V41ZM82.9875 41H87.0125V39H82.9875V41ZM91.0375 41H95.0625V39H91.0375V41ZM99.0875 41H103.113V39H99.0875V41ZM107.138 41H111.163V39H107.138V41ZM115.188 41H119.213V39H115.188V41ZM123.238 41H127.263V39H123.238V41ZM131.288 41H135.313V39H131.288V41ZM139.338 41H143.363V39H139.338V41ZM147.388 41H151.413V39H147.388V41ZM155.438 41H159.462V39H155.438V41ZM163.487 41H165.5V39H163.487V41Z" fill="#3373CC"/>
<rect x="1.5" y="21" width="38" height="38" rx="19" fill="white"/>
<path d="M27.2104 35.21C27.1175 35.1163 27.0069 35.0419 26.885 34.9911C26.7632 34.9403 26.6324 34.9142 26.5004 34.9142C26.3684 34.9142 26.2377 34.9403 26.1159 34.9911C25.994 35.0419 25.8834 35.1163 25.7904 35.21L18.3404 42.67L15.2104 39.53C15.1139 39.4367 15 39.3634 14.8751 39.3142C14.7503 39.265 14.6169 39.2409 14.4828 39.2432C14.3486 39.2455 14.2162 39.2743 14.0931 39.3278C13.97 39.3812 13.8587 39.4585 13.7654 39.555C13.6722 39.6515 13.5989 39.7654 13.5497 39.8903C13.5005 40.0152 13.4763 40.1485 13.4787 40.2827C13.481 40.4168 13.5097 40.5493 13.5632 40.6723C13.6167 40.7954 13.6939 40.9067 13.7904 41L17.6304 44.84C17.7234 44.9337 17.834 45.0081 17.9559 45.0589C18.0777 45.1096 18.2084 45.1358 18.3404 45.1358C18.4725 45.1358 18.6032 45.1096 18.725 45.0589C18.8469 45.0081 18.9575 44.9337 19.0504 44.84L27.2104 36.68C27.3119 36.5863 27.393 36.4727 27.4484 36.3462C27.5038 36.2197 27.5324 36.0831 27.5324 35.945C27.5324 35.8069 27.5038 35.6703 27.4484 35.5438C27.393 35.4173 27.3119 35.3036 27.2104 35.21V35.21Z" fill="#3373CC"/>
<rect x="1.5" y="21" width="38" height="38" rx="19" stroke="#3373CC" stroke-width="2"/>
<rect x="65.5" y="21" width="38" height="38" rx="19" fill="white"/>
<rect x="65.5" y="21" width="38" height="38" rx="19" stroke="#3373CC" stroke-width="2"/>
<rect x="129.5" y="21" width="38" height="38" rx="19" fill="white"/>
<rect x="129.5" y="21" width="38" height="38" rx="19" stroke="#3373CC" stroke-width="2"/>
</svg>
