<svg width="123" height="24" viewBox="0 0 123 24" fill="none" xmlns="http://www.w3.org/2000/svg">
<mask id="mask0_1087_30733" style="mask-type:alpha" maskUnits="userSpaceOnUse" x="0" y="0" width="24" height="24">
<path d="M0 11.9982C0 13.1409 0.163248 14.2431 0.462742 15.2889C0.481154 15.3589 0.49711 15.4301 0.516749 15.5C0.522887 15.5135 0.527796 15.5246 0.532706 15.5393C2.04736 20.4331 6.61464 24 11.9994 24C14.4898 24 16.806 23.2365 18.7269 21.9305C18.7466 21.9207 18.765 21.9097 18.7834 21.8999C18.8976 21.8225 19.008 21.7391 19.1148 21.6544C21.323 20.0231 22.9542 17.6542 23.6404 14.9133C23.6784 14.7881 23.7116 14.6605 23.7386 14.5291C23.7459 14.4997 23.7484 14.469 23.7496 14.4395C23.9129 13.6503 24 12.834 24 11.9982C24 10.3804 23.6821 8.80806 23.0561 7.329C22.937 7.04424 22.6093 6.9129 22.3246 7.03442C22.041 7.15225 21.9097 7.47998 22.0287 7.76352C22.5946 9.10387 22.883 10.5289 22.883 11.9982C22.883 12.9003 22.7726 13.7755 22.5651 14.6126C22.3994 15.1416 22.1098 15.6289 21.7096 16.0732C21.7194 15.883 21.7256 15.6915 21.7256 15.4976C21.7305 13.3557 21.1389 11.0935 20.0403 8.96763C20.8443 8.27781 21.3586 7.42474 21.5341 6.46857C21.5918 6.16417 21.3905 5.87449 21.0873 5.81803C20.7854 5.76157 20.492 5.96287 20.4368 6.26604C20.3214 6.89817 19.9924 7.47629 19.4794 7.97095C19.3198 7.70705 19.1541 7.44438 18.9773 7.18785C17.9991 5.75052 16.8342 4.50836 15.5614 3.5166C17.2405 3.62829 18.7969 4.0358 20.0477 4.73544C20.2441 4.84591 20.5055 4.84345 20.6884 4.69002C20.9253 4.4924 20.956 4.14013 20.7584 3.90201C18.9614 1.387 15.8511 0 11.9994 0C5.38352 0 0 5.38352 0 11.9982ZM12.2805 1.63617C11.7748 1.44346 11.2764 1.29371 10.7842 1.1857C11.1795 1.14274 11.5796 1.11819 11.9847 1.11696C12.1737 1.11942 12.4081 1.34649 12.6524 1.7896C12.5284 1.73682 12.4044 1.68404 12.2805 1.63617ZM13.4907 1.19797C13.9424 1.2483 14.4248 1.32685 14.9219 1.44346C14.6101 1.60917 14.2886 1.81905 13.9608 2.06945C13.8148 1.73927 13.6589 1.44837 13.4907 1.19797ZM15.3699 2.3935C15.7517 2.14555 16.1052 1.97371 16.3997 1.90498C16.9607 2.1296 17.5155 2.41559 18.0408 2.77768C17.1976 2.56779 16.2991 2.43891 15.3699 2.3935ZM6.31514 3.86396C6.43666 3.28584 6.78648 2.76786 7.32532 2.33826C8.62763 1.95039 10.1447 2.04367 11.7355 2.62671C11.0665 2.74454 10.3964 2.89797 9.73477 3.09804C8.50243 3.4675 7.34128 3.97197 6.27832 4.58692C6.25377 4.34266 6.26482 4.09963 6.31514 3.86396ZM5.26692 3.45891C5.25219 3.51537 5.23623 3.57306 5.22396 3.63075C5.11103 4.15732 5.12331 4.69739 5.2571 5.23255C4.05544 6.06107 3.01089 7.03933 2.17869 8.14034C1.92707 8.47543 1.69999 8.81665 1.49501 9.16279C2.11241 6.87608 3.45768 4.88764 5.26692 3.45891ZM7.669 7.01478C7.20626 6.58272 6.85521 6.13103 6.61955 5.67933C7.66532 5.04966 8.82279 4.53782 10.0564 4.16714C10.7891 3.9462 11.5305 3.78295 12.2719 3.6688C11.2028 4.868 10.1361 6.38756 9.15665 8.10597C8.5994 7.78315 8.0986 7.41738 7.669 7.01478ZM12.4364 9.34077C11.6287 9.16647 10.8616 8.91976 10.1546 8.60799C11.1966 6.7877 12.3357 5.20432 13.4588 4.02721C13.8111 5.40807 14.1044 7.2664 14.2284 9.56538C13.6368 9.54206 13.0353 9.46842 12.4364 9.34077ZM14.6494 4.22728C15.9198 5.17118 17.0822 6.39124 18.0555 7.81629C18.2397 8.0851 18.414 8.36005 18.5784 8.63867C17.6873 9.15297 16.5605 9.46228 15.3429 9.54697C15.241 7.62113 15.0127 5.76894 14.6494 4.22728ZM3.481 14.5991C2.53219 13.7215 1.88166 12.7948 1.54779 11.873C1.81169 10.8419 2.32108 9.80596 3.06981 8.81174C3.78295 7.87153 4.6667 7.02337 5.68179 6.29428C5.97146 6.8233 6.38388 7.34005 6.90554 7.8298C7.40142 8.29377 7.97954 8.71355 8.62026 9.08423C8.44474 9.41932 8.27167 9.75932 8.10351 10.1055C7.11175 12.1344 6.30287 14.3119 5.82908 16.288C4.94901 15.7909 4.15609 15.2226 3.481 14.5991ZM10.7192 18.101C9.33586 17.8051 8.02987 17.3657 6.84785 16.8109C7.23449 15.0618 7.95868 12.9457 9.10633 10.594C9.27203 10.2552 9.44142 9.91889 9.61448 9.59116C10.4172 9.94957 11.2887 10.2368 12.2031 10.432C12.8991 10.5805 13.5938 10.6615 14.2738 10.686C14.2873 11.1034 14.2922 11.5354 14.2922 11.9797C14.2922 14.6089 14.0823 16.7901 13.7792 18.495C12.7788 18.4508 11.7527 18.3219 10.7192 18.101ZM15.4067 11.9797C15.4067 11.5428 15.4031 11.1058 15.3883 10.6688C16.7778 10.578 18.0629 10.2159 19.116 9.61203C20.0906 11.5403 20.6147 13.5754 20.6098 15.4939C20.6074 16.0499 20.5607 16.5789 20.4724 17.0785C19.9703 17.3866 19.3947 17.6529 18.7429 17.8714C17.5928 18.2593 16.2942 18.4704 14.9182 18.5072C15.2484 16.5225 15.4067 14.2186 15.4067 11.9797ZM1.53429 14.9759C1.43978 14.6138 1.37963 14.2456 1.35509 13.8712C1.727 14.4002 2.18238 14.9194 2.72367 15.4178C3.53992 16.1727 4.50714 16.849 5.58973 17.4283C5.36879 18.6619 5.30497 19.7789 5.44612 20.681C3.5841 19.2732 2.19097 17.2786 1.53429 14.9759ZM7.28973 21.8103C7.25536 21.782 7.22099 21.7587 7.18171 21.7378C6.56063 21.4371 6.31023 20.0538 6.6355 17.9414C7.82489 18.4766 9.12228 18.9 10.486 19.1921C11.5182 19.4119 12.548 19.5493 13.5545 19.6021C13.0623 21.7477 12.4278 22.8744 12.0092 22.8744C11.9822 22.8744 11.9564 22.8781 11.9319 22.8818C10.2699 22.8695 8.69636 22.4878 7.28973 21.8103ZM14.7059 19.6242C16.2819 19.6046 17.7781 19.3738 19.1001 18.9307C19.434 18.8178 19.7506 18.6938 20.0538 18.5576C19.6843 19.4585 19.1418 20.2085 18.4385 20.7669C17.0478 21.7906 15.4055 22.4927 13.6245 22.7615C14.0701 21.9907 14.4309 20.902 14.7059 19.6242Z" fill="url(#paint0_radial_1087_30733)"/>
</mask>
<g mask="url(#mask0_1087_30733)">
<path d="M24 0H0V24H24V0Z" fill="url(#paint1_radial_1087_30733)"/>
</g>
<path d="M119.269 8.52789C121.096 8.52789 122.071 9.38069 122.071 10.9644C122.071 12.4264 121.096 13.2792 119.513 13.2792H118.416V15.5939H116.954V8.52789H119.269ZM118.416 12.0609H119.269C120.122 12.0609 120.609 11.6954 120.609 10.9644C120.609 10.2335 120.122 9.74617 119.269 9.74617H118.416V12.0609ZM114.152 12.67C114.152 13.6446 113.787 14.2538 112.934 14.2538C112.081 14.2538 111.716 13.7665 111.716 12.67V8.40607H110.254V12.5482C110.254 13.5228 110.497 14.3756 110.985 14.8629C111.472 15.3502 112.081 15.5939 112.934 15.5939C114.152 15.5939 115.614 15.1066 115.614 12.67V8.52789H114.152V12.67ZM106.112 8.40607C107.574 8.40607 109.279 9.38069 109.279 11.9391C109.279 14.6193 107.695 15.4721 106.112 15.4721C104.65 15.4721 102.944 14.4974 102.944 11.9391C102.944 9.38069 104.528 8.40607 106.112 8.40607ZM106.112 14.2538C106.721 14.2538 107.695 14.0101 107.695 12.0609C107.695 10.1117 106.721 9.868 106.112 9.868C105.137 9.868 104.528 10.7208 104.528 12.0609C104.528 13.401 105.015 14.2538 106.112 14.2538ZM101.36 13.401C101.604 13.8883 101.848 14.3756 102.335 14.3756H102.7V15.4721C102.7 15.4721 102.457 15.5939 101.97 15.5939C100.751 15.5939 100.386 14.7411 100.142 14.0101C99.8985 13.401 99.6548 12.9137 99.0457 12.9137H98.3147V15.4721H96.8528V8.40607H99.2893C101.117 8.40607 101.97 9.13703 101.97 10.599C101.97 11.5736 101.36 12.1827 100.873 12.4264C101.117 12.7919 101.239 13.0355 101.36 13.401ZM98.3147 11.8172H99.1675C100.02 11.8172 100.508 11.4518 100.508 10.8426C100.508 10.2335 100.02 9.868 99.2893 9.868H98.3147V11.8172ZM92.8325 12.9137H94.4162V13.0355C94.4162 13.5228 94.2944 14.2538 93.198 14.2538C92.2233 14.2538 91.6142 13.401 91.6142 12.0609C91.6142 10.599 92.2233 9.868 93.198 9.868C94.4162 9.868 94.4162 11.0863 94.4162 11.0863V11.2081L95.7563 10.9644C95.7563 10.4771 95.269 8.52789 93.0761 8.52789C91.1269 8.52789 89.9086 9.868 89.9086 12.0609C89.9086 14.2538 91.1269 15.5939 93.0761 15.5939C95.0254 15.5939 95.7563 14.2538 95.7563 13.0355V11.8172H92.8325V12.9137ZM88.3249 8.52789H86.4975L84.1827 11.6954V8.52789H82.7208V15.5939H84.1827V12.3045L86.6193 15.5939H88.4467L85.7665 12.0609L88.3249 8.52789ZM79.797 12.7919L77.3604 8.40607H75.8985V15.4721H77.3604V11.3299L79.797 15.4721H81.3807V8.40607H79.9188V12.7919H79.797ZM72.8528 8.52789L75.4112 15.4721H73.9492L73.3401 13.7665H71.0254L70.4162 15.4721H68.8325L71.3909 8.40607L72.8528 8.52789ZM72.1218 10.4771L71.3909 12.67H72.9746L72.1218 10.4771ZM67.4924 11.8172C67.9797 11.9391 68.7107 12.4264 68.7107 13.5228C68.7107 14.7411 67.8579 15.4721 66.2741 15.4721H63.3502V8.40607H66.0304C67.4924 8.40607 68.3452 9.0152 68.3452 10.3553C68.2233 11.3299 67.736 11.6954 67.4924 11.8172ZM65.7868 11.3299C66.3959 11.3299 66.7614 11.0863 66.7614 10.4771C66.7614 9.98982 66.3959 9.62434 65.665 9.62434H64.8122V11.2081H65.7868V11.3299ZM64.6903 14.2538H65.9086C66.6396 14.2538 67.0051 14.0101 67.0051 13.401C67.0051 12.67 66.3959 12.4264 65.9086 12.4264H64.8122V14.2538H64.6903ZM57.0152 8.52789C59.2081 8.52789 60.5482 9.868 60.5482 12.1827C60.5482 14.3756 59.3299 15.5939 57.3807 15.5939H54.9442V8.52789H57.0152ZM56.5279 14.2538H57.3807C58.4772 14.2538 59.0863 13.401 59.0863 12.0609C59.0863 10.4771 58.3553 9.74617 57.0152 9.74617H56.4061V14.2538H56.5279ZM51.2893 8.52789H49.8274V15.5939H54.335V14.3756H51.2893V8.52789ZM47.7563 13.401C48 13.8883 48.2436 14.3756 48.731 14.3756H49.0964V15.4721C49.0964 15.4721 48.8528 15.5939 48.3655 15.5939C47.1472 15.5939 46.7817 14.7411 46.5381 14.0101C46.2944 13.401 46.0508 12.9137 45.4416 12.9137H44.8325V15.4721H43.3706V8.40607H45.8071C47.6345 8.40607 48.4873 9.13703 48.4873 10.599C48.4873 11.5736 47.8782 12.1827 47.3909 12.4264C47.3909 12.7919 47.5127 13.0355 47.7563 13.401ZM44.5888 11.8172H45.4416C46.2944 11.8172 46.7817 11.4518 46.7817 10.8426C46.7817 10.2335 46.2944 9.868 45.5634 9.868H44.5888V11.8172ZM39.1066 8.40607C40.5685 8.40607 42.2741 9.38069 42.2741 11.9391C42.2741 14.6193 40.6904 15.4721 39.1066 15.4721C37.6447 15.4721 35.9391 14.4974 35.9391 11.9391C35.9391 9.38069 37.6447 8.40607 39.1066 8.40607ZM39.1066 14.2538C39.7157 14.2538 40.6904 14.0101 40.6904 12.0609C40.6904 10.1117 39.7157 9.868 39.1066 9.868C38.132 9.868 37.5228 10.7208 37.5228 12.0609C37.5228 13.401 38.132 14.2538 39.1066 14.2538ZM34.1117 8.52789H35.8173L33.7462 15.4721H32.0406L30.8223 11.0863L29.6041 15.4721H27.8985L25.8274 8.40607H27.6548L28.8731 13.5228L30.335 8.40607H31.5533L32.8934 13.5228L34.1117 8.52789Z" fill="#002F54"/>
<defs>
<radialGradient id="paint0_radial_1087_30733" cx="0" cy="0" r="1" gradientUnits="userSpaceOnUse" gradientTransform="translate(22.9102 4.48638) scale(19.8905 19.8906)">
<stop stop-color="white"/>
<stop offset="0.0682884" stop-color="white"/>
<stop offset="0.544" stop-color="white"/>
<stop offset="1" stop-color="white"/>
</radialGradient>
<radialGradient id="paint1_radial_1087_30733" cx="0" cy="0" r="1" gradientUnits="userSpaceOnUse" gradientTransform="translate(23.0175 4.49042) scale(19.8908 19.8909)">
<stop stop-color="white"/>
<stop offset="0.0597037" stop-color="#EBF8FE"/>
<stop offset="0.1825" stop-color="#B6E7FA"/>
<stop offset="0.3582" stop-color="#61CCF4"/>
<stop offset="0.544" stop-color="#00ADEE"/>
<stop offset="1" stop-color="#002F54"/>
</radialGradient>
</defs>
</svg>
