<svg width="24" height="24" viewBox="0 0 24 24" fill="none" xmlns="http://www.w3.org/2000/svg">
<rect width="24" height="24" rx="12" fill="#3373CC"/>
<path d="M17.5917 8.00834C17.5142 7.93023 17.4221 7.86824 17.3205 7.82593C17.219 7.78362 17.11 7.76184 17 7.76184C16.89 7.76184 16.7811 7.78362 16.6796 7.82593C16.578 7.86824 16.4858 7.93023 16.4084 8.00834L10.2 14.225L7.59171 11.6083C7.51127 11.5306 7.41632 11.4695 7.31227 11.4285C7.20823 11.3875 7.09713 11.3674 6.98531 11.3694C6.87349 11.3713 6.76315 11.3952 6.66058 11.4398C6.55802 11.4844 6.46524 11.5487 6.38754 11.6292C6.30984 11.7096 6.24875 11.8046 6.20774 11.9086C6.16674 12.0127 6.14663 12.1238 6.14856 12.2356C6.1505 12.3474 6.17444 12.4577 6.21902 12.5603C6.2636 12.6629 6.32794 12.7556 6.40837 12.8333L9.60837 16.0333C9.68584 16.1114 9.77801 16.1734 9.87956 16.2157C9.98111 16.2581 10.09 16.2798 10.2 16.2798C10.3101 16.2798 10.419 16.2581 10.5205 16.2157C10.6221 16.1734 10.7142 16.1114 10.7917 16.0333L17.5917 9.23334C17.6763 9.1553 17.7438 9.06059 17.79 8.95518C17.8361 8.84976 17.86 8.73592 17.86 8.62084C17.86 8.50575 17.8361 8.39192 17.79 8.2865C17.7438 8.18108 17.6763 8.08637 17.5917 8.00834Z" fill="white"/>
</svg>
