<svg width="25" height="24" viewBox="0 0 25 24" fill="none" xmlns="http://www.w3.org/2000/svg">
<path d="M17.75 4H16.55C16.15 2.8 15.05 2 13.75 2H11.75C10.45 2 9.35 2.8 8.95 4H7.75C6.05 4 4.75 5.3 4.75 7V19C4.75 20.7 6.05 22 7.75 22H17.75C19.45 22 20.75 20.7 20.75 19V7C20.75 5.3 19.45 4 17.75 4ZM10.75 5C10.75 4.4 11.15 4 11.75 4H13.75C14.35 4 14.75 4.4 14.75 5V6H10.75V5ZM13.75 16H9.75C9.15 16 8.75 15.6 8.75 15C8.75 14.4 9.15 14 9.75 14H13.75C14.35 14 14.75 14.4 14.75 15C14.75 15.6 14.35 16 13.75 16ZM15.75 12H9.75C9.15 12 8.75 11.6 8.75 11C8.75 10.4 9.15 10 9.75 10H15.75C16.35 10 16.75 10.4 16.75 11C16.75 11.6 16.35 12 15.75 12Z" fill="#191A1B"/>
</svg>
