<svg width="25" height="24" viewBox="0 0 25 24" fill="none" xmlns="http://www.w3.org/2000/svg">
<path d="M12.25 7.09999C13.25 6.69999 14.25 6.49999 15.25 6.49999C16.05 6.49999 16.85 6.59999 17.55 6.79999C15.75 2.69999 11.05 0.899988 7.05 2.59999C3.05 4.39999 1.15 9.09999 2.95 13.2C3.25 13.8 3.55 14.4 3.95 14.9L2.55 16.3C2.15 16.7 2.15 17.3 2.55 17.7C2.75 17.9 2.95 18 3.25 18H7.35C5.65 13.6 7.85 8.69999 12.25 7.09999ZM21.95 20.3L20.85 19.2C23.15 16.1 22.55 11.7 19.45 9.39999C16.35 7.09999 11.95 7.69999 9.65 10.8C7.35 13.9 7.95 18.3 11.05 20.6C12.25 21.5 13.75 22 15.25 22H21.25C21.85 22 22.25 21.6 22.25 21C22.25 20.7 22.15 20.5 21.95 20.3Z" fill="#191A1B"/>
</svg>
