<svg width="32" height="32" viewBox="0 0 32 32" fill="none" xmlns="http://www.w3.org/2000/svg">
<path d="M25.3333 14.6667H17.3333V6.66671C17.3333 6.31309 17.1928 5.97395 16.9428 5.7239C16.6927 5.47385 16.3536 5.33337 16 5.33337C15.6464 5.33337 15.3072 5.47385 15.0572 5.7239C14.8071 5.97395 14.6666 6.31309 14.6666 6.66671V14.6667H6.66665C6.31302 14.6667 5.97389 14.8072 5.72384 15.0572C5.47379 15.3073 5.33331 15.6464 5.33331 16C5.33331 16.3537 5.47379 16.6928 5.72384 16.9428C5.97389 17.1929 6.31302 17.3334 6.66665 17.3334H14.6666V25.3334C14.6666 25.687 14.8071 26.0261 15.0572 26.2762C15.3072 26.5262 15.6464 26.6667 16 26.6667C16.3536 26.6667 16.6927 26.5262 16.9428 26.2762C17.1928 26.0261 17.3333 25.687 17.3333 25.3334V17.3334H25.3333C25.6869 17.3334 26.0261 17.1929 26.2761 16.9428C26.5262 16.6928 26.6666 16.3537 26.6666 16C26.6666 15.6464 26.5262 15.3073 26.2761 15.0572C26.0261 14.8072 25.6869 14.6667 25.3333 14.6667Z" fill="white"/>
</svg>
