<svg width="25" height="24" viewBox="0 0 25 24" fill="none" xmlns="http://www.w3.org/2000/svg">
<path d="M19.25 11H13.25V5C13.25 4.73478 13.1446 4.48043 12.9571 4.29289C12.7696 4.10536 12.5152 4 12.25 4C11.9848 4 11.7304 4.10536 11.5429 4.29289C11.3554 4.48043 11.25 4.73478 11.25 5V11H5.25C4.98478 11 4.73043 11.1054 4.54289 11.2929C4.35536 11.4804 4.25 11.7348 4.25 12C4.25 12.2652 4.35536 12.5196 4.54289 12.7071C4.73043 12.8946 4.98478 13 5.25 13H11.25V19C11.25 19.2652 11.3554 19.5196 11.5429 19.7071C11.7304 19.8946 11.9848 20 12.25 20C12.5152 20 12.7696 19.8946 12.9571 19.7071C13.1446 19.5196 13.25 19.2652 13.25 19V13H19.25C19.5152 13 19.7696 12.8946 19.9571 12.7071C20.1446 12.5196 20.25 12.2652 20.25 12C20.25 11.7348 20.1446 11.4804 19.9571 11.2929C19.7696 11.1054 19.5152 11 19.25 11Z" fill="#191A1B"/>
</svg>
