<svg width="25" height="24" viewBox="0 0 25 24" fill="none" xmlns="http://www.w3.org/2000/svg">
<path d="M0.5 11.9982C0.5 13.1409 0.663248 14.2431 0.962742 15.2889C0.981154 15.3589 0.99711 15.4301 1.01675 15.5C1.02289 15.5135 1.0278 15.5246 1.03271 15.5393C2.54736 20.4331 7.11464 24 12.4994 24C14.9898 24 17.306 23.2365 19.2269 21.9305C19.2466 21.9207 19.265 21.9097 19.2834 21.8999C19.3976 21.8225 19.508 21.7391 19.6148 21.6544C21.823 20.0231 23.4542 17.6542 24.1404 14.9133C24.1784 14.7881 24.2116 14.6605 24.2386 14.5291C24.2459 14.4997 24.2484 14.469 24.2496 14.4395C24.4129 13.6503 24.5 12.834 24.5 11.9982C24.5 10.3804 24.1821 8.80806 23.5561 7.329C23.437 7.04424 23.1093 6.9129 22.8246 7.03442C22.541 7.15225 22.4097 7.47998 22.5287 7.76352C23.0946 9.10387 23.383 10.5289 23.383 11.9982C23.383 12.9003 23.2726 13.7755 23.0651 14.6126C22.8994 15.1416 22.6098 15.6289 22.2096 16.0732C22.2194 15.883 22.2256 15.6915 22.2256 15.4976C22.2305 13.3557 21.6389 11.0935 20.5403 8.96763C21.3443 8.27781 21.8586 7.42474 22.0341 6.46857C22.0918 6.16417 21.8905 5.87449 21.5873 5.81803C21.2854 5.76157 20.992 5.96287 20.9368 6.26604C20.8214 6.89817 20.4924 7.47629 19.9794 7.97095C19.8198 7.70705 19.6541 7.44438 19.4773 7.18785C18.4991 5.75052 17.3342 4.50836 16.0614 3.5166C17.7405 3.62829 19.2969 4.0358 20.5477 4.73544C20.7441 4.84591 21.0055 4.84345 21.1884 4.69002C21.4253 4.4924 21.456 4.14013 21.2584 3.90201C19.4614 1.387 16.3511 0 12.4994 0C5.88352 0 0.5 5.38352 0.5 11.9982ZM12.7805 1.63617C12.2748 1.44346 11.7764 1.29371 11.2842 1.1857C11.6795 1.14274 12.0796 1.11819 12.4847 1.11696C12.6737 1.11942 12.9081 1.34649 13.1524 1.7896C13.0284 1.73682 12.9044 1.68404 12.7805 1.63617ZM13.9907 1.19797C14.4424 1.2483 14.9248 1.32685 15.4219 1.44346C15.1101 1.60917 14.7886 1.81905 14.4608 2.06945C14.3148 1.73927 14.1589 1.44837 13.9907 1.19797ZM15.8699 2.3935C16.2517 2.14555 16.6052 1.97371 16.8997 1.90498C17.4607 2.1296 18.0155 2.41559 18.5408 2.77768C17.6976 2.56779 16.7991 2.43891 15.8699 2.3935ZM6.81514 3.86396C6.93666 3.28584 7.28648 2.76786 7.82532 2.33826C9.12763 1.95039 10.6447 2.04367 12.2355 2.62671C11.5665 2.74454 10.8964 2.89797 10.2348 3.09804C9.00243 3.4675 7.84128 3.97197 6.77832 4.58692C6.75377 4.34266 6.76482 4.09963 6.81514 3.86396ZM5.76692 3.45891C5.75219 3.51537 5.73623 3.57306 5.72396 3.63075C5.61103 4.15732 5.62331 4.69739 5.7571 5.23255C4.55544 6.06107 3.51089 7.03933 2.67869 8.14034C2.42707 8.47543 2.19999 8.81665 1.99501 9.16279C2.61241 6.87608 3.95768 4.88764 5.76692 3.45891ZM8.169 7.01478C7.70626 6.58272 7.35521 6.13103 7.11955 5.67933C8.16532 5.04966 9.32279 4.53782 10.5564 4.16714C11.2891 3.9462 12.0305 3.78295 12.7719 3.6688C11.7028 4.868 10.6361 6.38756 9.65665 8.10597C9.0994 7.78315 8.5986 7.41738 8.169 7.01478ZM12.9364 9.34077C12.1287 9.16647 11.3616 8.91976 10.6546 8.60799C11.6966 6.7877 12.8357 5.20432 13.9588 4.02721C14.3111 5.40807 14.6044 7.2664 14.7284 9.56538C14.1368 9.54206 13.5353 9.46842 12.9364 9.34077ZM15.1494 4.22728C16.4198 5.17118 17.5822 6.39124 18.5555 7.81629C18.7397 8.0851 18.914 8.36005 19.0784 8.63867C18.1873 9.15297 17.0605 9.46228 15.8429 9.54697C15.741 7.62113 15.5127 5.76894 15.1494 4.22728ZM3.981 14.5991C3.03219 13.7215 2.38166 12.7948 2.04779 11.873C2.31169 10.8419 2.82108 9.80596 3.56981 8.81174C4.28295 7.87153 5.1667 7.02337 6.18179 6.29428C6.47146 6.8233 6.88388 7.34005 7.40554 7.8298C7.90142 8.29377 8.47954 8.71355 9.12026 9.08423C8.94474 9.41932 8.77167 9.75932 8.60351 10.1055C7.61175 12.1344 6.80287 14.3119 6.32908 16.288C5.44901 15.7909 4.65609 15.2226 3.981 14.5991ZM11.2192 18.101C9.83586 17.8051 8.52987 17.3657 7.34785 16.8109C7.73449 15.0618 8.45868 12.9457 9.60633 10.594C9.77203 10.2552 9.94142 9.91889 10.1145 9.59116C10.9172 9.94957 11.7887 10.2368 12.7031 10.432C13.3991 10.5805 14.0938 10.6615 14.7738 10.686C14.7873 11.1034 14.7922 11.5354 14.7922 11.9797C14.7922 14.6089 14.5823 16.7901 14.2792 18.495C13.2788 18.4508 12.2527 18.3219 11.2192 18.101ZM15.9067 11.9797C15.9067 11.5428 15.9031 11.1058 15.8883 10.6688C17.2778 10.578 18.5629 10.2159 19.616 9.61203C20.5906 11.5403 21.1147 13.5754 21.1098 15.4939C21.1074 16.0499 21.0607 16.5789 20.9724 17.0785C20.4703 17.3866 19.8947 17.6529 19.2429 17.8714C18.0928 18.2593 16.7942 18.4704 15.4182 18.5072C15.7484 16.5225 15.9067 14.2186 15.9067 11.9797ZM2.03429 14.9759C1.93978 14.6138 1.87963 14.2456 1.85509 13.8712C2.227 14.4002 2.68238 14.9194 3.22367 15.4178C4.03992 16.1727 5.00714 16.849 6.08973 17.4283C5.86879 18.6619 5.80497 19.7789 5.94612 20.681C4.0841 19.2732 2.69097 17.2786 2.03429 14.9759ZM7.78973 21.8103C7.75536 21.782 7.72099 21.7587 7.68171 21.7378C7.06063 21.4371 6.81023 20.0538 7.1355 17.9414C8.32489 18.4766 9.62228 18.9 10.986 19.1921C12.0182 19.4119 13.048 19.5493 14.0545 19.6021C13.5623 21.7477 12.9278 22.8744 12.5092 22.8744C12.4822 22.8744 12.4564 22.8781 12.4319 22.8818C10.7699 22.8695 9.19636 22.4878 7.78973 21.8103ZM15.2059 19.6242C16.7819 19.6046 18.2781 19.3738 19.6001 18.9307C19.934 18.8178 20.2506 18.6938 20.5538 18.5576C20.1843 19.4585 19.6418 20.2085 18.9385 20.7669C17.5478 21.7906 15.9055 22.4927 14.1245 22.7615C14.5701 21.9907 14.9309 20.902 15.2059 19.6242Z" fill="url(#paint0_radial_23_360)"/>
<defs>
<radialGradient id="paint0_radial_23_360" cx="0" cy="0" r="1" gradientUnits="userSpaceOnUse" gradientTransform="translate(23.4102 4.48638) scale(19.8905)">
<stop stop-color="white"/>
<stop offset="0.0682884" stop-color="white"/>
<stop offset="0.544" stop-color="white"/>
<stop offset="1" stop-color="white"/>
</radialGradient>
</defs>
</svg>
